<svg xmlns="http://www.w3.org/2000/svg" viewBox="0 0 433.59 518.61"><defs><style>.b83a440d-6ccf-43e3-9623-60c664e73e75{fill:#02a3db;}.b9326a1a-c6b8-498b-b728-fd9163cafe2d{fill:#f18e37;}.ee92ec5a-d5f8-417e-b1f7-10796aea01e4{fill:#1a1a1a;fill-rule:evenodd;}</style></defs><title>Logo</title><g id="ed0e3ba2-0801-4261-8c3c-cc826ac33bec" data-name="Capa 2"><g id="bf4d6472-fea0-4f02-9a61-5b7c537f955b" data-name="LOGO"><path class="b83a440d-6ccf-43e3-9623-60c664e73e75" d="M33.22,394.72V372.39H50v56H33.22v-20H16.81v20H0v-56H16.81v22.33Z"/><path class="b83a440d-6ccf-43e3-9623-60c664e73e75" d="M113.9,428.42H96.05l-3-10.17H75.56l-3.12,10.17H55.07l21.21-56H92.13Zm-34.18-23.3h9.21L84.37,390.4Z"/><path class="b83a440d-6ccf-43e3-9623-60c664e73e75" d="M118.7,372.39h27.22q8.88,0,14.45,5.6t5.56,14.49A16.89,16.89,0,0,1,159.49,406a22.1,22.1,0,0,1-14.61,5.41h-9.37v17.05H118.7Zm16.81,25.37h7.69a6.14,6.14,0,0,0,4.28-1.48,5.18,5.18,0,0,0,1.64-4,5,5,0,0,0-1.64-4,6.35,6.35,0,0,0-4.28-1.41h-7.69Z"/><path class="b83a440d-6ccf-43e3-9623-60c664e73e75" d="M172.25,372.39h27.22q8.88,0,14.44,5.6t5.57,14.49A16.89,16.89,0,0,1,213,406a22.1,22.1,0,0,1-14.61,5.41h-9.37v17.05H172.25Zm16.81,25.37h7.68a6.15,6.15,0,0,0,4.29-1.48,5.18,5.18,0,0,0,1.64-4,5,5,0,0,0-1.64-4,6.36,6.36,0,0,0-4.29-1.41h-7.68Z"/><path class="b83a440d-6ccf-43e3-9623-60c664e73e75" d="M249.41,389.36l11.85-17h18.41V374l-21.85,28.17v26.26H241V402.48L219.16,374v-1.6h18.49Z"/><path class="b83a440d-6ccf-43e3-9623-60c664e73e75" d="M285.11,372.39h27.22q8.88,0,14.44,5.6t5.57,14.49A16.87,16.87,0,0,1,325.89,406a22.06,22.06,0,0,1-14.6,5.41h-9.37v17.05H285.11Zm16.81,25.37h7.68a6.15,6.15,0,0,0,4.29-1.48,5.18,5.18,0,0,0,1.64-4,5,5,0,0,0-1.64-4,6.36,6.36,0,0,0-4.29-1.41h-7.68Z"/><path class="b83a440d-6ccf-43e3-9623-60c664e73e75" d="M382,372.39v14.4H355.47v7.29H380v12.81H355.47V414H382v14.41h-43.3v-56Z"/><path class="b83a440d-6ccf-43e3-9623-60c664e73e75" d="M387,372.39h46.58v14.4H418.38v41.63H401.89V386.79H387Z"/><path class="b9326a1a-c6b8-498b-b728-fd9163cafe2d" d="M59.31,450.92a4.72,4.72,0,0,1,3.08,1.9c0,.25.07.37.21.37l-.21.93v1.8l-.34.52a.38.38,0,0,1,.34.42v3.65a.37.37,0,0,0,.42.34,34.76,34.76,0,0,0,5-.94H68l.39.18c0-.24.45-.42,1.36-.55,0,.25.14.37.34.37,0-.4,1.22-.66,3.67-.78v.18a3.27,3.27,0,0,1,1.51-.37,10.55,10.55,0,0,0,1.2.19,1.31,1.31,0,0,1,.57-.19,5,5,0,0,0,2.3,1.91c0,.15-.07.23-.19.23l.19,1.36V463H78.18a1.61,1.61,0,0,1-.78-.18,11.85,11.85,0,0,0-2.87,1.75l-.94-.24c-1.25.16-2,.24-2.32.24,0-.16-.07-.24-.23-.24l-.18.39-1-.15c0,.21-1.54.53-4.63,1v-.18c-.27,0-.76.37-1.49,1.12q-1.17,0-1.17.6v2.86h-.39a5.22,5.22,0,0,0,.6,2.14,1.86,1.86,0,0,0-.42.94,1,1,0,0,0,.21.55,16.48,16.48,0,0,1-.39,2.55,1.44,1.44,0,0,1,.18.73h-.18l.18.39v3.26a1.75,1.75,0,0,1-.18.78,1.44,1.44,0,0,1,.18.73v1.35l-.52.78c.21,0,.38.2.52.6v.55q0,.21-.18.21l.18.36a45.06,45.06,0,0,1-.34,5,2.25,2.25,0,0,1,.16.75,1.28,1.28,0,0,1-.76.39v.24c.4,0,.6.11.6.34v.18l-.42.6v1c.65,0,1,.31,1,.94q1.77,0,5-5.58.47-1.23,1-1.35c.23,0,.41.45.55,1.35a1.47,1.47,0,0,0-.21.78l.21,1A2.66,2.66,0,0,1,68,493.7l-.39-.18h-.21v.18h.42v.24l-.21.39c.26,0,.39,0,.39.13a2.42,2.42,0,0,1-1.12,1.59c0,.5-.46.94-1.38,1.3a1.79,1.79,0,0,0-.76-.13c0,.64-.64,1.14-1.92,1.49h-.6c0,.5-.69.75-2.06.75a3.14,3.14,0,0,1-2.76-1.9l.41-.57h-.2l-.34.23-1.38-3.52c.13,0,.2-.06.2-.18-.29,0-.54-.57-.75-1.72a1.93,1.93,0,0,0,.15-.75c-.22,0-.33-.13-.33-.4v-.39a.16.16,0,0,1,.18-.18,2.43,2.43,0,0,1-.42-1.14q0-.6.57-.6V488l-.57.37V487a1.16,1.16,0,0,1,.24-.73,1.25,1.25,0,0,1-.24-.78l.42-.21-.18-.39v-.16a.16.16,0,0,1,.18-.18q-.13-.78-.42-.78a18,18,0,0,1,.57-3.67,9.56,9.56,0,0,1-.33-1.75h-.24c-.35,1.16-.66,1.75-.94,1.75l.19.39c-.07.59-.71,1.48-1.91,2.68h-.62l-.16.39-.39-.21a1.86,1.86,0,0,1-.94.42q0-.42-1.17-.78v-.16l1.17-1.56h.19l-.19-.39a40.47,40.47,0,0,0,3.62-10.76c-.12,0-.18-.06-.18-.19l.39-.2.42.2a11,11,0,0,1,.13-2.11l-.36-.23h-1a9.62,9.62,0,0,0-1.93.42c-.53,0-.85-.39-.93-1.18h-.19c0,.51-.14.76-.41.76h-1a5.69,5.69,0,0,1-3.44-1.49l-.41.19a3.06,3.06,0,0,0-1.54-.76v-.18q0-.29,1.2-1.2l.57.42c0-.58.44-1,1.33-1.36a.16.16,0,0,1,.18.18q2.58-.57,7.11-1.14a1.43,1.43,0,0,0,.76.21h.21q0-.39.18-.39t.24.18c1.14,0,1.72-.64,1.72-1.9a10.94,10.94,0,0,1,.39-3.1c0-.13-.07-.19-.21-.19a13.75,13.75,0,0,1,1-4.61c-.28,0-.41-.12-.41-.36v-.42a.38.38,0,0,1,.41-.39h.18c.13,0,.19.06.19.18ZM44.15,465.09v.24h.42v-.24Zm.76.58v.18h.41v-.18Zm8.1.41v.37h.36v-.37Zm2.47,9.59v.19h.4v-.19Zm0,13.27v.18h.4v-.18Zm.6,4.22v.18h.37v-.18Zm.19-2.32v.41h.18v-.41Zm.6,1.9V493h.39c0,.25-.21.37-.63.37v.18h.24l.93-.18V493a1.19,1.19,0,0,1-.75-.23Zm3-3.21c0-.27.13-.41.34-.41q0,.21.24.21v-.39h-.58a.35.35,0,0,0-.39.39Zm.34-6.72V483h.42v-.16Zm0,2.87h.24a2.09,2.09,0,0,1,1.14-.42l-.18-.39a2.48,2.48,0,0,1-1.2.6Zm.24.36v.42h.18V486Zm.18,5v.41h.21v-.41Zm.21-18.82v.16h.39v-.16Zm0,17.64q0,.39.39.39v-.18a.34.34,0,0,0-.39-.39Zm.75-17.64v.16h.42v-.16Zm0,12.09v.39h.24v-.39Zm.42,9h.34v.18h-.34Zm3.62,1.93-.18.78h.18l.37-.21a1.92,1.92,0,0,1-.16-.57Z"/><path class="b9326a1a-c6b8-498b-b728-fd9163cafe2d" d="M77.06,468.74a5.06,5.06,0,0,1,1.35-.21,5.12,5.12,0,0,1,1.31,1.38,1.89,1.89,0,0,1,1.74,1.18v.36a1.72,1.72,0,0,1-.18.78,8.26,8.26,0,0,1,.36,1.51q-1.32,2.14-2.71,5Q76.69,482,73.8,482l-.39.6V483c0,.68.06,1.77.18,3.28A11.6,11.6,0,0,0,79.72,481h.8v.78a18.52,18.52,0,0,0,.34,1.93c-.34.16-1,1.31-2.11,3.47q-.47,1.25-.75,1.32l.18.4v.39a1.45,1.45,0,0,0-1.33.93c-.26,0-.77.33-1.54,1-1.93-.36-2.89-.82-2.89-1.38A15,15,0,0,1,69,488.54q-.67,0-1.74-1.14a12.58,12.58,0,0,1-1.12-2.69h.15l-.15-.39v-1.17a1.92,1.92,0,0,0-.19-.94q0-4.66,3.81-10c1.94-2.46,3.87-3.7,5.78-3.7C76.46,468.67,77,468.74,77.06,468.74Zm-2.5,9.8c.38,0,1.09-.77,2.13-2.29.25,0,.43-.45.55-1.33-1.3,0-2.2,1-2.68,2.89Z"/><path class="b9326a1a-c6b8-498b-b728-fd9163cafe2d" d="M102.12,464.44h2.06c0,.16.21.41.63.76h-.24a1.69,1.69,0,0,0,1.18,1.35q.39.78,1,.78c0,.13-.06.19-.18.19a8.21,8.21,0,0,0,.94,2.47c0,.14-.07.21-.19.21l.58.94q-.27,1.2-.81,1.2v.18h.42c0,.63-.14.94-.42.94l.23.36v.42l-.36-.18h-.63v.73l.76-.55v.21c0,.12,0,.18-.13.18l.13.37c-.14.48-.31.72-.52.72l.18.42c0,.23-.2.42-.6.58l.18.39a1.89,1.89,0,0,1-1,1.53.83.83,0,0,1-.94.94l.18.42a6.3,6.3,0,0,0-1.72,2.45c0,.15.07.23.21.23a1.75,1.75,0,0,1-.21.6,8.77,8.77,0,0,1,.21,1.51h-.21l.21.42c0,.62-.13.94-.39.94l.18.36v.6c0,.11-.06.16-.18.16l.39.81q0,.57-.6.57a1.26,1.26,0,0,1,.39.75l-.18.4c0,.13.06.2.18.2a12.47,12.47,0,0,1-.57,2.87q.39,0,.39.36v.42l-.39.57h.39c0,1.15-.18,1.72-.55,1.72v.19h.34v.21a2.4,2.4,0,0,1-.34,1.12,2,2,0,0,1,.16.78v.23c-.38,0-.57.12-.57.34l.41.6v.18h-.41V500q.57,0,.57.21,0,1-.36,1l.2.39-.59.76v.18h.18v-.37h.21l.2,1c-.13,1.09-.2,1.73-.2,1.9.14,0,.2.07.2.21l-.41.18.21.37c0,.15-.07.23-.21.23l.21.39v.55a.34.34,0,0,1-.39.39l.18.39v.73h-.18v-.34h-.4c0,.19.26.44.79.76a1,1,0,0,0-.21.52c.14,0,.21.08.21.23l-.39.18.18,1c0,.28-.14.41-.42.41,0-.12-.05-.18-.16-.18l-.2.34c.79,0,1.19.46,1.19,1.38l-.2.39,1.32,2.9h.19l-.19.33a3.51,3.51,0,0,0,.4,1.18c-.39,0-.58.13-.58.39l-.39-.19a7.88,7.88,0,0,0-2.11.94c0-.17-.44-.42-1.33-.75h-.18q0,.36-.21.36c-1.67-.36-2.5-1.07-2.5-2.11V516h.36q0-.42-.36-.42V516h-.42a2.05,2.05,0,0,0-.36-1.39c.12,0,.18-.07.18-.23a.16.16,0,0,1-.18-.18h.18a11.7,11.7,0,0,1-.57-2.27,1.61,1.61,0,0,0,.23-.94H95v-1l.18-.39H94.8v-.23c0-.07.06-.11.19-.11a3,3,0,0,1-.42-1.56c0-.14.08-.21.23-.21l-.23-.36v-1.93c0-.14.08-.21.23-.21l-.23-.39V504l.23-.4c-.15,0-.23,0-.23-.13H95l-.19-.8c.12-1.93.19-3.22.19-3.86.12,0,.18-.05.18-.16H95l.41-1.19a1.24,1.24,0,0,1-.23-.73l.23-.39v-.6h.16v-.4a1.78,1.78,0,0,0-.16-.75,12.14,12.14,0,0,0,.52-1.9l-.18-1c.09-1.14.22-1.72.39-1.72l-.21-.41v-.19q0-.18.21-.18l-.21-.39q0-.18.21-.18,0-.18-.21-.18l.42-2.32h-.21a1.9,1.9,0,0,0,.21-.6l-.6-.76-.34.21H95l-.42-.21c0,.37-.12.55-.34.55l-.39-.13c-.38,0-.57.17-.57.52h-1a.16.16,0,0,1-.18-.18q-.21,0-.21.18l-1-.18-.34.18a2.09,2.09,0,0,0-.94-.39c0,.14-.07.21-.23.21l-.18-.34q.08-.81.57-.81l-.16-.34a2.43,2.43,0,0,0,1.1-.6q5.24-1,6-1.53l-.18-.42v-.18h.39V481c0-.15-.07-.23-.21-.23l.21-.34a1.53,1.53,0,0,0-.21-.81l.42-.75-.21-.37.21-.94h-.21l.39-1.38-.18-.42.18-1.9a1.38,1.38,0,0,1-.18-.54c.31,0,.63-.66.94-2h.21l-.21-.36a3.05,3.05,0,0,0,.36-1.12h-.15q1.42-3.68,2.66-4.28c0-.21.4-.52,1.19-.93Zm-7,37.24v.2l.57.4v-.19Zm1-6.13v.39h.21v-.39Zm0,.79v.18h.39v-.18Zm0,10v.13h.39v-.13Zm.78,8.78v-.36q-.25,0-.57.6A1.09,1.09,0,0,1,96.91,515.12Zm2.48-17.27v.62a.37.37,0,0,0,.42-.42v-.2Zm1.35,12.32v.18h.39v-.18Zm2.32-35.38a1.55,1.55,0,0,1,.18.78h.19a7.93,7.93,0,0,0,1-2.5h-.21l.21-.37v-.78c0-.24-.11-.36-.34-.36A9.22,9.22,0,0,0,103.06,474.79Z"/><path class="b9326a1a-c6b8-498b-b728-fd9163cafe2d" d="M119.82,466.32a1.2,1.2,0,0,1,.7-.21c0,.14.33.43,1,.86,0,.24.29.48.86.7a1.53,1.53,0,0,1,.16.66v.88h.31v.34a.61.61,0,0,0-.63.68c.21,0,.32,0,.32.15l.31-.15h2.68a1.57,1.57,0,0,0,.5.86v.15h-.34v.21H126l-.18.29c0,.24.17.36.52.36l-.34.47v.24h.34v.47H126v.52c0,.22.16.34.49.34v.31a5.79,5.79,0,0,0,.16,1.38l-.16.89a2.18,2.18,0,0,0,.16.52l-.16,1v.36H126v.16c.33,0,.49.23.49.7l-.15,1.69c.1,0,.15.07.15.19h-.15l.15.31q0,.18-.15.18a1.86,1.86,0,0,0,.15.52c-.08,1.58-.31,2.37-.67,2.37l.67.84v.18q0,.21-.15.21a1.91,1.91,0,0,1,.31,1v.52c.21,0,.63.78,1.28,2.35.86.1,1.18.61.93,1.53.11.75-.45,1.21-1.66,1.38,0,.25-.4.42-1.2.52,0-.13-1.11-.41-3.34-.83a7.41,7.41,0,0,1-2.86-3.07c-.11,0-.16-.07-.16-.19s.18-.34.55-.34v-.15h-1q-.36-2.55-1-2.55c0,.15-.22.37-.68.65a1.67,1.67,0,0,0-.52-.16l-.18.34a1.11,1.11,0,0,1,.18.52l-1,.89h-.18c0-.46-.1-.68-.31-.68s-.32.22-.32.68h-.39V488h-.47v.16h.32l-.16.86h-.16l-.83-.19v.34h-1.85a7.48,7.48,0,0,1-2.84-.8h-.47V488h-.15v.37h-.68a2.66,2.66,0,0,0-.52-1.07c-.26,0-.48-.63-.65-1.88H106v-.52c0-.21.16-.31.49-.31l-.49-.89v-.47l.34-.52v-.15c-.2,0-.37-.13-.53-.4l.19-.8v-.52c.29,0,.51-.52.65-1.54a6.73,6.73,0,0,0,1.35-2.76c.16,0,.49-.56,1-1.67l1.36-2c.87-1.51,1.41-2.27,1.64-2.27.5,0,1-.56,1.35-1.69l.66-.52-.19-.34v-.16c1.19-1.58,2-2.37,2.37-2.37C116.19,465.74,117.4,466,119.82,466.32Zm-7.61,12.77v.36h.15v-.36Zm2.45-.71v.21a3.09,3.09,0,0,0-.84,2.06c-.19,0-.34.39-.47,1.17-.55,0-.83.51-.83,1.51-.1,0-.16.25-.16.73a2.56,2.56,0,0,1,1.31-.73l-.16-.34v-.15h.5l-.19-.31v-.19c.91-.87,1.37-1.56,1.38-2.08a1.8,1.8,0,0,0,1.15-1.67c.17,0,.39-.35.65-.88l-.18-.32c.26,0,.55-.45.86-1.35v-.52a1.26,1.26,0,0,1-.31-.68c-.25,0-.7.49-1.36,1.48a6.11,6.11,0,0,0-1,1.59,1.67,1.67,0,0,1-.52.16Zm2.86-4.74v.81h.16a1.28,1.28,0,0,1,.34-.65l-.34-.16Zm3.31,16.52c0,.24.18.36.37.36h.15q0-.36-.33-.36Zm1.54-13.44v.33h.16v-.33Zm.65,3.93v.16h.34v-.16Zm.5,4.06v.16h.31v-.16Z"/><path class="b9326a1a-c6b8-498b-b728-fd9163cafe2d" d="M138.39,471.45c.06-.24.17-.36.34-.36v.18l.42-.18h.36c.79.64,1.18,1.21,1.18,1.72l-.19.93a1.55,1.55,0,0,1,.19.58,9.2,9.2,0,0,1-1.72,2.32c-.7,0-1.48,1.09-2.35,3.28h-.75v.16h.41l-.75.78a.38.38,0,0,1,.34.39,12.45,12.45,0,0,1-.94,1.72.16.16,0,0,0,.18.18l-.18,1.38v.94l.18.36a21,21,0,0,0,4.4-3.25,11,11,0,0,0,3.11-1.72c.6-.3.92-.56.93-.78l.42.18a6.77,6.77,0,0,1,2.48-.73c1.68,0,2.52.18,2.52.55l-.23,1a1.59,1.59,0,0,1,.23.6c-2.69.78-4,1.61-4,2.47q-1.29,0-6,4.23a8.26,8.26,0,0,1-3.62,1.74q0-.21-.24-.21v.21q.24,0,.24.18h-.24q-1,0-1-.39c-.12,0-.19.07-.19.21q-4.61-1.38-4.61-3.83h.21l-.21-.42v-.36l.21-.39c-.28,0-.42-.12-.42-.37v-.39a1.38,1.38,0,0,1,.21-.78.19.19,0,0,0-.21-.21c0-1.13.26-1.69.79-1.69v-.18h-.37v-.21q0-2.65,2.45-6.93,0-.39.6-.78l-.18-.34v-.39c.48,0,.92-.39,1.3-1.18.68,0,1.14-.43,1.38-1.3A16.54,16.54,0,0,0,138.39,471.45Zm-8.46,15.77v.18l.41.18v-.18Zm1.14-10.58v.41h.21v-.41ZM134,473v.21h.4V473Zm4,14.59V488h.39v-.39Zm1.75-13.44v.18l.36.21v-.21Z"/><path class="b9326a1a-c6b8-498b-b728-fd9163cafe2d" d="M151.42,470.2l.42-.21c1.91.47,2.87,1.11,2.87,1.93a2,2,0,0,0-.42,1.15h.23q-.22,1.17-.39,1.17l.16.39a1.85,1.85,0,0,1-.16.76,1.91,1.91,0,0,1,.16.75c0,.12,0,.18-.16.18l.16.4c-.11.41-.22.62-.34.62l.18.34v.6h-.36c0,.24.17.36.52.36v.19l-.34.62c.12,0,.18,0,.18.13H154a1.81,1.81,0,0,1,.18.63q0,.93-.36.93l.18.37v1.17q0,.39-.6.39c.31,1.77.57,2.66.78,2.66h.16a2.18,2.18,0,0,1,1-.52c1,0,1.56.21,1.56.52a9.73,9.73,0,0,0-.42,2.5l.21.42c0,1.25-.95,2.27-2.86,3.07a17.65,17.65,0,0,0-4.07-.75v-.24l-.34.24c-.74,0-1.59-.72-2.52-2.14h-.21l.21-.36c-.39,0-.65-.46-.79-1.36v-.18a1.62,1.62,0,0,0,.21-.6c-.27,0-.41-.12-.41-.37s.07-.23.2-.23l-.2-.39a1.12,1.12,0,0,0,.2-.55.18.18,0,0,1-.2-.21l.41-.18-.21-.34v-.23l.21-1h-.21a6,6,0,0,0,.4-1.72h.18l.39.19v-.19a.16.16,0,0,1-.18-.18c.48,0,.73-.14.73-.41v-.16h-.16l-.78.57v-.57a1.58,1.58,0,0,1,.21-.81,1.39,1.39,0,0,1-.21-.75v-.37c.4,0,.66-1.15.78-3.46l-.18-.76q0-1.17.54-1.17v-.55l-.2-.42c.27,0,.41-.12.41-.36q-.57-.18-.57-1.17c0-.18.38-.68,1.15-1.52Zm-3.65,8.63v.23h.4v-.23ZM159.29,456q0-.18.24-.18V456a5.34,5.34,0,0,0-.58,2.35,5.93,5.93,0,0,0-3.1,2.66c0,.19-.24.44-.73.75l.16.39c0,.35-1,.73-2.89,1.15a16.67,16.67,0,0,1-3.63-1.15v-.57l.37.18h.23v-.18H149a11,11,0,0,0,1.9-2.29c.47,0,1.61-.91,3.44-2.71.42-.14.92-.28,1.51-.42s1.49-.38,2.34-.57A2.87,2.87,0,0,0,159.29,456Zm-9.17,29v.34h.18V485Zm.34-6.72v.36h.18v-.36Zm1.38,6.51v.42H152v-.42Z"/><path class="b9326a1a-c6b8-498b-b728-fd9163cafe2d" d="M166.17,439.38l1-.19c1,.14,1.77.91,2.45,2.3.19,0,.52.44,1,1.33q-.25,0-.78,1.38a1.28,1.28,0,0,1,.21.73q0,.75-.63.75v.24q.14.39.42.39l-.21.34a9.3,9.3,0,0,1,.21,1.72c0,.14-.07.2-.21.2l.21.4c0,.19-.18.38-.55.57a5.3,5.3,0,0,1,.34,1.56c-.05.51-.24.76-.55.76a27.1,27.1,0,0,1,.34,2.86c-.21,0-.38.58-.52,1.72l.39,1.2c-.3.54-.56.85-.81.94,0,.14.06.21.19.21a5.39,5.39,0,0,1-.53,2.29.35.35,0,0,1,.34.37v.6q0,.39-.57.39l.42.54c-.14,1.15-.4,1.72-.79,1.72l.19.39v.76c0,.16-.06.23-.19.23l.19.37v.78a4,4,0,0,1-.55,1.9.35.35,0,0,1,.36.39v.58l-.78.23v.13l.78.81c-.27,0-.47.43-.59,1.3a1.57,1.57,0,0,1,.23.63h-.23a1,1,0,0,1,.23.54,6,6,0,0,0-.63,1.93c.14,0,.21.06.21.19-.5.19-.75.39-.75.59v.19h.41l.34-.19.19.37a1.2,1.2,0,0,1-.76.23v.16c.5,0,.76.12.76.36l-.4.24h-.13v-.42a.39.39,0,0,0-.41.42c.62.31.94.56.94.73h-.19c0,.14.06.21.19.21,0,.24-.07.36-.19.36l.19,1.93V483c.32.64.59,1,.78,1h.18a8,8,0,0,0,1.93-3.67l.78-.55H171c.31,0,.63.84.94,2.5q-.94,4.59-2.11,4.59a8.18,8.18,0,0,1-2.3,2.73v.16l.19.39-.37.18q-.18-.57-1.17-.57a.16.16,0,0,0-.18.18l-.78-.34c0,.18-.2.36-.6.55h-.55q-.18,0-.18-.21a2.15,2.15,0,0,1-1.18.39h-.18a3,3,0,0,1-2.5-1.14v-.58c-.8-.22-1.3-.92-1.51-2.08h.21c-.38-1.16-.66-1.75-.84-1.75l.24-.39v-.21q-.39,0-.39-.18t.15-.18l-.36-3.28h.21l-.21-.39a4.63,4.63,0,0,1,.36-1.33,8.51,8.51,0,0,1-.15-1.36,1.6,1.6,0,0,0,.15-.57q-.15,0-.15-.18a1.73,1.73,0,0,1,.78-.19v-.36h-.21l-.42.16-.15-.39v-.19a2.18,2.18,0,0,1,.57-1.35l-.57-.37a2.79,2.79,0,0,1,.57-1.72h-.42v-.18c0-.16.08-.23.24-.23l-.24-.37a.42.42,0,0,1,.42-.36q-.21-1-.57-1a3.32,3.32,0,0,1,.57-1.36c-.19,0-.38-.18-.57-.55l.57-2.34-.18-.34v-.42c0-.9.31-1.35.94-1.35v-.16h-.19a1.66,1.66,0,0,1-.57.16l-.18-.37.18-.39a1.21,1.21,0,0,1-.18-.54q.63,0,.75-1.59c-.24,0-.36-.06-.36-.16q.53-6.15,1.3-7.66a2.1,2.1,0,0,0-.15-.6c.38-2.08.7-3.13,1-3.13l-.23-.33c.5-4,1-6,1.35-6-.23-1.33-.34-2-.34-2.11l.94-.78h.55v.39h.41c0-.5.64-.94,1.91-1.33Zm-8,28.42q0,.39.39.39l.21-.39Zm0,5v.39h.18v-.39Zm0,5a1.31,1.31,0,0,1,.6-.24v-.36a2.38,2.38,0,0,1-.6-.16Zm.18-9.43v.15h.42v-.15Zm1.36-11.94v.6q.36,0,.36-.39Zm4.22,17.88v.39h.18v-.39Zm.18-34.4v.4h.21v-.4Zm1.15,29.21v.39h.39v-.39Zm.57,3.1.39.16c.24,0,.36-.11.36-.34s-.12-.42-.36-.42Zm1.15-8.86v.21h.41v-.21Zm.23,3.26v.42h.18v-.42Zm.55-6.9h.41a.37.37,0,0,0-.41-.42Zm.6-3.47v.39h.15v-.39Z"/><path class="b9326a1a-c6b8-498b-b728-fd9163cafe2d" d="M176.7,470.2l.41-.21c1.91.47,2.87,1.11,2.87,1.93a2,2,0,0,0-.42,1.15h.24q-.24,1.17-.39,1.17l.15.39a2,2,0,0,1-.15.76,2.09,2.09,0,0,1,.15.75q0,.18-.15.18l.15.4c-.1.41-.22.62-.34.62l.19.34v.6H179c0,.24.17.36.52.36v.19l-.34.62c.12,0,.19,0,.19.13h-.19a1.88,1.88,0,0,1,.19.63c0,.62-.13.93-.37.93l.18.37v1.17q0,.39-.6.39c.32,1.77.58,2.66.79,2.66h.15a2.18,2.18,0,0,1,1-.52c1,0,1.57.21,1.57.52a9.73,9.73,0,0,0-.42,2.5l.21.42c0,1.25-1,2.27-2.87,3.07A17.57,17.57,0,0,0,175,491v-.24l-.34.24c-.75,0-1.59-.72-2.53-2.14h-.21l.21-.36c-.38,0-.64-.46-.78-1.36v-.18a1.62,1.62,0,0,0,.21-.6c-.28,0-.42-.12-.42-.37s.07-.23.21-.23l-.21-.39a1.16,1.16,0,0,0,.21-.55.19.19,0,0,1-.21-.21l.42-.18-.21-.34v-.23l.21-1h-.21a5.75,5.75,0,0,0,.39-1.72h.18l.39.19v-.19a.16.16,0,0,1-.18-.18c.49,0,.73-.14.73-.41v-.16h-.16l-.78.57v-.57a1.58,1.58,0,0,1,.21-.81,1.39,1.39,0,0,1-.21-.75v-.37c.4,0,.66-1.15.78-3.46l-.18-.76c0-.78.18-1.17.55-1.17v-.55l-.21-.42q.42,0,.42-.36c-.38-.12-.58-.51-.58-1.17,0-.18.39-.68,1.15-1.52Zm-3.65,8.63v.23h.39v-.23ZM184.57,456c0-.12.07-.18.23-.18V456a5.57,5.57,0,0,0-.57,2.35,5.86,5.86,0,0,0-3.1,2.66c0,.19-.25.44-.73.75l.15.39c0,.35-1,.73-2.89,1.15a16.66,16.66,0,0,1-3.62-1.15v-.57l.36.18h.24v-.18h-.42a10.7,10.7,0,0,0,1.9-2.29c.47,0,1.62-.91,3.44-2.71.42-.14.92-.28,1.51-.42s1.5-.38,2.35-.57A2.77,2.77,0,0,0,184.57,456Zm-9.18,29v.34h.19V485Zm.34-6.72v.36h.18v-.36Zm1.38,6.51v.42h.19v-.42Z"/><path class="b9326a1a-c6b8-498b-b728-fd9163cafe2d" d="M190.79,450.92a4.72,4.72,0,0,1,3.08,1.9c0,.25.07.37.21.37l-.21.93v1.8l-.34.52a.38.38,0,0,1,.34.42v3.65a.37.37,0,0,0,.41.34,34.54,34.54,0,0,0,5-.94h.18l.39.18c0-.24.45-.42,1.35-.55,0,.25.15.37.34.37,0-.4,1.23-.66,3.68-.78v.18a3.27,3.27,0,0,1,1.51-.37,10.55,10.55,0,0,0,1.2.19,1.27,1.27,0,0,1,.57-.19,5,5,0,0,0,2.29,1.91c0,.15-.06.23-.18.23l.18,1.36V463h-1.14a1.61,1.61,0,0,1-.78-.18,11.66,11.66,0,0,0-2.87,1.75l-.94-.24c-1.25.16-2,.24-2.32.24a.21.21,0,0,0-.23-.24l-.18.39-1-.15c0,.21-1.55.53-4.64,1v-.18c-.26,0-.75.37-1.48,1.12q-1.17,0-1.17.6v2.86h-.4a5.22,5.22,0,0,0,.6,2.14,1.92,1.92,0,0,0-.41.94,1,1,0,0,0,.21.55,14.74,14.74,0,0,1-.4,2.55,1.35,1.35,0,0,1,.19.73h-.19l.19.39v3.26a1.64,1.64,0,0,1-.19.78,1.35,1.35,0,0,1,.19.73v1.35l-.52.78c.2,0,.38.2.52.6v.55c0,.14-.06.21-.19.21l.19.36a47.63,47.63,0,0,1-.34,5,2.22,2.22,0,0,1,.15.75,1.23,1.23,0,0,1-.75.39v.24c.4,0,.6.11.6.34v.18l-.42.6v1a.85.85,0,0,1,1,.94c1.18,0,2.84-1.86,5-5.58q.46-1.23,1-1.35c.22,0,.41.45.55,1.35a1.47,1.47,0,0,0-.21.78l.21,1a2.68,2.68,0,0,1-1.15,2.24l-.39-.18h-.21v.18h.42v.24l-.21.39c.26,0,.39,0,.39.13a2.45,2.45,0,0,1-1.12,1.59c0,.5-.46.94-1.38,1.3a1.82,1.82,0,0,0-.76-.13c0,.64-.64,1.14-1.93,1.49h-.6c0,.5-.68.75-2.05.75a3.16,3.16,0,0,1-2.77-1.9l.42-.57h-.21l-.34.23-1.38-3.52q.21,0,.21-.18c-.29,0-.55-.57-.75-1.72a1.93,1.93,0,0,0,.15-.75c-.22,0-.34-.13-.34-.4v-.39c0-.12.06-.18.19-.18a2.43,2.43,0,0,1-.42-1.14q0-.6.57-.6V488l-.57.37V487a1.22,1.22,0,0,1,.23-.73,1.31,1.31,0,0,1-.23-.78l.42-.21-.19-.39v-.16c0-.12.06-.18.19-.18q-.13-.78-.42-.78a17.27,17.27,0,0,1,.57-3.67,10.27,10.27,0,0,1-.34-1.75h-.23c-.35,1.16-.66,1.75-.94,1.75l.18.39a6,6,0,0,1-1.9,2.68h-.62l-.16.39-.39-.21a1.86,1.86,0,0,1-.94.42q0-.42-1.17-.78v-.16l1.17-1.56h.18l-.18-.39a40.47,40.47,0,0,0,3.62-10.76c-.12,0-.18-.06-.18-.19l.39-.2.42.2a11,11,0,0,1,.13-2.11l-.37-.23h-1a9.48,9.48,0,0,0-1.93.42c-.54,0-.85-.39-.94-1.18h-.18c0,.51-.14.76-.42.76h-1a5.67,5.67,0,0,1-3.44-1.49l-.42.19a3,3,0,0,0-1.53-.76v-.18c0-.19.4-.59,1.19-1.2l.58.42c0-.58.44-1,1.33-1.36a.16.16,0,0,1,.18.18q2.58-.57,7.11-1.14a1.43,1.43,0,0,0,.76.21h.21q0-.39.18-.39c.16,0,.23.06.23.18,1.15,0,1.72-.64,1.72-1.9a10.94,10.94,0,0,1,.39-3.1c0-.13-.06-.19-.2-.19a13.5,13.5,0,0,1,1-4.61q-.42,0-.42-.36v-.42a.4.4,0,0,1,.42-.39h.18a.16.16,0,0,1,.18.18Zm-15.16,14.17v.24H176v-.24Zm.75.58v.18h.42v-.18Zm8.11.41v.37h.36v-.37Zm2.47,9.59v.19h.39v-.19Zm0,13.27v.18h.39v-.18Zm.6,4.22v.18h.37v-.18Zm.18-2.32v.41h.19v-.41Zm.6,1.9V493h.39c0,.25-.2.37-.62.37v.18h.23l.94-.18V493a1.18,1.18,0,0,1-.75-.23Zm3-3.21c0-.27.13-.41.34-.41q0,.21.24.21v-.39h-.58a.35.35,0,0,0-.39.39Zm.34-6.72V483h.42v-.16Zm0,2.87H192a2.06,2.06,0,0,1,1.14-.42l-.18-.39a2.48,2.48,0,0,1-1.2.6Zm.24.36v.42h.18V486Zm.18,5v.41h.21v-.41Zm.21-18.82v.16h.39v-.16Zm0,17.64q0,.39.39.39v-.18a.34.34,0,0,0-.39-.39Zm.75-17.64v.16h.42v-.16Zm0,12.09v.39h.24v-.39Zm.42,9h.34v.18h-.34Zm3.62,1.93-.18.78h.18l.36-.21a2.14,2.14,0,0,1-.15-.57Z"/><path class="b9326a1a-c6b8-498b-b728-fd9163cafe2d" d="M212.08,466.32a1.23,1.23,0,0,1,.7-.21c0,.14.33.43,1,.86,0,.24.29.48.86.7a1.4,1.4,0,0,1,.16.66v.88h.31v.34a.6.6,0,0,0-.62.68c.21,0,.31,0,.31.15l.31-.15h2.69a1.53,1.53,0,0,0,.49.86v.15h-.34v.21h.34l-.18.29c0,.24.17.36.52.36l-.34.47v.24h.34v.47h-.34v.52c0,.22.17.34.5.34v.31a6.34,6.34,0,0,0,.15,1.38l-.15.89a2.48,2.48,0,0,0,.15.52l-.15,1v.36h-.5v.16c.33,0,.5.23.5.7l-.16,1.69c.1,0,.16.07.16.19h-.16l.16.31c0,.12-.06.18-.16.18a1.67,1.67,0,0,0,.16.52c-.09,1.58-.32,2.37-.68,2.37l.68.84v.18c0,.14-.06.21-.16.21a1.82,1.82,0,0,1,.31,1v.52c.21,0,.64.78,1.28,2.35.87.1,1.18.61.94,1.53.1.75-.45,1.21-1.67,1.38,0,.25-.4.42-1.2.52,0-.13-1.11-.41-3.33-.83a7.38,7.38,0,0,1-2.87-3.07c-.1,0-.16-.07-.16-.19s.19-.34.55-.34v-.15h-1q-.36-2.55-1-2.55c0,.15-.22.37-.67.65a1.75,1.75,0,0,0-.52-.16l-.19.34a1.15,1.15,0,0,1,.19.52l-1,.89h-.19c0-.46-.1-.68-.31-.68s-.31.22-.31.68h-.39V488h-.47v.16h.31l-.16.86h-.15l-.84-.19v.34h-1.85a7.53,7.53,0,0,1-2.84-.8h-.46V488h-.16v.37h-.68a2.53,2.53,0,0,0-.52-1.07c-.26,0-.48-.63-.65-1.88h-.34v-.52c0-.21.17-.31.5-.31l-.5-.89v-.47l.34-.52v-.15c-.19,0-.37-.13-.52-.4l.18-.8v-.52c.3,0,.51-.52.65-1.54a6.75,6.75,0,0,0,1.36-2.76c.15,0,.48-.56,1-1.67l1.35-2c.87-1.51,1.42-2.27,1.64-2.27.51,0,1-.56,1.36-1.69l.65-.52-.18-.34v-.16q1.77-2.37,2.37-2.37C208.46,465.74,209.67,466,212.08,466.32Zm-7.61,12.77v.36h.16v-.36Zm2.45-.71v.21a3.14,3.14,0,0,0-.83,2.06c-.19,0-.35.39-.47,1.17-.56,0-.84.51-.84,1.51-.1,0-.15.25-.15.73a2.54,2.54,0,0,1,1.3-.73l-.16-.34v-.15h.5l-.18-.31v-.19c.9-.87,1.36-1.56,1.38-2.08a1.8,1.8,0,0,0,1.14-1.67c.18,0,.4-.35.66-.88l-.19-.32c.26,0,.55-.45.86-1.35v-.52a1.35,1.35,0,0,1-.31-.68c-.24,0-.69.49-1.35,1.48a5.62,5.62,0,0,0-1,1.59,1.7,1.7,0,0,1-.53.16Zm2.87-4.74v.81h.15a1.37,1.37,0,0,1,.34-.65l-.34-.16Zm3.31,16.52q.08.36.36.36h.16c0-.24-.12-.36-.34-.36Zm1.53-13.44v.33h.16v-.33Zm.65,3.93v.16h.34v-.16Zm.5,4.06v.16h.31v-.16Z"/><path class="b9326a1a-c6b8-498b-b728-fd9163cafe2d" d="M243.14,439.38l1-.19c1,.14,1.77.91,2.45,2.3.19,0,.52.44,1,1.33q-.27,0-.78,1.38a1.27,1.27,0,0,1,.2.73c0,.5-.2.75-.62.75v.24c.09.26.22.39.42.39l-.21.34a9.3,9.3,0,0,1,.21,1.72c0,.14-.07.2-.21.2l.21.4c0,.19-.19.38-.55.57a5.65,5.65,0,0,1,.34,1.56c-.05.51-.24.76-.55.76a27.1,27.1,0,0,1,.34,2.86c-.21,0-.38.58-.52,1.72l.39,1.2c-.3.54-.56.85-.81.94q0,.21.18.21a5.28,5.28,0,0,1-.52,2.29.35.35,0,0,1,.34.37v.6q0,.39-.57.39l.42.54c-.14,1.15-.4,1.72-.79,1.72l.19.39v.76c0,.16-.07.23-.19.23l.19.37v.78a4,4,0,0,1-.55,1.9.35.35,0,0,1,.36.39v.58l-.78.23v.13l.78.81c-.27,0-.47.43-.6,1.3a1.47,1.47,0,0,1,.24.63h-.24a1,1,0,0,1,.24.54,6,6,0,0,0-.63,1.93c.14,0,.21.06.21.19-.5.19-.75.39-.75.59v.19h.41l.34-.19.18.37a1.18,1.18,0,0,1-.75.23v.16q.75,0,.75.36l-.39.24h-.13v-.42a.39.39,0,0,0-.41.42c.62.31.93.56.93.73h-.18q0,.21.18.21,0,.36-.18.36l.18,1.93V483c.33.64.59,1,.79,1h.18a8,8,0,0,0,1.93-3.67l.78-.55H248c.31,0,.62.84.94,2.5q-.94,4.59-2.11,4.59a8.18,8.18,0,0,1-2.3,2.73v.16l.19.39-.37.18q-.18-.57-1.17-.57a.16.16,0,0,0-.18.18l-.79-.34c0,.18-.19.36-.59.55H241q-.18,0-.18-.21a2.18,2.18,0,0,1-1.18.39h-.18a3,3,0,0,1-2.5-1.14v-.58c-.8-.22-1.3-.92-1.51-2.08h.21c-.39-1.16-.66-1.75-.84-1.75l.24-.39v-.21q-.39,0-.39-.18t.15-.18l-.36-3.28h.21l-.21-.39a4.63,4.63,0,0,1,.36-1.33,8.51,8.51,0,0,1-.15-1.36,1.6,1.6,0,0,0,.15-.57q-.15,0-.15-.18a1.73,1.73,0,0,1,.78-.19v-.36h-.21l-.42.16-.15-.39v-.19a2.18,2.18,0,0,1,.57-1.35l-.57-.37a2.79,2.79,0,0,1,.57-1.72h-.42v-.18c0-.16.08-.23.24-.23l-.24-.37a.42.42,0,0,1,.42-.36q-.21-1-.57-1a3.19,3.19,0,0,1,.57-1.36c-.19,0-.38-.18-.57-.55l.57-2.34-.18-.34v-.42c0-.9.31-1.35.94-1.35v-.16h-.19a1.66,1.66,0,0,1-.57.16l-.18-.37.18-.39a1.21,1.21,0,0,1-.18-.54c.41,0,.67-.53.75-1.59-.24,0-.36-.06-.36-.16q.53-6.15,1.3-7.66a1.89,1.89,0,0,0-.16-.6c.39-2.08.71-3.13,1-3.13l-.24-.33c.51-4,1-6,1.36-6-.23-1.33-.34-2-.34-2.11l.94-.78h.55v.39h.41c0-.5.64-.94,1.9-1.33Zm-8,28.42a.35.35,0,0,0,.39.39l.21-.39Zm0,5v.39h.18v-.39Zm0,5a1.31,1.31,0,0,1,.6-.24v-.36a2.38,2.38,0,0,1-.6-.16Zm.18-9.43v.15h.42v-.15Zm1.35-11.94v.6c.25,0,.37-.13.37-.39Zm4.23,17.88v.39H241v-.39Zm.18-34.4v.4h.21v-.4Zm1.14,29.21v.39h.4v-.39Zm.58,3.1.39.16c.24,0,.36-.11.36-.34s-.12-.42-.36-.42Zm1.14-8.86v.21h.42v-.21Zm.24,3.26v.42h.18v-.42Zm.55-6.9h.41a.37.37,0,0,0-.41-.42Zm.6-3.47v.39h.15v-.39Z"/><path class="b9326a1a-c6b8-498b-b728-fd9163cafe2d" d="M262.08,466.32a1.23,1.23,0,0,1,.7-.21c0,.14.33.43,1,.86,0,.24.29.48.86.7a1.4,1.4,0,0,1,.16.66v.88h.31v.34a.6.6,0,0,0-.62.68c.21,0,.31,0,.31.15l.31-.15h2.69a1.53,1.53,0,0,0,.49.86v.15h-.34v.21h.34l-.18.29c0,.24.17.36.52.36l-.34.47v.24h.34v.47h-.34v.52c0,.22.17.34.5.34v.31a6.34,6.34,0,0,0,.15,1.38l-.15.89a2.48,2.48,0,0,0,.15.52l-.15,1v.36h-.5v.16c.33,0,.5.23.5.7l-.16,1.69c.11,0,.16.07.16.19h-.16l.16.31c0,.12,0,.18-.16.18a1.67,1.67,0,0,0,.16.52c-.09,1.58-.32,2.37-.68,2.37l.68.84v.18c0,.14,0,.21-.16.21a1.82,1.82,0,0,1,.31,1v.52c.21,0,.64.78,1.28,2.35.87.1,1.18.61.94,1.53.1.75-.45,1.21-1.67,1.38,0,.25-.4.42-1.2.52,0-.13-1.11-.41-3.33-.83a7.45,7.45,0,0,1-2.87-3.07c-.1,0-.16-.07-.16-.19s.19-.34.55-.34v-.15h-1q-.37-2.55-1-2.55c0,.15-.23.37-.68.65a1.75,1.75,0,0,0-.52-.16l-.19.34a1,1,0,0,1,.19.52l-1,.89h-.19c0-.46-.1-.68-.31-.68s-.31.22-.31.68h-.39V488h-.47v.16h.31l-.15.86h-.16l-.83-.19v.34h-1.85a7.44,7.44,0,0,1-2.84-.8h-.47V488h-.16v.37h-.68a2.53,2.53,0,0,0-.52-1.07c-.26,0-.48-.63-.65-1.88h-.34v-.52c0-.21.17-.31.5-.31l-.5-.89v-.47l.34-.52v-.15c-.19,0-.36-.13-.52-.4l.18-.8v-.52c.3,0,.51-.52.65-1.54a6.63,6.63,0,0,0,1.36-2.76c.15,0,.48-.56,1-1.67l1.35-2c.87-1.51,1.42-2.27,1.64-2.27.51,0,1-.56,1.36-1.69l.65-.52-.18-.34v-.16q1.77-2.37,2.37-2.37C258.46,465.74,259.67,466,262.08,466.32Zm-7.61,12.77v.36h.16v-.36Zm2.45-.71v.21a3.14,3.14,0,0,0-.83,2.06c-.19,0-.35.39-.47,1.17-.56,0-.83.51-.83,1.51-.11,0-.16.25-.16.73a2.54,2.54,0,0,1,1.3-.73l-.15-.34v-.15h.49l-.18-.31v-.19c.9-.87,1.36-1.56,1.38-2.08a1.81,1.81,0,0,0,1.15-1.67c.17,0,.39-.35.65-.88l-.19-.32c.27,0,.55-.45.86-1.35v-.52a1.35,1.35,0,0,1-.31-.68c-.24,0-.69.49-1.35,1.48a5.62,5.62,0,0,0-1,1.59,1.75,1.75,0,0,1-.52.16Zm2.87-4.74v.81h.15a1.37,1.37,0,0,1,.34-.65l-.34-.16Zm3.31,16.52q.07.36.36.36h.16c0-.24-.11-.36-.34-.36Zm1.53-13.44v.33h.16v-.33Zm.66,3.93v.16h.33v-.16Zm.49,4.06v.16h.31v-.16Z"/><path class="b9326a1a-c6b8-498b-b728-fd9163cafe2d" d="M301.92,467.91c.17.36.3.55.39.55l-.15.39v.39l.15.39q-.39,0-.39.36t.24.21a16.83,16.83,0,0,0-2.32,6.36.64.64,0,0,1-.58.36v.19h.58l-.19.41v1.12a.17.17,0,0,0,.19.19c0,.15-.07.23-.19.23l.19.94c-.18,1.79-.37,2.68-.58,2.68l.16.39v.21h-.37q0,.18.21.18-.57,3.63-1.56,4.77h-.18l.18.42c-.21,0-.47.56-.78,1.69a6.1,6.1,0,0,1-1.67,1.17v-.18l.18-.36h-.18a2.69,2.69,0,0,1-.6.15l.18.39v.21h-.36V491h-.42v.36l-.36-.21h-1l-.37.21v-.21l-.41.21a1.08,1.08,0,0,0-.73-.21v.21c-1.26-.88-1.9-1.47-1.93-1.74l.21-.37h-.21q0,.18-.21.18l-.52-1.17q.18,0,.18-.15c-.42,0-.74-.71-1-2.12-.14,0-.21-.07-.21-.23l.21-.39c-.14,0-.21,0-.21-.13h.21l-.42-.81q.21,0,.21-.15h-.39l-.24-1.91h.24l-.24-.41.24-.42h-.24c0,.14,0,.21-.1.21v-1.93l-.24-1.15.24-.36a1.21,1.21,0,0,1-.24-.76v-.18c0-.16.08-.23.24-.23l-.24-.39V476a.21.21,0,0,1,.24-.24,2.74,2.74,0,0,1-.42-1.48.16.16,0,0,0,.18-.18h-.39v-1.2l.21-.34a1.2,1.2,0,0,1-.75-.42c-.79,1.31-1.36,2-1.72,2l-1,.18-.39-.18a2.06,2.06,0,0,1-1.15.39l-1-.63q0,.24-.18.24-.32-.78-.57-.78c0-.46.5-1,1.51-1.54a10.39,10.39,0,0,1,2.74-2.29c0-.23.57-.62,1.72-1.18,0,.26.13.39.33.39,0-.5,1-.75,2.9-.75a2.5,2.5,0,0,1,2.32,1.72.19.19,0,0,0-.21.21h.21c0-.14.06-.21.2-.21l.34.57-.15.37q.57,0,.57,1.17c-.16,0-.23.06-.23.18h.41v.18q0,.24-.18.24a13.51,13.51,0,0,1,.55,2.86l-.16.94a2.09,2.09,0,0,1,.16.78l-.37-.2v.2q.6.18.6.42l-.6.94h.21c0-.14,0-.21.16-.21,0,.5.14.76.41.76l-.18.75a5.7,5.7,0,0,0,.6,2.76c-.4,0-.6.12-.6.34l.76.78.78-1.12c0-.15-.07-.23-.21-.23.16-.64.35-1,.57-1a2,2,0,0,1-.18-.59,30.13,30.13,0,0,0,.94-4.83,28,28,0,0,0,1.56-4.16c.16,0,.48-.53,1-1.57h.18l-.18-.36c1.86-1.29,3.2-1.93,4-1.93Q302.16,467.91,301.92,467.91ZM280,472.86v.21h.39v-.21Zm7.3,6.59v.13l.42.21v-.21Zm.21-6.93v.18h.57v-.18Zm.57-1v.18h.42v-.18Zm.6,4.76a2.22,2.22,0,0,1,.16.6h.18v-.36Zm.16,11.13v.23l.39.19v-.19Zm.39-.94v-.36h-.21v.36l.42.21.36-.57V486c-.24,0-.36.19-.36.55Zm.21-6.51h.36l.21-.42a1.18,1.18,0,0,1-.57.21Zm1,2.45c0,.41-.32.62-1,.62v.21h.78l.39-.6v-.23Zm-.39,1.2-.21.41v.19H290a1.52,1.52,0,0,1,.21-.6Zm0-3.44v.18l.39.16v-.16Zm.39,4-.39.54h.21q0-.39.54-.39v-.15Zm-.18-13.87v.42h.18v-.42Zm0,10.76v.37c.26,0,.39-.12.39-.37Zm.39,5-.21.36h.21l.15-.36Zm0-.6V486h.15v-.41Zm.55-5.16-.21.34h.21l.2-.34Zm-.21,4v.39h.21v-.39Zm.94,1.33-.34.6h.15l.42-.6Zm-.19.78a2.69,2.69,0,0,1-.15.6h.15l.19-.39v-.21Zm-.15,1.17v.4h.15v-.4Zm1.35-1.95-.23.42h.23l.18-.42Zm.18-1.67v.34h.19v-.34Zm.94,1.28V485c-.24,0-.36.13-.36.34Zm1.75,0v.39H296v-.39Zm1.12-1.51v.23l.41.19v-.19Zm1.2,1.51-.19.39V486h.19c0-.27.11-.41.34-.41v-.21Zm.18-1.51v.42h.16v-.42Zm.75-8.11v.42h.6q0-.42-.39-.42Z"/><path class="b9326a1a-c6b8-498b-b728-fd9163cafe2d" d="M307.44,470.2l.42-.21c1.91.47,2.87,1.11,2.87,1.93a2,2,0,0,0-.42,1.15h.24c-.16.78-.29,1.17-.4,1.17l.16.39a1.85,1.85,0,0,1-.16.76,1.91,1.91,0,0,1,.16.75c0,.12-.05.18-.16.18l.16.4c-.1.41-.22.62-.34.62l.18.34v.6h-.36c0,.24.17.36.52.36v.19l-.34.62c.12,0,.18,0,.18.13H310a1.81,1.81,0,0,1,.18.63q0,.93-.36.93l.18.37v1.17q0,.39-.6.39c.32,1.77.58,2.66.78,2.66h.16a2.18,2.18,0,0,1,1-.52c1,0,1.56.21,1.56.52a10.1,10.1,0,0,0-.41,2.5l.21.42c0,1.25-1,2.27-2.87,3.07a17.65,17.65,0,0,0-4.07-.75v-.24l-.33.24c-.75,0-1.59-.72-2.53-2.14h-.21l.21-.36c-.38,0-.64-.46-.78-1.36v-.18a1.62,1.62,0,0,0,.21-.6c-.28,0-.42-.12-.42-.37s.07-.23.21-.23l-.21-.39a1.16,1.16,0,0,0,.21-.55.19.19,0,0,1-.21-.21l.42-.18-.21-.34v-.23l.21-1h-.21a5.75,5.75,0,0,0,.39-1.72h.18l.39.19v-.19a.16.16,0,0,1-.18-.18c.48,0,.73-.14.73-.41v-.16h-.16l-.78.57v-.57a1.58,1.58,0,0,1,.21-.81,1.39,1.39,0,0,1-.21-.75v-.37c.4,0,.66-1.15.78-3.46l-.18-.76c0-.78.18-1.17.55-1.17v-.55l-.21-.42q.42,0,.42-.36c-.39-.12-.58-.51-.58-1.17,0-.18.38-.68,1.15-1.52Zm-3.64,8.63v.23h.39v-.23ZM315.31,456q0-.18.24-.18V456a5.67,5.67,0,0,0-.58,2.35,5.93,5.93,0,0,0-3.1,2.66c0,.19-.24.44-.73.75l.16.39c0,.35-1,.73-2.89,1.15a16.49,16.49,0,0,1-3.62-1.15v-.57l.36.18h.24v-.18H305a10.7,10.7,0,0,0,1.9-2.29c.47,0,1.62-.91,3.44-2.71.42-.14.92-.28,1.51-.42s1.5-.38,2.35-.57A2.79,2.79,0,0,0,315.31,456Zm-9.17,29v.34h.18V485Zm.34-6.72v.36h.18v-.36Zm1.38,6.51v.42H308v-.42Z"/><path class="b9326a1a-c6b8-498b-b728-fd9163cafe2d" d="M330.43,458.58c.4-.14.59-.27.59-.39,2.05.68,3.08,1.25,3.08,1.72l-.16.42c.06.5.17.75.34.75a9.42,9.42,0,0,0-.75,3.05l.2.42a1.16,1.16,0,0,0-.2.54h.2c-.12.51-.25.76-.39.76l.19.42v.54l-.19,1.93q.39,0,.39.39a1.25,1.25,0,0,0-.2.58c.27,0,.41.14.41.39a1.48,1.48,0,0,1-.6.23c0,.09.07.13.19.13-.11.9-.23,1.36-.37,1.36a4.66,4.66,0,0,1,.37,1.51h-.37a31.21,31.21,0,0,1-.39,4.06l.18.42-.39.73.39.21q-.22,1.17-.57,1.17l.18.34-.18,1.38h.18a9.09,9.09,0,0,0-.54,1.51l.13,1.17a26.08,26.08,0,0,1-.34,3.26,1.33,1.33,0,0,1,.21.76v1a11.11,11.11,0,0,1-.4,1.92,3.67,3.67,0,0,1-1.72-.78c0,.12-.07.18-.23.18v-.18l-.39.18a3.05,3.05,0,0,0-1.12-.57l-.94.18v-.18l.16-.39a24.14,24.14,0,0,1-2.48-1c0,.66-1.41,1.31-4.25,1.95h-1.32a5.12,5.12,0,0,1-3.1-1.12c-1,0-1.87-1-2.69-3.07a1.2,1.2,0,0,1,.6-.21l-.21-1.93c0-.48.91-2.27,2.71-5.36a7.34,7.34,0,0,0,1.51-2.87c.65-1.2,1.23-1.85,1.75-1.95l.18-.4L322,474h.55c.26,0,.39-.21.39-.62h.41a3,3,0,0,0,1.72.81h.34l1.38-5.61H327l-.21-.34c.3-1.68.68-2.52,1.15-2.52l-.18-.34v-.63q1.28-4.92,1.9-6.51A1.33,1.33,0,0,0,330.43,458.58Zm-13.21,21.13v-.39q-.42,0-.42.39Zm1.51,7.27.41.24q1.1,0,5.53-3.68l.23-1v-3.05a1.75,1.75,0,0,1-1-.42c-.87,0-1.51.64-1.93,1.93-.9.3-1.74,1.39-2.5,3.28Zm10.42-28.61h.13v.42h-.13Zm1.87,2.89v.19h.37v-.19Zm1.13-1.53v.18h.41v-.18Z"/><path class="b9326a1a-c6b8-498b-b728-fd9163cafe2d" d="M348,466.32a1.23,1.23,0,0,1,.7-.21c0,.14.33.43,1,.86,0,.24.29.48.86.7a1.4,1.4,0,0,1,.16.66v.88H351v.34a.6.6,0,0,0-.62.68c.21,0,.31,0,.31.15l.31-.15h2.69a1.53,1.53,0,0,0,.49.86v.15h-.34v.21h.34l-.18.29c0,.24.17.36.52.36l-.34.47v.24h.34v.47h-.34v.52c0,.22.17.34.5.34v.31a6.34,6.34,0,0,0,.15,1.38l-.15.89a2.48,2.48,0,0,0,.15.52l-.15,1v.36h-.5v.16c.33,0,.5.23.5.7l-.16,1.69c.11,0,.16.07.16.19h-.16l.16.31c0,.12-.05.18-.16.18a1.67,1.67,0,0,0,.16.52c-.09,1.58-.32,2.37-.68,2.37l.68.84v.18c0,.14-.05.21-.16.21a1.82,1.82,0,0,1,.31,1v.52c.21,0,.64.78,1.28,2.35.87.1,1.18.61.94,1.53.1.75-.45,1.21-1.67,1.38,0,.25-.4.42-1.2.52,0-.13-1.11-.41-3.33-.83a7.45,7.45,0,0,1-2.87-3.07c-.1,0-.16-.07-.16-.19s.19-.34.55-.34v-.15h-1q-.37-2.55-1-2.55c0,.15-.23.37-.68.65a1.75,1.75,0,0,0-.52-.16l-.19.34a1,1,0,0,1,.19.52l-1,.89H344c0-.46-.1-.68-.31-.68s-.31.22-.31.68H343V488h-.47v.16h.31l-.15.86h-.16l-.83-.19v.34h-1.85a7.44,7.44,0,0,1-2.84-.8h-.47V488h-.16v.37h-.68a2.53,2.53,0,0,0-.52-1.07c-.26,0-.48-.63-.65-1.88h-.34v-.52c0-.21.17-.31.5-.31l-.5-.89v-.47l.34-.52v-.15c-.19,0-.36-.13-.52-.4l.18-.8v-.52c.3,0,.51-.52.65-1.54a6.63,6.63,0,0,0,1.36-2.76c.15,0,.48-.56,1-1.67l1.35-2c.87-1.51,1.42-2.27,1.64-2.27.51,0,1-.56,1.36-1.69l.65-.52L342,468v-.16q1.77-2.37,2.37-2.37C344.34,465.74,345.55,466,348,466.32Zm-7.61,12.77v.36h.16v-.36Zm2.45-.71v.21a3.14,3.14,0,0,0-.83,2.06c-.19,0-.35.39-.47,1.17-.56,0-.83.51-.83,1.51-.11,0-.16.25-.16.73a2.54,2.54,0,0,1,1.3-.73l-.15-.34v-.15h.49l-.18-.31v-.19c.9-.87,1.36-1.56,1.38-2.08a1.81,1.81,0,0,0,1.15-1.67c.17,0,.39-.35.65-.88l-.19-.32c.27,0,.55-.45.86-1.35v-.52a1.35,1.35,0,0,1-.31-.68c-.24,0-.69.49-1.35,1.48a5.62,5.62,0,0,0-1,1.59,1.75,1.75,0,0,1-.52.16Zm2.87-4.74v.81h.15a1.37,1.37,0,0,1,.34-.65l-.34-.16ZM349,490.16q.07.36.36.36h.16c0-.24-.11-.36-.34-.36Zm1.53-13.44v.33h.16v-.33Zm.66,3.93v.16h.33v-.16Zm.49,4.06v.16H352v-.16Z"/><path class="b9326a1a-c6b8-498b-b728-fd9163cafe2d" d="M364.09,484.74a2.48,2.48,0,0,1,1.28,1.9v1.7c0,.14.07.2.23.2q-1.56,3.18-3.26,3.18l-.44-.21h-.21l-.44.21a14.82,14.82,0,0,0-3-1.25c-.32,0-.68-1.06-1.1-3.18a6.94,6.94,0,0,1,2.19-3c0-.69.5-1,1.49-1C360.81,484.06,361.9,484.55,364.09,484.74Zm10.45-32.36v.44l.44-.23h.18L375,453a.79.79,0,0,1,.63.42,8.93,8.93,0,0,1-.45,1.72,1.41,1.41,0,0,1,.26.83,1.6,1.6,0,0,0-.26.63h.26a21.8,21.8,0,0,1-2.45,3.59,15.89,15.89,0,0,1-1.71,5.47h-.42l.23.45a3.19,3.19,0,0,0-.88,1.9h.18a33.16,33.16,0,0,0-1.28,4q.24,0,.24.21c-.38,0-.83,1.35-1.33,4-.23,0-.65.84-1.28,2.53a6.21,6.21,0,0,1-1.56,1.06c-1.46-.43-2.19-.86-2.19-1.27a4.89,4.89,0,0,1-2.63-2.32q0-4.87,4.19-15.22,4.7-8.88,6.54-8.88l-.23-.47a6.11,6.11,0,0,0,1.51-1C373.81,451.43,374.54,452,374.54,452.38Z"/><path class="ee92ec5a-d5f8-417e-b1f7-10796aea01e4" d="M183.85,229.87a5.1,5.1,0,0,1-.76-10.17l14.57-1.11c.08-45.3,3.16-91.33,21.66-138.42a5.1,5.1,0,0,1,9.38-.27l19.59,36.61,18.12.6,16.78-25.9a5.09,5.09,0,0,1,7-1.49,5,5,0,0,1,1.8,2h0l16.08,32.94c3.41,2.21,11.3,8.63,16.43,23,2.57,7.19,3.54,14.47,4.39,20.9,1,7.54,1.81,13.64,4.47,14.84,2.28,1,9,.85,16.47.64,3.44-.1,7-.2,10.51-.18V101.23L218,11.11,75.5,101.23V132.7a5.11,5.11,0,1,1-10.21,0V98.44h0a5.08,5.08,0,0,1,2.38-4.31L215.2.8a5.1,5.1,0,0,1,5.46,0L367.87,93.92a5.12,5.12,0,0,1,2.73,4.52v86c7.34.94,13.46,3.22,16.23,8.38a19.73,19.73,0,0,1,1.25,2.92c2.28,6.73,1.95,17.27-2.14,27.64a52.31,52.31,0,0,1-24.09,27.18,56.11,56.11,0,0,1-8.59,3.7,114.93,114.93,0,0,1-25.15,5.11,139.9,139.9,0,0,1-19.87.52c-6,.74-9.49,3.54-13.74,7-1.85,1.5-3.84,3.12-6.34,4.86-5.2,3.63-13.59,5.22-20.5,4.25a23,23,0,0,1-6.74-2,14.24,14.24,0,0,1-5.6-4.62,12.16,12.16,0,0,1-2-8.91c1-7.54,5.75-12.61,10-15.73a26.57,26.57,0,0,1-6.4-10.22,25.6,25.6,0,0,1-1.23-5.77,5.09,5.09,0,0,1,10.13-1,15.92,15.92,0,0,0,.74,3.49c1.32,3.91,4.23,7.14,8.24,9.75a5.69,5.69,0,0,1,.52.33A48.33,48.33,0,0,0,288,246.71a95.18,95.18,0,0,0,20,3,5.83,5.83,0,0,1,.59,0,131.11,131.11,0,0,0,18.6-.48A105.15,105.15,0,0,0,350,244.66a46.49,46.49,0,0,0,7-3,42.18,42.18,0,0,0,19.4-21.92c3.19-8.11,3.58-16,2-20.7a8,8,0,0,0-.57-1.36c-2.22-4.15-15.91-3.76-27.7-3.42-8.71.25-16.57.48-20.94-1.51-7.81-3.55-9-12.16-10.37-22.81-.77-5.86-1.65-12.48-3.91-18.79-4.64-13-11.17-17.29-12.69-18.13a5.09,5.09,0,0,1-2.64-2.48l-12.78-26.2-13.45,20.75h0a5.09,5.09,0,0,1-4.42,2.32L245,126.57h0a5,5,0,0,1-4.32-2.69L224.93,94.4c-14.35,41.63-17,82.78-17.1,123.42l20.26-1.55a5.1,5.1,0,1,1,.76,10.17l-21,1.6c0,5.63.1,11.26.18,16.88l20.67,4.34a5.09,5.09,0,0,1-2.07,10l-18.46-3.88c.14,9.54.26,18.85.26,26.49a5.11,5.11,0,1,1-10.21,0c0-10.8-.12-19.76-.24-28.63l-17.68-3.71a5.09,5.09,0,1,1,2.07-10l15.46,3.24c-.06-4.64-.12-9.3-.15-14l-13.84,1.06ZM65.32,166.47a4.07,4.07,0,0,0,0,.5v51.79l-21.36-1.1a5.09,5.09,0,0,0-.52,10.17L65.29,229v15.51l-22.18,5.22a5.1,5.1,0,0,0,2.32,9.93l19.86-4.68v66.78a5.11,5.11,0,0,0,5.11,5.11H365.49a5.11,5.11,0,0,0,5.11-5.11V267.59a5.11,5.11,0,1,0-10.21,0v49H75.5V252.53l13-3.05a5.1,5.1,0,0,0-2.31-9.93L75.5,242.06V229.47l11.92.62a5.09,5.09,0,1,0,.52-10.17l-12.44-.64V175.15L101.27,190a5,5,0,0,0,4.74.17h0s14.09-6.85,28.48-7.29c14.19-.44,28.4,7.17,28.44,7.19a5.09,5.09,0,0,0,6-.87l22.54-20.61a5.08,5.08,0,0,0-6.85-7.5l-20.15,18.44c-5.68-2.54-17.88-7.2-30.22-6.82-12.7.39-25,5-30.13,7.18L72.93,162a5.07,5.07,0,0,0-7.61,4.52Zm224.5,91.15c-1.53-.33-3.05-.7-4.52-1.1s-2.68-.78-4-1.21c-4.09,1.24-10.09,3.5-10.09,3.5l6-5.05a50.92,50.92,0,0,1-5.25-2.52c-2.8,1.46-7.75,4.81-8.58,10.7a2.41,2.41,0,0,0,.27,1.7,4.35,4.35,0,0,0,1.69,1.27,12.62,12.62,0,0,0,3.72,1c4.65.65,10.1-.27,13.28-2.49,2.09-1.46,4-3,5.74-4.43l1.74-1.41ZM113.11,216c3.16,0,5.72-3.47,5.72-7.74s-2.56-7.74-5.72-7.74-5.74,3.46-5.74,7.74,2.57,7.74,5.74,7.74Zm36.19-7.74c0,4.27,2.56,7.74,5.73,7.74s5.73-3.47,5.73-7.74-2.57-7.74-5.73-7.74-5.73,3.46-5.73,7.74Zm2.78,17A4.81,4.81,0,0,0,151,228.7a5,5,0,0,1-2.13,4,6.75,6.75,0,0,1-2.6,1.32,4.69,4.69,0,0,1-2.52,0c-1.62-.51-3.24-2.1-4.51-5.28a4.82,4.82,0,0,0-3-3.27,5,5,0,0,0-1.63-.31h-.15a5,5,0,0,0-1.63.31,4.8,4.8,0,0,0-3,3.27c-1.27,3.18-2.89,4.77-4.51,5.28a4.69,4.69,0,0,1-2.52,0,6.68,6.68,0,0,1-2.6-1.32,5,5,0,0,1-2.13-4,4.86,4.86,0,1,0-9.68-.83,14.65,14.65,0,0,0,5.7,12.37,16.39,16.39,0,0,0,6.43,3.22,14.29,14.29,0,0,0,7.64-.19,14.78,14.78,0,0,0,6.35-4,14.9,14.9,0,0,0,6.35,4,14.33,14.33,0,0,0,7.65.19,16.39,16.39,0,0,0,6.43-3.22,15.22,15.22,0,0,0,5.67-9.93,13.25,13.25,0,0,0,0-2.44,4.85,4.85,0,0,0-8.63-2.62ZM354.63,201c-8.59,0-15.55,5-15.55,11.08s7,11.08,15.55,11.08,15.55-5,15.55-11.08-7-11.08-15.55-11.08Zm-52.83-18c3.17,0,5.73-3.46,5.73-7.74s-2.56-7.74-5.73-7.74-5.73,3.47-5.73,7.74,2.57,7.74,5.73,7.74Zm-38.27,0c3.16,0,5.72-3.46,5.72-7.74s-2.56-7.74-5.72-7.74-5.73,3.47-5.73,7.74,2.56,7.74,5.73,7.74Zm-91.17-78.34c-2.65-8-16.48-8.23-15.91,3.68-6.69-9.11-18.14-1.26-15.49,6.73s12.87,13.1,23.33,18.34c5.25-10.46,10.68-20.9,8.07-28.75ZM161.19,89.1a17.49,17.49,0,0,0-9.91,5.16l-1.7-.11a18.47,18.47,0,0,0-9,2.14,19.37,19.37,0,0,0-6.67,5.81,17.8,17.8,0,0,0-2.57,16.22c2.11,6.35,6.68,11.2,12.52,15.27l0,0a128,128,0,0,0,15.89,8.95A10.17,10.17,0,0,0,173.39,138l.43-.86c5.85-11.66,11.66-23.25,8.53-34.52l-.3-1.1a18.45,18.45,0,0,0-12.39-11.88A18.94,18.94,0,0,0,161.19,89.1Z"/></g></g></svg>