<svg xmlns="http://www.w3.org/2000/svg" width="97" height="101" viewBox="0 0 97 101">
  <defs>
    <style>
      .cls-1 {
        fill: #f7d62b;
        fill-rule: evenodd;
      }
    </style>
  </defs>
  <path class="cls-1" d="M63.43,34.364a7.974,7.974,0,0,1-1.212-.1c-5.751-.954-9.179-8.346-7.976-17.214a18.819,18.819,0,0,1,5.942-12.06,7.968,7.968,0,0,1,6.342-1.826h0c5.756,0.956,9.184,8.346,7.981,17.214a18.822,18.822,0,0,1-5.943,12.065A8.261,8.261,0,0,1,63.43,34.364Zm-29.224,0a8.271,8.271,0,0,1-5.127-1.925,18.815,18.815,0,0,1-5.942-12.061c-1.209-8.846,2.219-16.269,7.975-17.2A7.88,7.88,0,0,1,37.453,5a18.825,18.825,0,0,1,5.941,12.061c1.208,8.868-2.224,16.249-7.98,17.214A7.363,7.363,0,0,1,34.206,34.364Zm60.052,0a8.948,8.948,0,0,0-5.331-4.888C83.659,27.854,77.81,31.97,75.585,38.9a15.278,15.278,0,0,0,.389,11.059,8.948,8.948,0,0,0,5.331,4.888,8.052,8.052,0,0,0,2.358.381,12.744,12.744,0,0,0,10.983-9.786A15.278,15.278,0,0,0,94.258,34.364Zm-90.878,0a8.947,8.947,0,0,1,5.329-4.888c5.27-1.623,11.118,2.494,13.343,9.425a15.283,15.283,0,0,1-.389,11.059,8.951,8.951,0,0,1-5.33,4.888,8.06,8.06,0,0,1-2.36.381A12.74,12.74,0,0,1,2.992,45.444,15.273,15.273,0,0,1,3.38,34.364ZM78.318,66.111c-0.545-.349-1-0.746-1.613-1.07a23.926,23.926,0,0,1-7.711-6.26,17.163,17.163,0,0,1-2.334-3.9c-0.061-.151-0.134-0.282-0.2-0.428h0a31.642,31.642,0,0,0-5.666-9.05h0a20.5,20.5,0,0,0-2.532-2.321c-0.155-.126-0.317-0.236-0.477-0.35a17.019,17.019,0,0,0-2.23-1.393c-0.238-.125-0.477-0.251-0.716-0.36a15.433,15.433,0,0,0-2.209-.8c-0.259-.073-0.518-0.167-0.778-0.224a13.107,13.107,0,0,0-6.056,0c-0.259.057-.519,0.151-0.773,0.224a14.873,14.873,0,0,0-2.209.8c-0.244.11-.482,0.236-0.721,0.36a17.136,17.136,0,0,0-2.23,1.393c-0.155.114-.317,0.224-0.477,0.35A21.327,21.327,0,0,0,36.856,45.4h0a31.776,31.776,0,0,0-5.668,9.03h0c-0.062.145-.134,0.275-0.2,0.427a16.781,16.781,0,0,1-2.334,3.9,23.861,23.861,0,0,1-7.711,6.259c-0.611.324-1.063,0.72-1.613,1.07a12.777,12.777,0,0,0-6.46,14.282c0.057,0.24.129,0.469,0.2,0.7a12.985,12.985,0,0,0,.815,2.142c0.077,0.157.144,0.319,0.228,0.475,3.6,6.7,12.932,10.731,23.412,12.379L38,96.151c1.649,0.245,3.314.438,4.995,0.57l0.74,0.046c1.7,0.115,3.4.192,5.083,0.192s3.386-.078,5.081-0.192l0.742-.046c1.68-.132,3.349-0.325,4.993-0.57l0.488-.078c10.5-1.648,19.823-5.68,23.407-12.379,0.089-.156.155-0.318,0.233-0.475a13.569,13.569,0,0,0,.815-2.142c0.066-.236.139-0.465,0.191-0.7A12.776,12.776,0,0,0,78.318,66.111ZM64.463,75.99H54.091V86.422H43.722V75.99H33.351V65.558H43.722V55.125H54.091V65.558H64.463V75.99Z"/>
</svg>
