<svg xmlns="http://www.w3.org/2000/svg" width="97" height="101" viewBox="0 0 97 101">
  <defs>
    <style>
      .cls-1 {
        fill: #b7b7b7;
        fill-rule: evenodd;
      }
    </style>
  </defs>
  <path id="arrow_copy_2" data-name="arrow copy 2" class="cls-1" d="M68.178-561.771L41.133-531.952a5.963,5.963,0,0,1-9.014,0,7.547,7.547,0,0,1,0-9.938l22.539-24.853L32.119-591.6a7.548,7.548,0,0,1,0-9.939,5.964,5.964,0,0,1,9.014,0l27.046,29.823A7.547,7.547,0,0,1,68.178-561.771ZM32.295-261.519l27.044,29.748a5.971,5.971,0,0,0,9.014,0,7.513,7.513,0,0,0,0-9.913L45.814-266.477l22.538-24.794a7.517,7.517,0,0,0,0-9.916,5.974,5.974,0,0,0-9.014,0l-27.044,29.75A7.513,7.513,0,0,0,32.295-261.519ZM68.178,55.934L41.133,85.757a5.962,5.962,0,0,1-9.014,0,7.548,7.548,0,0,1,0-9.939L54.658,50.966,32.119,26.113a7.55,7.55,0,0,1,0-9.941,5.964,5.964,0,0,1,9.014,0L68.178,45.995A7.545,7.545,0,0,1,68.178,55.934Zm0,317.356L41.133,403.111a5.963,5.963,0,0,1-9.014,0,7.548,7.548,0,0,1,0-9.939L54.658,368.32,32.119,343.467a7.548,7.548,0,0,1,0-9.939,5.964,5.964,0,0,1,9.014,0l27.046,29.821A7.547,7.547,0,0,1,68.178,373.29Zm0,306.019L41.133,709.131a5.964,5.964,0,0,1-9.014,0,7.548,7.548,0,0,1,0-9.939l22.539-24.851L32.119,649.488a7.55,7.55,0,0,1,0-9.941,5.964,5.964,0,0,1,9.014,0L68.178,669.37A7.544,7.544,0,0,1,68.178,679.309Zm0,317.356L41.133,1026.49a5.97,5.97,0,0,1-9.014,0,7.549,7.549,0,0,1,0-9.94l22.539-24.857L32.119,966.84a7.545,7.545,0,0,1,0-9.937,5.964,5.964,0,0,1,9.014,0l27.046,29.821A7.547,7.547,0,0,1,68.178,996.665Z"/>
</svg>
