<svg xmlns="http://www.w3.org/2000/svg" width="97" height="101" viewBox="0 0 97 101">
  <defs>
    <style>
      .cls-1 {
        fill:#009fee;
        fill-rule: evenodd;
      }
    </style>
  </defs>
  <path id="arrow_copy_2" data-name="arrow copy 2" class="cls-1" d="M68.178-245.771L41.133-215.952a5.963,5.963,0,0,1-9.014,0,7.547,7.547,0,0,1,0-9.938l22.539-24.853L32.119-275.6a7.548,7.548,0,0,1,0-9.939,5.964,5.964,0,0,1,9.014,0l27.046,29.823A7.547,7.547,0,0,1,68.178-245.771ZM32.295,54.481L59.339,84.229a5.972,5.972,0,0,0,9.014,0,7.513,7.513,0,0,0,0-9.913L45.814,49.523,68.352,24.729a7.517,7.517,0,0,0,0-9.916,5.974,5.974,0,0,0-9.014,0L32.295,44.563A7.513,7.513,0,0,0,32.295,54.481ZM68.178,371.934L41.133,401.757a5.963,5.963,0,0,1-9.014,0,7.548,7.548,0,0,1,0-9.939l22.539-24.852L32.119,342.113a7.55,7.55,0,0,1,0-9.941,5.965,5.965,0,0,1,9.014,0L68.178,362A7.544,7.544,0,0,1,68.178,371.934Zm0,317.356L41.133,719.111a5.963,5.963,0,0,1-9.014,0,7.548,7.548,0,0,1,0-9.939L54.658,684.32,32.119,659.467a7.548,7.548,0,0,1,0-9.939,5.964,5.964,0,0,1,9.014,0l27.046,29.821A7.547,7.547,0,0,1,68.178,689.29Zm0,306.019L41.133,1025.13a5.955,5.955,0,0,1-9.014,0,7.549,7.549,0,0,1,0-9.94l22.539-24.849L32.119,965.488a7.55,7.55,0,0,1,0-9.941,5.964,5.964,0,0,1,9.014,0L68.178,985.37A7.544,7.544,0,0,1,68.178,995.309Zm0,317.351-27.046,29.83a5.97,5.97,0,0,1-9.014,0,7.549,7.549,0,0,1,0-9.94l22.539-24.86-22.539-24.85a7.549,7.549,0,0,1,0-9.94,5.97,5.97,0,0,1,9.014,0l27.046,29.82A7.546,7.546,0,0,1,68.178,1312.66Z"/>
</svg>
