<svg xmlns="http://www.w3.org/2000/svg" width="97" height="101" viewBox="0 0 97 101">
  <defs>
    <style>
      .cls-1 {
        fill: #06c9ef;
        fill-rule: evenodd;
      }
    </style>
  </defs>
  <path class="cls-1" d="M48,6.813A43.188,43.188,0,1,1,4.813,50,43.187,43.187,0,0,1,48,6.813ZM77.057,46.054H29.979l14.409-17.38a4,4,0,0,0-.517-5.622,3.963,3.963,0,0,0-5.6.519L18.427,47.489a4.733,4.733,0,0,0-.357.6,0.505,0.505,0,0,1-.278.517,3.84,3.84,0,0,0,0,2.87,0.506,0.506,0,0,0,.278.518,4.732,4.732,0,0,0,.357.6L38.274,76.51a3.977,3.977,0,0,0,7.017-2.185,4.034,4.034,0,0,0-.162-1.549,3.993,3.993,0,0,0-.742-1.369L29.979,54.028H77.057A3.987,3.987,0,0,0,77.057,46.054Z"/>
</svg>
