<svg xmlns="http://www.w3.org/2000/svg" width="196.316" height="220.488" viewBox="0 0 196.316 220.488">
  <g id="aviso" transform="translate(-2345.084 -1962.857)">
    <path id="Shape_929_copy_2" data-name="Shape 929 copy 2" d="M2539.193,2101.936l-20.445-20.582v-27.26c-.047-39.029-29.4-71.7-67.955-75.648v-15.588h-15.1v15.588c-38.559,3.949-67.908,36.619-67.957,75.648v27.266l-20.441,20.584a7.622,7.622,0,0,0-2.209,5.379v22.811a7.574,7.574,0,0,0,7.551,7.594h52.855v7.6a37.754,37.754,0,1,0,75.506,0v-7.6h52.854a7.577,7.577,0,0,0,7.551-7.6v-22.811A7.625,7.625,0,0,0,2539.193,2101.936Zm-73.3,43.395a22.654,22.654,0,1,1-45.307,0v-7.6h45.307Z" transform="translate(0 0)"/>
  </g>
</svg>
