<svg xmlns="http://www.w3.org/2000/svg" width="95" height="95" viewBox="0 0 95 95">
  <g id="Grupo_29" data-name="Grupo 29" transform="translate(-254 -619)">
    <g id="Ellipse_1082_copy_3" data-name="Ellipse 1082 copy 3" transform="translate(258 623)" fill="#d7d7d7" stroke="#f2890b" stroke-linejoin="round" stroke-width="4">
      <circle cx="43.5" cy="43.5" r="43.5" stroke="none"/>
      <circle cx="43.5" cy="43.5" r="45.5" fill="none"/>
    </g>
    <g id="Vector_Smart_Object" data-name="Vector Smart Object" transform="translate(258 623)">
      <g id="BULINE">
        <circle id="Elipse_4" data-name="Elipse 4" cx="43.5" cy="43.5" r="43.5" fill="#91cdec"/>
      </g>
      <g id="Icons">
        <g id="Grupo_7" data-name="Grupo 7">
          <path id="Trazado_11" data-name="Trazado 11" d="M20.86,43.471a8.467,8.467,0,0,0-3.419-.719c-.031,0-.063,0-.093,0A8.5,8.5,0,0,0,9.123,52.985,7.771,7.771,0,0,0,2.658,58.5Q2,56.72,1.5,54.866a7.472,7.472,0,0,1,5.39-3.315,8.6,8.6,0,0,1-.178-1.737,8.5,8.5,0,0,1,7.373-8.423,8.741,8.741,0,0,1,1.123-.073,8.465,8.465,0,0,1,5.652,2.153Z" fill="#70ab80"/>
          <path id="Trazado_12" data-name="Trazado 12" d="M23.7,49.814a8.488,8.488,0,0,1-8.5,8.5c-.042,0-.085,0-.127,0a9.041,9.041,0,0,1,.127,1.514,9.117,9.117,0,0,1-.124,1.5,8.718,8.718,0,0,1-1,2.843A7.486,7.486,0,0,1,7.64,68.128a43.258,43.258,0,0,1-3.83-6.8Q3.185,59.941,2.658,58.5a7.771,7.771,0,0,1,6.466-5.519,8.492,8.492,0,0,1,8.224-10.231c.031,0,.063,0,.093,0a8.467,8.467,0,0,1,3.419.719A8.474,8.474,0,0,1,23.7,49.814Z" fill="#679f76"/>
          <path id="Trazado_13" data-name="Trazado 13" d="M84.388,58.377a7.649,7.649,0,0,0-6.1-4.579,8.6,8.6,0,0,0,.178-1.737,8.5,8.5,0,0,0-8.5-8.5c-.279,0-.556.014-.828.041a8.411,8.411,0,0,0-3.951,1.431,8.485,8.485,0,0,1,7.025-3.718c.063,0,.127,0,.19,0a8.5,8.5,0,0,1,8.127,10.229,7.41,7.41,0,0,1,5.079,2.885v0Q85.093,56.446,84.388,58.377Z" fill="#70ab80"/>
          <path id="Trazado_14" data-name="Trazado 14" d="M84.388,58.377q-.545,1.5-1.2,2.948a43.421,43.421,0,0,1-3.82,6.79,7.841,7.841,0,0,1-6.963-6.443c-.025-.114-.046-.229-.065-.347a8.936,8.936,0,0,1-.126-1.5,9.224,9.224,0,0,1,.127-1.514c-.042,0-.085,0-.127,0a8.5,8.5,0,0,1-7.025-13.274,8.411,8.411,0,0,1,3.951-1.431c.272-.027.549-.041.828-.041a8.5,8.5,0,0,1,8.5,8.5,8.6,8.6,0,0,1-.178,1.737A7.649,7.649,0,0,1,84.388,58.377Z" fill="#679f76"/>
          <path id="Trazado_15" data-name="Trazado 15" d="M83.19,61.325a43.525,43.525,0,0,1-79.381,0Z" fill="#78b98a"/>
          <g id="Grupo_6" data-name="Grupo 6">
            <path id="Trazado_16" data-name="Trazado 16" d="M49.352,10.813,43.246,7.242,14.084,24.3v46.55A2.018,2.018,0,0,0,16.1,72.864H26.3V24.3Z" fill="#b02637"/>
            <path id="Trazado_17" data-name="Trazado 17" d="M49.352,10.813,26.3,24.3V72.864H70.389a2.018,2.018,0,0,0,2.018-2.018V24.3Z" fill="#c22631"/>
            <path id="Trazado_18" data-name="Trazado 18" d="M10.7,26.079a2.556,2.556,0,0,1,1.266-2.206l34.717-20.3L44.063,2.035a1.62,1.62,0,0,0-1.635,0L5.089,23.873a2.556,2.556,0,0,0-1.266,2.206V29.6A2.556,2.556,0,0,0,7.67,31.8l3.065-1.793A2.633,2.633,0,0,1,10.7,29.6Z" fill="#ddd4be"/>
            <path id="Trazado_19" data-name="Trazado 19" d="M81.4,23.873,46.685,3.569l-34.717,20.3A2.556,2.556,0,0,0,10.7,26.079V29.6a2.633,2.633,0,0,0,.033.414L40.6,12.545a5.24,5.24,0,0,1,5.291,0l.794.464L78.821,31.8a2.557,2.557,0,0,0,3.813-1.793,2.633,2.633,0,0,0,.033-.414V26.079A2.556,2.556,0,0,0,81.4,23.873Z" fill="#fbefd2"/>
            <path id="Trazado_20" data-name="Trazado 20" d="M55.758,27.843a1.538,1.538,0,0,1,.018-1.749,3.431,3.431,0,1,0-6.265-1.933c0,.044,0,.088,0,.131q-2.464.072-4.929.08-3.8.012-7.606-.128c0-.028,0-.055,0-.083a3.431,3.431,0,1,0-6.265,1.933,1.565,1.565,0,0,1,0,1.775,3.431,3.431,0,0,0,2.672,5.36,3.466,3.466,0,0,0,.8-.057,3.428,3.428,0,0,0,2.731-4q3.831-.216,7.663-.2,2.5.012,5,.124a3.431,3.431,0,1,0,6.79.7A3.413,3.413,0,0,0,55.758,27.843Z" fill="#fbefd2"/>
            <path id="Rectángulo_1" data-name="Rectángulo 1" d="M12.416,0h2.118A12.416,12.416,0,0,1,26.951,12.416V37.057a0,0,0,0,1,0,0H0a0,0,0,0,1,0,0V12.416A12.416,12.416,0,0,1,12.416,0Z" transform="translate(29.77 35.807)" fill="#fbefd2"/>
            <path id="Trazado_21" data-name="Trazado 21" d="M45.913,39.452a10.433,10.433,0,0,0-2.667-.346h0A10.422,10.422,0,0,0,32.823,49.528V72.864h5.334V49.528A10.426,10.426,0,0,1,45.913,39.452Z" fill="#7a2334"/>
            <path id="Trazado_22" data-name="Trazado 22" d="M45.913,39.452a10.426,10.426,0,0,0-7.755,10.077V72.864H53.668V49.528A10.426,10.426,0,0,0,45.913,39.452Z" fill="#902434"/>
            <path id="Trazado_23" data-name="Trazado 23" d="M17.348,67.929V23.753H14.084V70.847A2.018,2.018,0,0,0,16.1,72.864H29.77V67.929Z" fill="#fbefd2"/>
            <path id="Trazado_24" data-name="Trazado 24" d="M69.144,23.753V67.929H53.668v4.935H70.389a2.018,2.018,0,0,0,2.018-2.018V23.753Z" fill="#fbefd2"/>
          </g>
        </g>
      </g>
    </g>
  </g>
</svg>
