<svg xmlns="http://www.w3.org/2000/svg" width="97" height="101" viewBox="0 0 97 101">
  <defs>
    <style>
      .cls-1 {
        fill: #cbcbcb;
        fill-rule: evenodd;
      }
    </style>
  </defs>
  <path id="botones-mes" class="cls-1" d="M48.56,6.4A44.1,44.1,0,1,1,4.5,50.5,44.082,44.082,0,0,1,48.56,6.4ZM175,6.4a44.1,44.1,0,1,1-44.063,44.1A44.083,44.083,0,0,1,175,6.4ZM52.944,67.279a2.392,2.392,0,0,1-1.87-.886L39.506,52.011a2.4,2.4,0,0,1,0-3.045L51.479,34.585a2.4,2.4,0,0,1,3.715,3.037l-0.025.03L44.464,50.5,54.81,63.347A2.4,2.4,0,0,1,52.944,67.279ZM170.617,33.722a2.394,2.394,0,0,1,1.87.886l11.567,14.381a2.4,2.4,0,0,1,0,3.045L172.081,66.416a2.4,2.4,0,1,1-3.715-3.038l0.025-.03L179.1,50.5,168.751,37.652A2.4,2.4,0,0,1,170.617,33.722Z"/>
</svg>
