<svg xmlns="http://www.w3.org/2000/svg" xmlns:xlink="http://www.w3.org/1999/xlink" width="95" height="95" viewBox="0 0 95 95">
  <defs>
    <clipPath id="clip-path">
      <circle id="Ellipse_1082_copy_3" data-name="Ellipse 1082 copy 3" cx="43.5" cy="43.5" r="43.5" transform="translate(3033 3186)" fill="#d7d7d7" stroke="#f2890b" stroke-linejoin="round" stroke-width="4"/>
    </clipPath>
  </defs>
  <g id="Grupo_30" data-name="Grupo 30" transform="translate(-142 -619)">
    <g id="Ellipse_1082_copy_3-2" data-name="Ellipse 1082 copy 3" transform="translate(-2887 -2563)">
      <g id="Ellipse_1082_copy_3-3" data-name="Ellipse 1082 copy 3" transform="translate(3033 3186)" fill="#d7d7d7" stroke="#f2890b" stroke-linejoin="round" stroke-width="4">
        <circle cx="43.5" cy="43.5" r="43.5" stroke="none"/>
        <circle cx="43.5" cy="43.5" r="45.5" fill="none"/>
      </g>
      <g id="Clip" clip-path="url(#clip-path)">
        <g id="Vector_Smart_Object" data-name="Vector Smart Object" transform="translate(3032 3185)">
          <g id="BULINE">
            <circle id="Elipse_1" data-name="Elipse 1" cx="44" cy="44" r="44" fill="#80bc90"/>
          </g>
          <g id="Icons">
            <g id="Grupo_5" data-name="Grupo 5">
              <path id="Trazado_1" data-name="Trazado 1" d="M44,18.637c-22.515,0-40.767,5.738-40.767,12.816,0,1.993,1.447,3.879,4.028,5.561.353-.23.729-.456,1.124-.678C15.354,32.412,28.69,29.758,44,29.758c15.2,0,28.448,2.614,35.46,6.489.452.25.88.505,1.28.766,2.581-1.682,4.028-3.568,4.028-5.561C84.767,24.374,66.515,18.637,44,18.637Z" fill="#4a7fa7"/>
              <path id="Trazado_2" data-name="Trazado 2" d="M10.65,42.574v-3.75a24.584,24.584,0,0,1-3.389-1.81c-2.581-1.682-4.027-3.568-4.027-5.561V42.574c0,7.078,18.252,12.816,40.767,12.816q1.875,0,3.708-.053C26.932,54.747,10.65,49.258,10.65,42.574Z" fill="#4f86b4"/>
              <path id="Trazado_3" data-name="Trazado 3" d="M80.739,37.013a27.116,27.116,0,0,1-4.776,2.394c-6.748,2.676-16.824,4.485-28.262,4.809q-1.829.052-3.7.053c-13.379,0-25.253-2.026-32.686-5.156-.226-.1-.447-.191-.664-.289v3.75c0,6.685,16.282,12.173,37.058,12.762,20.777-.589,37.058-6.078,37.058-12.762V31.452C84.767,33.445,83.32,35.331,80.739,37.013Z" fill="#528eca"/>
              <g id="Grupo_1" data-name="Grupo 1">
                <path id="Trazado_4" data-name="Trazado 4" d="M49.162,59.743h-14.1a3.82,3.82,0,0,1-3.815-3.815V43.907a3.82,3.82,0,0,1,3.815-3.815h14.1a3.82,3.82,0,0,1,3.815,3.815v12.02A3.82,3.82,0,0,1,49.162,59.743Zm-14.1-16.214a.378.378,0,0,0-.378.378v12.02a.378.378,0,0,0,.378.378h14.1a.378.378,0,0,0,.378-.378V43.907a.378.378,0,0,0-.378-.378Z" fill="#e4a330"/>
              </g>
              <g id="Grupo_2" data-name="Grupo 2">
                <path id="Trazado_5" data-name="Trazado 5" d="M51.219,51.636H40.906a1.719,1.719,0,0,1,0-3.437H51.219a1.719,1.719,0,0,1,0,3.438Z" fill="#e4a330"/>
              </g>
              <circle id="Elipse_2" data-name="Elipse 2" cx="1.833" cy="1.833" r="1.833" transform="translate(21.484 46.365)" fill="#315265"/>
              <circle id="Elipse_3" data-name="Elipse 3" cx="1.833" cy="1.833" r="1.833" transform="translate(12.432 44.36)" fill="#315265"/>
              <g id="Grupo_3" data-name="Grupo 3">
                <path id="Trazado_6" data-name="Trazado 6" d="M42.109,66.417A1.719,1.719,0,0,1,40.391,64.7v-11a1.719,1.719,0,0,1,3.438,0v11A1.719,1.719,0,0,1,42.109,66.417Z" fill="#315265"/>
              </g>
              <g id="Grupo_4" data-name="Grupo 4">
                <path id="Trazado_7" data-name="Trazado 7" d="M52.97,71.042a4.962,4.962,0,0,1,.086-1.431q-4.511-.2-9.023-.177,3.588.017,7.176.177a4.924,4.924,0,0,0,5.746,5.846A4.944,4.944,0,0,1,52.97,71.042Z" fill="#d3b179"/>
                <path id="Trazado_8" data-name="Trazado 8" d="M52.957,62.709c0-.063,0-.125,0-.189a4.927,4.927,0,0,1,4.005-4.838A4.926,4.926,0,0,0,51.1,62.52c0,.063,0,.126,0,.189q-3.539.1-7.077.114Q48.494,62.839,52.957,62.709Z" fill="#d3b179"/>
                <path id="Trazado_9" data-name="Trazado 9" d="M25.11,70.74a4.9,4.9,0,0,1,.855-2.9,2.248,2.248,0,0,0,0-2.548,4.926,4.926,0,0,1,3.143-7.614A4.922,4.922,0,0,0,23.263,62.4a4.9,4.9,0,0,0,.855,2.9,2.248,2.248,0,0,1,0,2.548,4.926,4.926,0,0,0,3.836,7.7,4.96,4.96,0,0,0,1.155-.082A4.948,4.948,0,0,1,25.11,70.74Z" fill="#d3b179"/>
                <path id="Trazado_10" data-name="Trazado 10" d="M60.075,67.806A2.209,2.209,0,0,1,60.1,65.3a4.926,4.926,0,0,0-3.144-7.614,4.927,4.927,0,0,0-4.005,4.838c0,.063,0,.126,0,.189q-4.462.131-8.925.114-5.461.018-10.921-.184c0-.04,0-.079,0-.119a4.926,4.926,0,0,0-4.005-4.838A4.926,4.926,0,0,0,25.965,65.3a2.248,2.248,0,0,1,0,2.548,4.926,4.926,0,0,0,3.143,7.614,4.922,4.922,0,0,0,3.921-5.741q5.5-.31,11-.283,4.511-.025,9.023.177a4.927,4.927,0,0,0,3.9,5.846,4.925,4.925,0,0,0,3.121-7.65Z" fill="#f1cc88"/>
              </g>
            </g>
          </g>
        </g>
      </g>
    </g>
  </g>
</svg>
