<svg xmlns="http://www.w3.org/2000/svg" width="95" height="95" viewBox="0 0 95 95">
  <g id="Grupo_27" data-name="Grupo 27" transform="translate(-142 -507)">
    <g id="Ellipse_1082_copy" data-name="Ellipse 1082 copy" transform="translate(146 511)" fill="#ebebeb" stroke="#f5a03a" stroke-linejoin="round" stroke-width="4">
      <circle cx="43.5" cy="43.5" r="43.5" stroke="none"/>
      <circle cx="43.5" cy="43.5" r="45.5" fill="none"/>
    </g>
    <g id="Vector_Smart_Object" data-name="Vector Smart Object" transform="translate(146 511)">
      <g id="BULINE">
        <circle id="Elipse_9" data-name="Elipse 9" cx="43.5" cy="43.5" r="43.5" fill="#dc862e"/>
      </g>
      <g id="Icons">
        <g id="Grupo_19" data-name="Grupo 19">
          <path id="Trazado_60" data-name="Trazado 60" d="M54.028,53.989A13.273,13.273,0,0,1,59.062,43.3c-.075-.605-.146-1.14-.205-1.571-4.664,1.437-8.1,6.381-8.1,12.26,0,7.005,4.47,6.658,10.489,6.658l1.606,0C57.691,60.646,54.028,60.33,54.028,53.989Z" fill="#8c4636"/>
          <path id="Trazado_61" data-name="Trazado 61" d="M59.062,43.3a65.034,65.034,0,0,1,.615,9.235h3.947s-.5-7.667.065-11.007c-.132-.029-.265-.057-.4-.081A9.953,9.953,0,0,0,59.062,43.3Z" fill="#f1cc88"/>
          <path id="Trazado_62" data-name="Trazado 62" d="M63.689,41.528c-.567,3.34-.065,11.007-.065,11.007H59.677a65.034,65.034,0,0,0-.615-9.235,13.273,13.273,0,0,0-5.034,10.689c0,6.341,3.663,6.658,8.822,6.661h.083c5.286,0,9.619-.32,9.619-6.661C72.552,47.793,68.735,42.638,63.689,41.528Z" fill="#954b37"/>
          <path id="Trazado_63" data-name="Trazado 63" d="M51.245,47.493V86.312q-1.152.209-2.323.352A43.591,43.591,0,0,1,20.1,80.174V47.493a4.457,4.457,0,0,1,4.44-4.44H46.8a4.44,4.44,0,0,1,4.44,4.44Z" fill="#fff"/>
          <rect id="Rectángulo_2" data-name="Rectángulo 2" width="2.512" height="7.975" transform="translate(30.642 38.031)" fill="#e3ca9d"/>
          <rect id="Rectángulo_3" data-name="Rectángulo 3" width="7.033" height="7.975" transform="translate(33.154 38.031)" fill="#f5daa6"/>
          <path id="Trazado_64" data-name="Trazado 64" d="M48.793,29.819H22.651A2.153,2.153,0,0,1,20.5,27.764l-.785-17.139A9.834,9.834,0,0,1,29.548.791H41.794a9.834,9.834,0,0,1,9.834,9.834l-.683,17.126A2.153,2.153,0,0,1,48.793,29.819Z" fill="#7c402d"/>
          <circle id="Elipse_10" data-name="Elipse 10" cx="2.889" cy="2.889" r="2.889" transform="translate(46.781 21.405)" fill="#f5daa6"/>
          <circle id="Elipse_11" data-name="Elipse 11" cx="2.889" cy="2.889" r="2.889" transform="translate(18.898 21.405)" fill="#f1cc88"/>
          <circle id="Elipse_12" data-name="Elipse 12" cx="1.193" cy="1.193" r="1.193" transform="translate(20.594 23.1)" fill="#dbb87e"/>
          <circle id="Elipse_13" data-name="Elipse 13" cx="1.193" cy="1.193" r="1.193" transform="translate(48.476 23.1)" fill="#dbb87e"/>
          <path id="Trazado_65" data-name="Trazado 65" d="M26.183,28.925V9.52h0a4.4,4.4,0,0,0-4.4,4.4V28.925A12.057,12.057,0,0,0,33.844,40.982h3.768c.105,0,.209-.005.314-.008A12.055,12.055,0,0,1,26.183,28.925Z" fill="#f1cc88"/>
          <path id="Trazado_66" data-name="Trazado 66" d="M49.67,28.925V13.916a4.4,4.4,0,0,0-4.4-4.4H26.183v19.4A12.055,12.055,0,0,0,37.926,40.974,12.055,12.055,0,0,0,49.67,28.925Z" fill="#f5daa6"/>
          <rect id="Rectángulo_4" data-name="Rectángulo 4" width="3.517" height="5.338" rx="1.758" transform="translate(26.937 21.278)" fill="#7c402d"/>
          <rect id="Rectángulo_5" data-name="Rectángulo 5" width="3.517" height="5.338" rx="1.758" transform="translate(40.627 21.278)" fill="#7c402d"/>
          <rect id="Rectángulo_6" data-name="Rectángulo 6" width="5.526" height="2.826" rx="1.413" transform="translate(32.651 26.993)" fill="#dbb87e"/>
          <path id="Trazado_67" data-name="Trazado 67" d="M32.4,33.18a3.014,3.014,0,1,0,6.029,0" fill="none" stroke="#7c402d" stroke-linecap="round" stroke-miterlimit="10" stroke-width="1.359"/>
          <path id="Trazado_68" data-name="Trazado 68" d="M25.492,20.2a5.753,5.753,0,0,1,6.123,0" fill="none" stroke="#7c402d" stroke-linecap="round" stroke-miterlimit="10" stroke-width="1.359"/>
          <path id="Trazado_69" data-name="Trazado 69" d="M39.323,20.2a5.754,5.754,0,0,1,6.123,0" fill="none" stroke="#7c402d" stroke-linecap="round" stroke-miterlimit="10" stroke-width="1.359"/>
          <circle id="Elipse_14" data-name="Elipse 14" cx="0.722" cy="0.722" r="0.722" transform="translate(28.412 21.923)" fill="#fff"/>
          <circle id="Elipse_15" data-name="Elipse 15" cx="0.722" cy="0.722" r="0.722" transform="translate(42.165 21.923)" fill="#fff"/>
          <path id="Rectángulo_7" data-name="Rectángulo 7" d="M0,0H14.613a5.526,5.526,0,0,1,5.526,5.526v0a0,0,0,0,1,0,0H5.526A5.526,5.526,0,0,1,0,0V0A0,0,0,0,1,0,0Z" transform="translate(25.345 7.511)" fill="#7c402d"/>
          <path id="Trazado_70" data-name="Trazado 70" d="M60.73,60.56c-.175,0-.35.007-.522.022s-.345.037-.515.068a5.866,5.866,0,0,0-1.429.44,5.986,5.986,0,0,0-2.778,2.578,5.859,5.859,0,0,0-.4.9c-.056.161-.105.325-.146.491a5.88,5.88,0,0,0-.185,1.477l-1.234,19.3q-1.037.245-2.093.438c-.059.012-.121.024-.182.034q-1.152.209-2.323.352L49.7,74.434l.5-7.9a5.943,5.943,0,0,1,1.037-3.363,5.642,5.642,0,0,1,.466-.6,5.973,5.973,0,0,1,4.474-2.015Z" fill="#8c4636"/>
          <path id="Trazado_71" data-name="Trazado 71" d="M73.632,74.874q-.352.336-.712.668a43.639,43.639,0,0,1-5.262,4.138q-.869.584-1.769,1.121a43.126,43.126,0,0,1-8.552,3.951q-1.027.344-2.075.639-.864.242-1.742.449l1.234-19.3a5.88,5.88,0,0,1,.185-1.477c.041-.167.09-.33.146-.491a5.859,5.859,0,0,1,.4-.9,5.986,5.986,0,0,1,2.778-2.578,5.866,5.866,0,0,1,1.429-.44c.17-.031.342-.053.515-.068s.347-.022.522-.022h6.392a6,6,0,0,1,3.752,1.324,6.042,6.042,0,0,1,.722.692,5.954,5.954,0,0,1,1.5,3.961l.345,5.4Z" fill="#8c4636"/>
          <path id="Trazado_72" data-name="Trazado 72" d="M67.658,79.68q-.869.584-1.769,1.121a43.126,43.126,0,0,1-8.552,3.951q-1.027.344-2.075.639a79.871,79.871,0,0,1,.493-14.827c.2-1.716.447-3.432.724-5.149q.122-.77.255-1.539c.093-.545.19-1.089.289-1.635h8.963c.092.551.182,1.1.267,1.65.082.518.158,1.035.231,1.553q.342,2.378.588,4.756Q67.563,74.941,67.658,79.68Z" fill="#f1cc88"/>
          <path id="Trazado_73" data-name="Trazado 73" d="M57.337,84.752q-1.027.344-2.075.639-.864.242-1.742.449-1.037.245-2.093.438l-.182-1.252L49.7,74.434,48.37,65.272a4.208,4.208,0,0,1,2.861-3.5.034.034,0,0,1,.014-.007,6.14,6.14,0,0,1,.834-.27,6.8,6.8,0,0,1,1.227-.2,7.278,7.278,0,0,1,.924-.007l.493.027.245,2.185.117,1.064.063.562.607,5.432Z" fill="#954b37"/>
          <path id="Trazado_74" data-name="Trazado 74" d="M74.414,65.272l-.97,6.666-.523,3.6a43.639,43.639,0,0,1-5.262,4.138q-.869.584-1.769,1.121l1.183-10.6.549-4.919.178-1.607.263-2.353.491-.027a7.138,7.138,0,0,1,1.582.083,6.158,6.158,0,0,1,.987.24,5.909,5.909,0,0,1,.851.347A4.068,4.068,0,0,1,74.414,65.272Z" fill="#954b37"/>
          <g id="Grupo_18" data-name="Grupo 18">
            <path id="Trazado_75" data-name="Trazado 75" d="M39.488,78.617l-1.2,3.862a3.612,3.612,0,0,1-4.519,2.385l-5.929-1.833a2.043,2.043,0,0,1-1.421-1.661l-3.666-1.334-1.776-.647L18.8,77.357l.514-1.41,4.915,1.788,2.191.8a2.043,2.043,0,0,0,1.421,1.661l5.929,1.833a3.612,3.612,0,0,0,4.519-2.385l.832-2.69A1.736,1.736,0,0,1,39.488,78.617Z" fill="#e3ca9d"/>
            <path id="Trazado_76" data-name="Trazado 76" d="M27.843,80.194l5.931,1.833a3.613,3.613,0,0,0,4.519-2.385l.831-2.69a1.725,1.725,0,0,0-.783-.506l-3.872-1.2.308-.021a1.291,1.291,0,1,0-.171-2.576l-2.074.138-1.485.1a2.158,2.158,0,0,0-1.807,1.23c-.058.024-.116.05-.172.08l-8.049-2.929-1.7,4.675,7.107,2.586A2.044,2.044,0,0,0,27.843,80.194Z" fill="#f5daa6"/>
          </g>
          <path id="Trazado_77" data-name="Trazado 77" d="M18.345,63.821l5.046-19.36-4.9-1.278a3.975,3.975,0,0,0-4.85,2.844L8.083,67.339,18.8,77.357l2.177,2.033,1.371,1.281.406-.634,1.475-2.3,2.755-4.292.112-.176Z" fill="#fff"/>
          <path id="Trazado_78" data-name="Trazado 78" d="M28.522,43.054l-2.535,4.769a1.937,1.937,0,0,0,1.3,2.8h0a1.653,1.653,0,0,1,1.172,2.264l-1.748,4.1a1.937,1.937,0,0,0,.191,1.864l8.621,12.413L30.642,42.4Z" fill="#dad8d7"/>
          <path id="Trazado_79" data-name="Trazado 79" d="M42.307,43.054l2.535,4.769a1.937,1.937,0,0,1-1.3,2.8h0a1.653,1.653,0,0,0-1.172,2.264l1.748,4.1a1.937,1.937,0,0,1-.191,1.864L35.3,71.271,40.187,42.4Z" fill="#dad8d7"/>
          <path id="Trazado_80" data-name="Trazado 80" d="M62.933,60.649h0Z" fill="#fbefd2"/>
          <path id="Trazado_81" data-name="Trazado 81" d="M62.891,60.649h0Z" fill="#fbefd2"/>
          <circle id="Elipse_16" data-name="Elipse 16" cx="1.89" cy="1.89" r="1.89" transform="translate(54.772 48.194)" fill="#7c402d"/>
          <circle id="Elipse_17" data-name="Elipse 17" cx="1.89" cy="1.89" r="1.89" transform="translate(64.308 48.194)" fill="#7c402d"/>
          <path id="Trazado_82" data-name="Trazado 82" d="M60.444,65.511V61.884H59.273v3.627a2.316,2.316,0,0,0,2.911,2.247A2.323,2.323,0,0,1,60.444,65.511Z" fill="#b04655"/>
          <path id="Trazado_83" data-name="Trazado 83" d="M63.922,65.511V61.884H60.444v3.627a2.323,2.323,0,0,0,1.739,2.247A2.323,2.323,0,0,0,63.922,65.511Z" fill="#cf4c58"/>
          <path id="Trazado_84" data-name="Trazado 84" d="M66.094,63.893a6.669,6.669,0,0,1-4.441-1.687,6.693,6.693,0,0,1-11.089-4.227,6.693,6.693,0,0,0,11.089,5.79A6.694,6.694,0,0,0,72.789,58.76a6.769,6.769,0,0,0-.047-.781A6.7,6.7,0,0,1,66.094,63.893Z" fill="#d7b47c"/>
          <path id="Trazado_85" data-name="Trazado 85" d="M57.213,63.893a6.669,6.669,0,0,0,4.441-1.687,6.693,6.693,0,0,0,11.089-4.227,6.693,6.693,0,0,0-11.089-4.228,6.693,6.693,0,0,0-11.089,4.228A6.7,6.7,0,0,0,57.213,63.893Z" fill="#f1cc88"/>
          <path id="Trazado_86" data-name="Trazado 86" d="M60.819,56.057l-.606-.96a1.782,1.782,0,0,1,.522-2.467,1.825,1.825,0,0,1,.956-.267H60.454a1.825,1.825,0,0,0-.956.267,1.781,1.781,0,0,0-.522,2.467l.606.96a2.446,2.446,0,0,0,2.688,1.062A2.447,2.447,0,0,1,60.819,56.057Z" fill="#69372a"/>
          <path id="Trazado_87" data-name="Trazado 87" d="M63.721,56.057l.61-.966a1.777,1.777,0,0,0-.395-2.373,1.822,1.822,0,0,0-1.087-.355H61.691a1.825,1.825,0,0,0-.956.267,1.782,1.782,0,0,0-.522,2.467l.606.96a2.447,2.447,0,0,0,1.451,1.062A2.447,2.447,0,0,0,63.721,56.057Z" fill="#7c402d"/>
          <path id="Trazado_88" data-name="Trazado 88" d="M46.76,49.359,48.67,44.2a3.736,3.736,0,0,1,3.689-2.435l-.969-.565a3.735,3.735,0,0,0-4.8,2.207l-1.91,5.164a3.723,3.723,0,0,0,2.2,4.783l1.7.628A3.723,3.723,0,0,1,46.76,49.359Z" fill="#d7b67e"/>
          <path id="Trazado_89" data-name="Trazado 89" d="M51.34,53.06l4.107-9.5-3.087-1.8A3.736,3.736,0,0,0,48.67,44.2l-1.91,5.164a3.723,3.723,0,0,0,1.82,4.617l.426.157A1.816,1.816,0,0,0,51.34,53.06Z" fill="#f1cc88"/>
          <path id="Trazado_90" data-name="Trazado 90" d="M74.362,54.133l2.123-.785a3.723,3.723,0,0,0,2.2-4.783L76.775,43.4a3.734,3.734,0,0,0-4.8-2.207l-4.056,2.368,4.107,9.5A1.816,1.816,0,0,0,74.362,54.133Z" fill="#f1cc88"/>
          <circle id="Elipse_18" data-name="Elipse 18" cx="0.862" cy="0.862" r="0.862" transform="translate(56.662 55.703)" fill="#d8af6b"/>
          <circle id="Elipse_19" data-name="Elipse 19" cx="0.862" cy="0.862" r="0.862" transform="translate(56.662 59.787)" fill="#d8af6b"/>
          <circle id="Elipse_20" data-name="Elipse 20" cx="0.862" cy="0.862" r="0.862" transform="translate(53.91 57.704)" fill="#d8af6b"/>
          <circle id="Elipse_21" data-name="Elipse 21" cx="0.862" cy="0.862" r="0.862" transform="translate(65.124 55.703)" fill="#d8af6b"/>
          <circle id="Elipse_22" data-name="Elipse 22" cx="0.862" cy="0.862" r="0.862" transform="translate(65.124 59.787)" fill="#d8af6b"/>
          <circle id="Elipse_23" data-name="Elipse 23" cx="0.862" cy="0.862" r="0.862" transform="translate(67.876 57.704)" fill="#d8af6b"/>
          <path id="Trazado_91" data-name="Trazado 91" d="M63.29,41.447a9.458,9.458,0,0,0-4.433.281c.059.432.13.966.205,1.571A9.953,9.953,0,0,1,63.29,41.447Z" fill="#f1cc88"/>
        </g>
      </g>
    </g>
  </g>
</svg>
