<svg xmlns="http://www.w3.org/2000/svg" width="97" height="101" viewBox="0 0 97 101">
  <defs>
    <style>
      .cls-1 {
        fill: #fff;
        fill-rule: evenodd;
      }
    </style>
  </defs>
  <path class="cls-1" d="M92.4,82.105a12.287,12.287,0,0,0-3.58-3.937L78.263,70.776a8.735,8.735,0,0,1-3.747-7.3,10.944,10.944,0,0,0-3.106-8.326,1.54,1.54,0,0,1-.235-0.283L68.752,51.1l-1.821,3.643a1.509,1.509,0,0,1-.561.61l-7.57,4.61,0.478,1.018a3.024,3.024,0,0,0,2.093,1.678,7.4,7.4,0,0,1,5.688,5.165,16.065,16.065,0,0,1,.22,8.8,12.117,12.117,0,0,0-.316,2.185,14.9,14.9,0,0,0,2.847,9.38,1.5,1.5,0,0,1,.275.866v7.76a25.562,25.562,0,0,0,4.7-.576,11.419,11.419,0,0,1,.162-1.963A8.01,8.01,0,0,1,78.2,88.825a1.5,1.5,0,1,1,1.663,2.5A5.078,5.078,0,0,0,77.9,94.788c-0.031.185-.014,0.379-0.033,0.566A25.191,25.191,0,0,0,92.4,82.105ZM26.477,25.032H54.266a1.159,1.159,0,0,0,1.158-1.158V4.18h-30.1V23.874A1.159,1.159,0,0,0,26.477,25.032Zm19.146,27.8H24.161A1.158,1.158,0,0,0,23,54v33.6H43.976A30.005,30.005,0,0,1,45.623,52.837Zm7.7-6.951a29.935,29.935,0,0,1,32.2.131V26.191a3.483,3.483,0,0,0-1.167-2.6L63.52,5.057a3.438,3.438,0,0,0-1.149-.665V23.874a8.117,8.117,0,0,1-8.106,8.11H26.477a8.117,8.117,0,0,1-8.105-8.11V4.18H14.9A12.753,12.753,0,0,0,2.161,16.923V74.849A12.754,12.754,0,0,0,14.9,87.592h1.158V54a8.116,8.116,0,0,1,8.1-8.11H53.325ZM67.089,89.528a17.873,17.873,0,0,1-3.122-10.714,14.289,14.289,0,0,1,.375-2.775,13.11,13.11,0,0,0-.135-7.294,4.4,4.4,0,0,0-3.457-3.151,6.04,6.04,0,0,1-4.186-3.339l-1.048-2.236a1.5,1.5,0,0,1,.578-1.917l8.35-5.085,2.8-5.612a1.5,1.5,0,0,1,1.259-.826,1.482,1.482,0,0,1,1.342.686L73.6,53.1A13.915,13.915,0,0,1,77.514,63.53a5.733,5.733,0,0,0,2.467,4.789l10.555,7.392a15.256,15.256,0,0,1,3.171,3.018A25.48,25.48,0,1,0,67.089,96.751V89.528Z"/>
</svg>
