<svg xmlns="http://www.w3.org/2000/svg" width="97" height="101" viewBox="0 0 97 101">
  <defs>
    <style>
      .cls-1 {
        fill: #fbc192;
        fill-rule: evenodd;
      }
    </style>
  </defs>
  <path class="cls-1" d="M73.924,94.072a2.013,2.013,0,0,1-2.012-2.011V75.888c0-4.991,3.331-10.314,6.857-15.947,6.922-11.06,10.859-18.832,2.849-25.815a9.827,9.827,0,0,0-9.781-2.158A2.012,2.012,0,0,1,69.3,29.412l0.049-.148A9.7,9.7,0,0,0,66.1,18.345a9.955,9.955,0,0,0-8.947-1.568,9.819,9.819,0,0,0-6.318,6.183l-0.871,2.561a2.012,2.012,0,0,1-3.81,0l-0.783-2.3a9.773,9.773,0,0,0-17.582-2.391,9.736,9.736,0,0,0-1.026,8.416L26.824,29.4a2.011,2.011,0,0,1-2.535,2.563c-3.353-1.1-7.213-.1-10.327,2.7-7.408,6.656-3.589,14.282,3.08,25.157,3.381,5.511,6.572,10.715,6.572,15.492V92.061a2.012,2.012,0,0,1-4.025,0V75.319c0-3.643-2.9-8.376-5.977-13.389-5.7-9.294-12.8-20.861-2.341-30.254a15.218,15.218,0,0,1,11.024-4.151A13.739,13.739,0,0,1,24.4,18.66a13.754,13.754,0,0,1,23.639.727A13.839,13.839,0,0,1,68.478,15.1a13.63,13.63,0,0,1,5.354,12.4,13.855,13.855,0,0,1,10.477,3.645c11.153,9.721,3.789,21.486-2.128,30.939-3.211,5.131-6.244,9.977-6.244,13.813V92.061A2.013,2.013,0,0,1,73.924,94.072ZM48.434,59.788A17.5,17.5,0,0,1,58.219,62.9a2.717,2.717,0,0,0,4.3-2.185c0-6.55-6.307-19.273-14.087-19.273S34.347,54.168,34.347,60.719a2.717,2.717,0,0,0,4.3,2.185A17.49,17.49,0,0,1,48.434,59.788Zm-7.52-32.864c0.674,4.053-1.12,7.674-4.006,8.089s-5.77-2.536-6.443-6.589,1.12-7.675,4.006-8.089S40.24,22.871,40.913,26.925ZM27.5,44.362c0.673,4.054-1.12,7.675-4.006,8.089s-5.77-2.535-6.444-6.588,1.12-7.675,4.007-8.089S26.825,40.309,27.5,44.362ZM54.613,26.925c-0.674,4.053,1.12,7.674,4.006,8.089s5.77-2.536,6.443-6.589-1.12-7.675-4.006-8.089S55.286,22.871,54.613,26.925ZM68.029,44.362c-0.673,4.054,1.12,7.675,4.006,8.089s5.77-2.535,6.444-6.588-1.121-7.675-4.007-8.089S68.7,40.309,68.029,44.362ZM16.219,30.381l-5.85-4.041a0.438,0.438,0,0,0-.682.429l1.107,7.022a0.438,0.438,0,0,0,.666.3L16.2,31.113A0.439,0.439,0,0,0,16.219,30.381Zm64.473,0,5.85-4.041a0.438,0.438,0,0,1,.682.429L86.117,33.79a0.438,0.438,0,0,1-.666.3l-4.743-2.981A0.439,0.439,0,0,1,80.692,30.381ZM38.377,13.353L34.972,7.112a0.438,0.438,0,0,0-.8.076L32,13.957a0.439,0.439,0,0,0,.459.57L38.034,14A0.438,0.438,0,0,0,38.377,13.353Zm21.06,0,3.4-6.241a0.438,0.438,0,0,1,.8.076l2.172,6.769a0.438,0.438,0,0,1-.459.57L59.781,14A0.438,0.438,0,0,1,59.438,13.353Z"/>
</svg>
