<svg xmlns="http://www.w3.org/2000/svg" width="95" height="95" viewBox="0 0 95 95">
  <g id="Grupo_26" data-name="Grupo 26" transform="translate(-30 -507)">
    <g id="Ellipse_1082" data-name="Ellipse 1082" transform="translate(34 511)" fill="#ebebeb" stroke="#f5a03a" stroke-linejoin="round" stroke-width="4">
      <circle cx="43.5" cy="43.5" r="43.5" stroke="none"/>
      <circle cx="43.5" cy="43.5" r="45.5" fill="none"/>
    </g>
    <g id="Vector_Smart_Object" data-name="Vector Smart Object" transform="translate(33 510)">
      <g id="BULINE">
        <circle id="Elipse_5" data-name="Elipse 5" cx="44.5" cy="44.5" r="44.5" fill="#80bc90"/>
      </g>
      <g id="Icons">
        <g id="Grupo_17" data-name="Grupo 17">
          <g id="Grupo_9" data-name="Grupo 9">
            <g id="Grupo_8" data-name="Grupo 8">
              <path id="Trazado_25" data-name="Trazado 25" d="M68.818,57.225c-2.766,7.488-11.519,7.28-11.941,7.267a2.627,2.627,0,0,0-.219,5.249c.026,0,.151.006.361.006a21.6,21.6,0,0,0,7.46-1.408,15.41,15.41,0,0,0,9-8.58A6.054,6.054,0,0,1,68.818,57.225Z" fill="#f1cc88"/>
              <path id="Trazado_26" data-name="Trazado 26" d="M72.447,53.045a2.627,2.627,0,0,0-3.063,2.1,12.664,12.664,0,0,1-.566,2.078,6.054,6.054,0,0,0,4.659,2.534,18.082,18.082,0,0,0,1.073-3.651A2.627,2.627,0,0,0,72.447,53.045Z" fill="#fff"/>
            </g>
            <path id="Trazado_27" data-name="Trazado 27" d="M28.693,76.688H22.586l-5.6-16.341a5,5,0,0,1,4.372-6.637c.088,0,.176-.007.265-.007h7.065Z" fill="#caa774"/>
            <path id="Trazado_28" data-name="Trazado 28" d="M50.893,76.688H57l5.6-16.341a5,5,0,0,0-4.372-6.637q-.132-.007-.265-.007H50.893Z" fill="#caa774"/>
            <path id="Trazado_29" data-name="Trazado 29" d="M17.17,75.2V74.051a3.093,3.093,0,0,1,2.668-3.062,3.1,3.1,0,0,0-.428-.033H17.5a3.1,3.1,0,0,0-3.1,3.1V75.2a1.427,1.427,0,0,0,1.427,1.427H18.6A1.427,1.427,0,0,1,17.17,75.2Z" fill="#bfb3b3"/>
            <path id="Trazado_30" data-name="Trazado 30" d="M22.5,75.2V74.051a3.093,3.093,0,0,0-2.667-3.062,3.093,3.093,0,0,0-2.668,3.062V75.2A1.427,1.427,0,0,0,18.6,76.631h2.481A1.427,1.427,0,0,0,22.5,75.2Z" fill="#cdcccc"/>
            <path id="Trazado_31" data-name="Trazado 31" d="M57.133,75.2V74.051A3.093,3.093,0,0,1,59.8,70.989a3.1,3.1,0,0,0-.428-.033H57.465a3.1,3.1,0,0,0-3.1,3.1V75.2A1.427,1.427,0,0,0,55.8,76.631H58.56A1.427,1.427,0,0,1,57.133,75.2Z" fill="#bfb3b3"/>
            <path id="Trazado_32" data-name="Trazado 32" d="M62.468,75.2V74.051A3.093,3.093,0,0,0,59.8,70.989a3.093,3.093,0,0,0-2.668,3.062V75.2a1.427,1.427,0,0,0,1.427,1.427h2.481A1.427,1.427,0,0,0,62.468,75.2Z" fill="#cdcccc"/>
            <path id="Trazado_33" data-name="Trazado 33" d="M43.4,76.688H35.653a13.572,13.572,0,0,1-13.1-10.067q-4.28-15.967,3.941-31.933H52.661q8,15.926,3.864,31.852A13.559,13.559,0,0,1,43.4,76.688Z" fill="#dcb77c"/>
            <path id="Trazado_34" data-name="Trazado 34" d="M42.032,76.688H37.007c-3.986,0-7.47-4.133-8.5-10.067a64.474,64.474,0,0,1,2.557-31.933h16.98A66.05,66.05,0,0,1,50.548,66.54C49.542,72.517,46.039,76.688,42.032,76.688Z" fill="#e1cdac"/>
            <path id="Trazado_35" data-name="Trazado 35" d="M56.881,24.513a13.024,13.024,0,0,1-2.512,7.635,14.794,14.794,0,0,1-1.709,1.99c-1.584-4.791-6.713-8.3-12.8-8.3s-11.219,3.513-12.8,8.3a13.441,13.441,0,0,1-4.221-9.625c0-5.138,3.087-9.658,7.758-12.262a17.72,17.72,0,0,1,2.55-1.173,18.8,18.8,0,0,1,3.527-.925s0,0,.007,0A19.89,19.89,0,0,1,39.858,9.9a19.093,19.093,0,0,1,8.657,2.032l.134-.116,5.641-4.923a1.046,1.046,0,0,1,1.733.789,28.2,28.2,0,0,1,.014,12.286A12.73,12.73,0,0,1,56.881,24.513Z" fill="#f1cc88"/>
            <circle id="Elipse_6" data-name="Elipse 6" cx="2.522" cy="2.522" r="2.522" transform="translate(43.472 19.984)" fill="#7c402d"/>
            <path id="Trazado_36" data-name="Trazado 36" d="M25.671,7.1l6.1,5.318-7.829,7.829a28.271,28.271,0,0,1,0-12.359A1.045,1.045,0,0,1,25.671,7.1Z" fill="#dcb77c"/>
            <path id="Trazado_37" data-name="Trazado 37" d="M25.77,10.095l2.361,2.06a.625.625,0,0,1,.031.912L25.59,15.639a.466.466,0,0,1-.79-.266,12.643,12.643,0,0,1,.156-4.908A.491.491,0,0,1,25.77,10.095Z" fill="#d3646f"/>
            <path id="Trazado_38" data-name="Trazado 38" d="M53.947,9.825l-2.19,2.241a.625.625,0,0,0,.042.912l2.937,2.5a.353.353,0,0,0,.581-.24,12.8,12.8,0,0,0-.529-5.112A.491.491,0,0,0,53.947,9.825Z" fill="#d3646f"/>
            <path id="Trazado_39" data-name="Trazado 39" d="M54.37,32.148a14.85,14.85,0,0,1-1.709,1.99c-1.585-4.792-6.715-8.3-12.8-8.3s-11.219,3.512-12.8,8.3a13.441,13.441,0,0,1-4.22-9.625c0-6.025,4.245-11.2,10.309-13.436C37.345,16.983,45.69,27.585,54.37,32.148Z" fill="#e6c285"/>
            <path id="Trazado_40" data-name="Trazado 40" d="M39.858,39.949a16.978,16.978,0,0,0,12.8-5.81,13.309,13.309,0,0,0-25.605,0A16.978,16.978,0,0,0,39.858,39.949Z" fill="#efd9b1"/>
            <path id="Trazado_41" data-name="Trazado 41" d="M33.553,31.212s-7.118-2.359-18.389,0" fill="none" stroke="#7c402d" stroke-linecap="round" stroke-miterlimit="10" stroke-width="1.391"/>
            <path id="Trazado_42" data-name="Trazado 42" d="M33.411,33.881s-7.476-.584-17.853,4.408" fill="none" stroke="#7c402d" stroke-linecap="round" stroke-miterlimit="10" stroke-width="1.391"/>
            <path id="Trazado_43" data-name="Trazado 43" d="M46.374,31.212s7.118-2.359,18.389,0" fill="none" stroke="#7c402d" stroke-linecap="round" stroke-miterlimit="10" stroke-width="1.391"/>
            <path id="Trazado_44" data-name="Trazado 44" d="M46.516,33.881s7.476-.584,17.853,4.408" fill="none" stroke="#7c402d" stroke-linecap="round" stroke-miterlimit="10" stroke-width="1.391"/>
            <path id="Trazado_45" data-name="Trazado 45" d="M44.23,26.292a5.151,5.151,0,0,0-4.372,2.424,5.155,5.155,0,1,0,0,5.462,5.155,5.155,0,1,0,4.372-7.887Z" fill="#f6f6f7"/>
            <line id="Línea_1" data-name="Línea 1" y2="5.131" transform="translate(39.858 30.786)" fill="none" stroke="#7c402d" stroke-miterlimit="10" stroke-width="1.391"/>
            <path id="Trazado_46" data-name="Trazado 46" d="M37.042,33.258a2.817,2.817,0,0,0,5.633,0" fill="none" stroke="#7c402d" stroke-linecap="round" stroke-miterlimit="10" stroke-width="1.391"/>
            <circle id="Elipse_7" data-name="Elipse 7" cx="2.522" cy="2.522" r="2.522" transform="translate(31.2 19.984)" fill="#7c402d"/>
            <path id="Trazado_47" data-name="Trazado 47" d="M41.881,29.648a2.311,2.311,0,0,1-2.023,2.242,2.311,2.311,0,0,1-2.023-2.242c0-1,.906-1.121,2.023-1.121S41.881,28.651,41.881,29.648Z" fill="#6e3829"/>
            <path id="Trazado_48" data-name="Trazado 48" d="M25.532,75.445V74.08a3.666,3.666,0,0,1,3.161-3.629,3.664,3.664,0,0,0-.507-.039H25.925a3.669,3.669,0,0,0-3.668,3.668v1.366a1.691,1.691,0,0,0,1.691,1.691h3.275A1.691,1.691,0,0,1,25.532,75.445Z" fill="#cdcccc"/>
            <path id="Trazado_49" data-name="Trazado 49" d="M31.855,75.445V74.08a3.666,3.666,0,0,0-3.162-3.629,3.666,3.666,0,0,0-3.161,3.629v1.366a1.691,1.691,0,0,0,1.691,1.691h2.941A1.691,1.691,0,0,0,31.855,75.445Z" fill="#f6f6f7"/>
            <path id="Trazado_50" data-name="Trazado 50" d="M49.649,75.445V74.08a3.666,3.666,0,0,1,3.161-3.629c-.166-.023-.334-.039-.507,3.437H50.042c-2.026-3.477-3.668-1.834-3.668.192v1.366a1.691,1.691,0,0,0,1.691,1.691H51.34A1.691,1.691,0,0,1,49.649,75.445Z" fill="#cdcccc"/>
            <path id="Trazado_51" data-name="Trazado 51" d="M55.972,75.445V74.08a3.666,3.666,0,0,0-3.162-3.629,3.666,3.666,0,0,0-3.161,3.629v1.366a1.691,1.691,0,0,0,1.691,1.691h2.941A1.691,1.691,0,0,0,55.972,75.445Z" fill="#f6f6f7"/>
          </g>
          <g id="Grupo_15" data-name="Grupo 15">
            <g id="Grupo_10" data-name="Grupo 10">
              <path id="Trazado_52" data-name="Trazado 52" d="M50.529,82.077c-1.378,0-2.243-.324-2.685-.976a1.934,1.934,0,0,1,.045-2.067.915.915,0,0,0,.083-.3c-.1-.075-.766-.459-3.365-.114a30.19,30.19,0,0,0-3.191.619.934.934,0,0,1-.472-1.808,31.564,31.564,0,0,1,3.416-.663c2.7-.359,4.312-.112,5.058.777a2.061,2.061,0,0,1,.145,2.32l-.041.09L49.487,80a.578.578,0,0,0-.035.071c.281.123,1.389.389,5.033-.446A.934.934,0,0,1,54.9,81.45,20.554,20.554,0,0,1,50.529,82.077Z" fill="#a33f4d"/>
            </g>
            <path id="Trazado_53" data-name="Trazado 53" d="M34.037,69.208a10.655,10.655,0,0,1,8.35-10.4,10.651,10.651,0,1,0,0,20.8A10.655,10.655,0,0,1,34.037,69.208Z" fill="#aa465b"/>
            <ellipse id="Elipse_8" data-name="Elipse 8" cx="8.35" cy="10.401" rx="8.35" ry="10.401" transform="translate(34.037 58.807)" fill="#cf4c58"/>
            <g id="Grupo_11" data-name="Grupo 11">
              <path id="Trazado_54" data-name="Trazado 54" d="M50.739,71.491a.95.95,0,0,1-.115-.007C34.46,69.5,32.661,61.358,32.592,61.012a.934.934,0,0,1,1.831-.371,8.192,8.192,0,0,0,2.586,3.767c2.048,1.859,6.112,4.274,13.843,5.222a.934.934,0,0,1-.112,1.862Z" fill="#a33f4d"/>
            </g>
            <g id="Grupo_12" data-name="Grupo 12">
              <path id="Trazado_55" data-name="Trazado 55" d="M50.329,73.081c-.029,0-.058,0-.087,0a34.4,34.4,0,0,1-9.761-2.224,20.347,20.347,0,0,1-5.818-3.5,11.737,11.737,0,0,1-3.526-4.841.934.934,0,0,1,1.787-.547,10.3,10.3,0,0,0,3.086,4.083c2.276,1.963,6.622,4.454,14.4,5.171a.934.934,0,0,1-.084,1.865Z" fill="#8b3748"/>
            </g>
            <g id="Grupo_13" data-name="Grupo 13">
              <path id="Trazado_56" data-name="Trazado 56" d="M32.786,77.9a.934.934,0,0,1-.158-1.855,11.219,11.219,0,0,0,4.868-2.667c3.35-2.967,5.516-7.77,6.267-13.891a.934.934,0,0,1,1.855.227,28.928,28.928,0,0,1-2.765,9.639,18.21,18.21,0,0,1-4.22,5.514,12.757,12.757,0,0,1-5.689,3.019A.943.943,0,0,1,32.786,77.9Z" fill="#be5b70"/>
            </g>
            <g id="Grupo_14" data-name="Grupo 14">
              <path id="Trazado_57" data-name="Trazado 57" d="M34.694,79.478a.934.934,0,0,1-.147-1.857,12.235,12.235,0,0,0,5.245-2.686c3.543-2.974,5.714-7.785,6.278-13.914a.934.934,0,1,1,1.861.171,26.43,26.43,0,0,1-2.634,9.7,17.54,17.54,0,0,1-4.4,5.549,13.8,13.8,0,0,1-6.059,3.023A.949.949,0,0,1,34.694,79.478Z" fill="#c78b9e"/>
            </g>
          </g>
          <g id="Grupo_16" data-name="Grupo 16">
            <path id="Trazado_58" data-name="Trazado 58" d="M36.67,10.153a8.553,8.553,0,0,1-6.414,6.559c-.163.04-.332.076-.5.11a.347.347,0,0,1-.367-.515,8.176,8.176,0,0,0,1.208-4.055,17.72,17.72,0,0,1,2.55-1.173A18.8,18.8,0,0,1,36.67,10.153Z" fill="#caa774"/>
            <path id="Trazado_59" data-name="Trazado 59" d="M49.679,12.942a8.7,8.7,0,0,1-1.78,3.753.346.346,0,0,1-.6-.1,8.068,8.068,0,0,0-4.228-5.034,1.459,1.459,0,0,0-1.9.756,9.78,9.78,0,0,0-.873,3.457.347.347,0,0,1-.574.25c-1.106-.954-3.388-3.273-3.047-5.87A19.89,19.89,0,0,1,39.858,9.9a19.093,19.093,0,0,1,8.657,2.032l.134-.116A13.216,13.216,0,0,1,49.679,12.942Z" fill="#caa774"/>
          </g>
        </g>
      </g>
    </g>
  </g>
</svg>
