<svg xmlns="http://www.w3.org/2000/svg" viewBox="0 0 661.01 227.12"><defs><style>.b02329c5-f796-474b-95ab-98aadbbd48c3{fill:#02a3db;}.b89015f5-08a4-434c-9be4-e428631745c9{fill:#f18e37;}</style></defs><title>happypet</title><g id="fcca6537-e263-4483-901e-504a2a182415" data-name="Capa 2"><g id="bd2dcf8e-bfbc-4e4e-8b65-2b3904915c59" data-name="tagline is here"><path class="b02329c5-f796-474b-95ab-98aadbbd48c3" d="M83.67,105.67H60.42V73.47H31.58v32.2H8.33v-87H31.58V54.57H60.42V18.64H83.67Z" transform="translate(-8.33 -18.64)"/><path class="b02329c5-f796-474b-95ab-98aadbbd48c3" d="M181.76,105.67H157l-7-18.27H123.2l-6.83,18.27H92.25l33.81-87H147.2Zm-54.7-36.55H146l-9.21-24.37Z" transform="translate(-8.33 -18.64)"/><path class="b02329c5-f796-474b-95ab-98aadbbd48c3" d="M230.87,18.64q13.55,0,21.75,8t8.21,20.89q0,12.56-8.21,20.26t-21.75,7.71H213.21v30.21H190v-87ZM213.21,38.53V56.81H228.5a8.56,8.56,0,0,0,9.08-9.08A9.07,9.07,0,0,0,235.09,41a8.88,8.88,0,0,0-6.59-2.49Z" transform="translate(-8.33 -18.64)"/><path class="b02329c5-f796-474b-95ab-98aadbbd48c3" d="M312.67,18.64q13.54,0,21.76,8t8.2,20.89q0,12.56-8.2,20.26t-21.76,7.71H295v30.21H271.76v-87ZM295,38.53V56.81h15.3a8.54,8.54,0,0,0,9.07-9.08A9.11,9.11,0,0,0,316.9,41a8.91,8.91,0,0,0-6.59-2.49Z" transform="translate(-8.33 -18.64)"/><path class="b02329c5-f796-474b-95ab-98aadbbd48c3" d="M433.63,20.88,399.94,64.77v40.9H376.69V65.14L342.88,20.88V18.64h25.61l19.76,28.1,19.9-28.1h25.48Z" transform="translate(-8.33 -18.64)"/><path class="b02329c5-f796-474b-95ab-98aadbbd48c3" d="M483.24,18.64q13.54,0,21.75,8t8.21,20.89Q513.2,60,505,67.75t-21.75,7.71H465.58v30.21H442.33v-87ZM465.58,38.53V56.81h15.29A8.56,8.56,0,0,0,490,47.73,9.07,9.07,0,0,0,487.46,41a8.88,8.88,0,0,0-6.59-2.49Z" transform="translate(-8.33 -18.64)"/><path class="b02329c5-f796-474b-95ab-98aadbbd48c3" d="M589.53,38.53H547.38V53.45h39V71.36h-39V85.78h42.15v19.89h-65.4v-87h65.4Z" transform="translate(-8.33 -18.64)"/><path class="b02329c5-f796-474b-95ab-98aadbbd48c3" d="M669.34,38.53H644.48v67.14H621.6V38.53H597.23V18.64h72.11Z" transform="translate(-8.33 -18.64)"/><path class="b89015f5-08a4-434c-9be4-e428631745c9" d="M93.68,140.62a7.28,7.28,0,0,1,4.78,3c0,.38.1.56.32.56l-.32,1.46v2.79l-.53.81a.58.58,0,0,1,.53.65v5.67a.57.57,0,0,0,.64.52,51.37,51.37,0,0,0,7.77-1.46h.29l.6.29c0-.38.7-.66,2.11-.85,0,.38.23.56.52.56,0-.62,1.91-1,5.71-1.21v.28a5.12,5.12,0,0,1,2.35-.56,17.3,17.3,0,0,0,1.86.28,2,2,0,0,1,.89-.28,7.78,7.78,0,0,0,3.56,2.95c0,.24-.09.37-.28.37l.28,2.1v.85H123a2.49,2.49,0,0,1-1.21-.28,18.21,18.21,0,0,0-4.46,2.71l-1.45-.37c-1.94.25-3.15.37-3.6.37a.33.33,0,0,0-.37-.37l-.28.61-1.5-.24q0,.48-7.2,1.5V163q-.61,0-2.31,1.74c-1.21,0-1.82.31-1.82.93v4.45h-.61a8.17,8.17,0,0,0,.93,3.32,2.91,2.91,0,0,0-.64,1.46,1.56,1.56,0,0,0,.32.85,24,24,0,0,1-.61,4,2.18,2.18,0,0,1,.29,1.13h-.29l.29.61v5a2.67,2.67,0,0,1-.29,1.22,2.18,2.18,0,0,1,.29,1.13V191l-.81,1.21q.48,0,.81.93V194c0,.22-.1.33-.29.33l.29.56a71.59,71.59,0,0,1-.53,7.77,3.39,3.39,0,0,1,.24,1.17,1.94,1.94,0,0,1-1.17.61v.37c.62,0,.93.17.93.52v.29l-.65.93V208a1.31,1.31,0,0,1,1.5,1.46q2.75,0,7.77-8.66c.49-1.27,1-2,1.54-2.1.35,0,.63.7.85,2.1a2.24,2.24,0,0,0-.33,1.21l.33,1.54a4.17,4.17,0,0,1-1.78,3.48l-.61-.28h-.32v.28h.64v.37l-.32.6c.4,0,.61.07.61.21a3.83,3.83,0,0,1-1.74,2.47c0,.78-.72,1.45-2.15,2a2.8,2.8,0,0,0-1.17-.2c0,1-1,1.76-3,2.3h-.93c0,.79-1.06,1.18-3.19,1.18q-2.64,0-4.29-3l.64-.89H91l-.53.37-2.14-5.47c.21,0,.32-.09.32-.28q-.69,0-1.17-2.67a3,3,0,0,0,.24-1.17c-.35,0-.52-.21-.52-.61v-.61a.24.24,0,0,1,.28-.28,3.81,3.81,0,0,1-.65-1.78c0-.62.3-.93.89-.93v-.57l-.89.57v-2.11a1.78,1.78,0,0,1,.37-1.13,1.92,1.92,0,0,1-.37-1.21l.65-.33-.28-.61v-.24a.24.24,0,0,1,.28-.28c-.14-.81-.35-1.22-.65-1.22q.52-5.1.89-5.7a14.84,14.84,0,0,1-.52-2.71h-.37c-.54,1.8-1,2.71-1.46,2.71l.29.6q-.17,1.38-3,4.17h-1l-.24.61-.61-.32a2.89,2.89,0,0,1-1.45.64c0-.43-.61-.83-1.83-1.21v-.24l1.83-2.43h.28l-.28-.61a63.18,63.18,0,0,0,5.62-16.71c-.19,0-.28-.1-.28-.29l.6-.32.65.32a17.83,17.83,0,0,1,.2-3.27l-.56-.37h-1.5a15,15,0,0,0-3,.65c-.84,0-1.33-.61-1.46-1.82h-.28c0,.78-.22,1.17-.65,1.17h-1.5a8.82,8.82,0,0,1-5.34-2.3l-.65.28a4.8,4.8,0,0,0-2.39-1.17V163c0-.29.62-.92,1.86-1.86l.9.65c0-.89.68-1.59,2.06-2.11.19,0,.28.1.28.29q4-.9,11-1.78a2.23,2.23,0,0,0,1.17.32h.33c0-.4.09-.61.28-.61s.37.1.37.29c1.78,0,2.67-1,2.67-3,.18-3,.39-4.6.6-4.81,0-.19-.1-.29-.32-.29q.48-5.3,1.5-7.16c-.43,0-.65-.19-.65-.57v-.64a.6.6,0,0,1,.65-.61h.28a.24.24,0,0,1,.28.28Zm-23.55,22V163h.64v-.36Zm1.17.89v.28H72v-.28Zm12.59.65v.56h.56v-.56Zm3.84,14.89v.28h.61v-.28Zm0,20.6V200h.61v-.28Zm.93,6.55v.29h.57v-.29Zm.29-3.6v.65h.28v-.65Zm.93,3v.36h.6c0,.38-.32.57-1,.57v.28h.37l1.45-.28v-.57a1.89,1.89,0,0,1-1.17-.36Zm4.73-5c0-.43.2-.65.53-.65,0,.22.12.32.36.32v-.6h-.89a.56.56,0,0,0-.61.6Zm.53-10.44v.24h.64v-.24Zm0,4.45h.36a3.31,3.31,0,0,1,1.78-.65l-.28-.61a3.82,3.82,0,0,1-1.86.94Zm.36.57v.64h.28v-.64Zm.28,7.77v.64h.33V203Zm.33-29.22V174h.61v-.24Zm0,27.39c0,.41.25.61.61.61v-.28a.54.54,0,0,0-.61-.61Zm1.17-27.39V174h.65v-.24Zm0,18.77v.61h.37v-.61Zm.65,14h.53v.28h-.53Zm5.62,3-.28,1.22h.28l.57-.33a3.18,3.18,0,0,1-.24-.89Z" transform="translate(-8.33 -18.64)"/><path class="b89015f5-08a4-434c-9be4-e428631745c9" d="M121.24,168.3a8.19,8.19,0,0,1,2.1-.32,7.72,7.72,0,0,1,2,2.14,2.93,2.93,0,0,1,2.71,1.83v.56a2.83,2.83,0,0,1-.28,1.22,13.14,13.14,0,0,1,.56,2.34,86.61,86.61,0,0,0-4.21,7.77q-3.48,5-8,5l-.61.93v.61c0,1,.1,2.75.29,5.1a18,18,0,0,0,9.51-8.09h1.25v1.21a26.8,26.8,0,0,0,.53,3c-.54.25-1.63,2-3.28,5.39-.49,1.29-.88,2-1.17,2.06l.28.61v.6a2.25,2.25,0,0,0-2.06,1.46c-.41,0-1.2.51-2.39,1.54-3-.57-4.49-1.28-4.49-2.15-.57,0-2.35-.68-5.35-2.06-.7,0-1.6-.59-2.71-1.78a19.91,19.91,0,0,1-1.74-4.17h.25l-.25-.61v-1.82a2.93,2.93,0,0,0-.28-1.45q0-7.24,5.91-15.5,4.53-5.74,9-5.75C120.31,168.2,121.1,168.3,121.24,168.3Zm-3.89,15.22c.6,0,1.7-1.19,3.32-3.56.38,0,.66-.69.85-2.07q-3,0-4.17,4.5Z" transform="translate(-8.33 -18.64)"/><path class="b89015f5-08a4-434c-9be4-e428631745c9" d="M160.17,161.63h3.2c0,.24.32.63,1,1.17H164a2.58,2.58,0,0,0,1.82,2.1c.4.81.9,1.22,1.49,1.22a.24.24,0,0,1-.28.28,12.89,12.89,0,0,0,1.46,3.85c0,.21-.1.32-.29.32l.89,1.46c-.27,1.24-.68,1.86-1.25,1.86v.28h.65c0,1-.22,1.46-.65,1.46l.36.57v.64l-.56-.28h-1v1.13l1.17-.85v.33c0,.19-.07.28-.2.28l.2.57c-.22.75-.49,1.13-.81,1.13l.28.65c0,.35-.31.64-.93.89l.29.6a3,3,0,0,1-1.5,2.39,1.29,1.29,0,0,1-1.46,1.46l.29.65q-1,.48-2.68,3.8c0,.24.11.37.33.37a2.83,2.83,0,0,1-.33.93,13.25,13.25,0,0,1,.33,2.34h-.33l.33.65c0,1-.2,1.46-.61,1.46l.28.56v.93c0,.17-.09.25-.28.25l.61,1.25c0,.59-.31.89-.93.89a2,2,0,0,1,.6,1.18l-.28.6c0,.22.1.33.28.33a18.78,18.78,0,0,1-.89,4.45c.41,0,.61.21.61.56V207l-.61.89H161c0,1.78-.28,2.67-.85,2.67v.29h.53v.32a3.77,3.77,0,0,1-.53,1.74,3.31,3.31,0,0,1,.24,1.22v.36c-.59,0-.89.17-.89.52l.65.94v.28h-.65v.57c.6,0,.89.1.89.32,0,1-.19,1.5-.56,1.5l.32.6-.93,1.18v.28h.28v-.57h.33l.32,1.5c-.22,1.7-.32,2.69-.32,3a.28.28,0,0,1,.32.32l-.65.28.33.57q0,.36-.33.36l.33.61v.85a.54.54,0,0,1-.61.61l.28.6v1.14h-.28v-.53h-.61c0,.3.41.69,1.22,1.17a1.6,1.6,0,0,0-.33.81c.22,0,.33.13.33.37l-.61.28.28,1.5a.57.57,0,0,1-.64.65c0-.19-.09-.29-.25-.29l-.32.53c1.24,0,1.86.71,1.86,2.15l-.32.6,2.06,4.49h.28l-.28.53a5.15,5.15,0,0,0,.61,1.82c-.6,0-.89.2-.89.61l-.61-.29a11.86,11.86,0,0,0-3.28,1.46c0-.27-.69-.66-2.06-1.17h-.28c0,.38-.11.56-.33.56q-3.88-.84-3.88-3.27v-.25h.56c0-.43-.19-.64-.56-.64v.64h-.65a3.12,3.12,0,0,0-.57-2.14c.19,0,.29-.12.29-.37-.19,0-.29-.09-.29-.28h.29a18.2,18.2,0,0,1-.89-3.52,2.43,2.43,0,0,0,.36-1.46h-.65v-1.53l.29-.61h-.57v-.37c0-.1.09-.16.28-.16a4.8,4.8,0,0,1-.64-2.43c0-.21.12-.32.36-.32l-.36-.57v-3c0-.22.12-.32.36-.32l-.36-.61v-.89l.36-.61c-.24,0-.36-.07-.36-.2h.64L148.8,221q.28-4.5.28-6c.19,0,.29-.08.29-.24h-.29l.65-1.86a1.84,1.84,0,0,1-.36-1.13l.36-.61v-.93H150v-.61a3,3,0,0,0-.24-1.17,20.27,20.27,0,0,0,.81-2.95l-.28-1.5q.19-2.67.6-2.67l-.32-.65v-.28c0-.19.11-.29.32-.29l-.32-.6c0-.19.11-.29.32-.29,0-.19-.11-.28-.32-.28l.65-3.6h-.33a2.83,2.83,0,0,0,.33-.93l-.93-1.18-.53.33h-.65l-.64-.33c0,.57-.18.85-.53.85l-.61-.2c-.59,0-.89.27-.89.81h-1.5a.25.25,0,0,1-.28-.28c-.21,0-.32.09-.32.28l-1.54-.28-.53.28a3.27,3.27,0,0,0-1.45-.61c0,.22-.12.33-.37.33l-.28-.53c.08-.84.38-1.25.89-1.25l-.24-.53a3.8,3.8,0,0,0,1.7-.93c5.42-1,8.51-1.79,9.26-2.39l-.28-.65v-.28h.61v-.57q0-.36-.33-.36l.33-.53a2.31,2.31,0,0,0-.33-1.25l.65-1.17-.32-.57.32-1.46h-.32l.6-2.14-.28-.65.28-3a2.38,2.38,0,0,1-.28-.85c.49,0,1-1,1.46-3h.32l-.32-.57a4.51,4.51,0,0,0,.56-1.74h-.24c1.49-3.8,2.86-6,4.13-6.63,0-.33.62-.81,1.86-1.46Zm-10.8,57.83v.32l.89.61v-.29Zm1.49-9.51v.6h.33V210Zm0,1.21v.28h.61v-.28Zm0,15.54v.2h.61v-.2Zm1.22,13.64v-.57c-.27,0-.57.31-.89.93A1.66,1.66,0,0,1,152.08,240.34Zm3.84-26.83v1a.58.58,0,0,0,.65-.65v-.32ZM158,232.65v.28h.6v-.28Zm3.6-55a2.39,2.39,0,0,1,.28,1.22h.28a12.16,12.16,0,0,0,1.5-3.89h-.32l.32-.56v-1.22c0-.38-.17-.57-.52-.57A14.26,14.26,0,0,0,161.63,177.69Z" transform="translate(-8.33 -18.64)"/><path class="b89015f5-08a4-434c-9be4-e428631745c9" d="M187.65,164.54a1.88,1.88,0,0,1,1.09-.32c0,.21.51.66,1.54,1.33,0,.38.45.74,1.34,1.09a2.31,2.31,0,0,1,.24,1V169h.48v.53a.94.94,0,0,0-1,1.05c.33,0,.49.08.49.24l.48-.24h4.17a2.44,2.44,0,0,0,.77,1.34v.24h-.52v.32h.52L197,173c0,.38.27.56.81.56l-.53.73v.37h.53v.73h-.53v.81c0,.35.26.52.77.52v.49a9.62,9.62,0,0,0,.24,2.14l-.24,1.38a3.45,3.45,0,0,0,.24.81l-.24,1.53v.57h-.77v.24c.51,0,.77.37.77,1.1l-.24,2.63c.16,0,.24.09.24.28h-.24l.24.49c0,.19-.08.28-.24.28a3,3,0,0,0,.24.81c-.13,2.45-.49,3.68-1.05,3.68l1.05,1.3v.28c0,.22-.08.32-.24.32a2.92,2.92,0,0,1,.48,1.54v.81c.33,0,1,1.22,2,3.64,1.34.17,1.83,1,1.45,2.39.17,1.16-.7,1.88-2.59,2.15,0,.37-.62.64-1.86.8q0-.32-5.18-1.29-3.6-2.51-4.45-4.78c-.16,0-.24-.09-.24-.28,0-.35.28-.53.85-.53v-.24h-1.58c-.38-2.64-.89-4-1.54-4,0,.24-.35.58-1,1a3,3,0,0,0-.81-.24l-.28.52a1.81,1.81,0,0,1,.28.81l-1.54,1.38h-.28c0-.7-.16-1.06-.49-1.06s-.48.36-.48,1.06h-.61v-.57h-.73v.24h.49l-.25,1.34h-.24l-1.29-.29V200H175a11.58,11.58,0,0,1-4.41-1.25h-.73v-.57h-.24v.57h-1a4.06,4.06,0,0,0-.81-1.66c-.41,0-.74-1-1-2.92h-.53v-.81c0-.32.26-.48.77-.48l-.77-1.38v-.73l.53-.8v-.25c-.3,0-.57-.2-.81-.61l.28-1.25V187c.46,0,.8-.79,1-2.39a10.29,10.29,0,0,0,2.11-4.29c.24,0,.75-.86,1.53-2.59l2.11-3.15q2-3.52,2.55-3.52c.78,0,1.48-.88,2.1-2.63l1-.81-.29-.53v-.24c1.84-2.46,3.06-3.68,3.68-3.68Q182,163.85,187.65,164.54Zm-11.82,19.83v.57h.25v-.57Zm3.81-1.09v.32a4.83,4.83,0,0,0-1.3,3.2c-.3,0-.54.61-.73,1.82-.86,0-1.29.78-1.29,2.35-.16,0-.24.37-.24,1.13a3.8,3.8,0,0,1,2-1.13l-.24-.53v-.24h.77l-.29-.49v-.28c1.4-1.35,2.12-2.43,2.15-3.24a2.81,2.81,0,0,0,1.78-2.59c.27-.08.6-.54,1-1.37l-.28-.49c.4,0,.85-.7,1.33-2.11v-.8a2,2,0,0,1-.48-1.06c-.38,0-1.08.77-2.11,2.31a9.14,9.14,0,0,0-1.54,2.47,2.8,2.8,0,0,1-.81.24Zm4.45-7.37v1.26h.24a2.05,2.05,0,0,1,.53-1l-.53-.25Zm5.14,25.66c.08.38.27.57.56.57H190c0-.38-.18-.57-.53-.57Zm2.39-20.88v.52h.24v-.52Zm1,6.11V187h.52v-.24Zm.77,6.31v.24h.48v-.24Z" transform="translate(-8.33 -18.64)"/><path class="b89015f5-08a4-434c-9be4-e428631745c9" d="M216.5,172.51c.09-.38.26-.56.53-.56v.28l.65-.28h.56q1.83,1.49,1.83,2.67l-.29,1.45a2.56,2.56,0,0,1,.29.89q-2.31,3.61-2.68,3.61c-1.07,0-2.29,1.7-3.64,5.1h-1.17v.24h.65l-1.18,1.21a.59.59,0,0,1,.53.61,18.18,18.18,0,0,1-1.46,2.67c0,.19.1.28.29.28l-.29,2.15v1.46l.29.56a33.24,33.24,0,0,0,6.83-5.06q.81,0,4.82-2.67c.94-.46,1.43-.86,1.46-1.21l.64.28a10.8,10.8,0,0,1,3.85-1.13c2.62,0,3.93.28,3.93.85l-.37,1.5a2.38,2.38,0,0,1,.37.93q-6.28,1.82-6.28,3.84-2,0-9.27,6.56a12.81,12.81,0,0,1-5.62,2.71q0-.33-.36-.33v.33c.24,0,.36.09.36.28h-.36c-1,0-1.5-.2-1.5-.61-.19,0-.29.11-.29.33q-7.16-2.14-7.16-5.95h.33l-.33-.65v-.56l.33-.61c-.44,0-.65-.19-.65-.57v-.61a2.18,2.18,0,0,1,.32-1.21.28.28,0,0,0-.32-.32c0-1.76.4-2.63,1.21-2.63v-.29h-.56v-.32q0-4.12,3.8-10.77c0-.4.31-.8.93-1.21l-.28-.53v-.6c.75,0,1.43-.61,2-1.82,1.05,0,1.77-.68,2.15-2A26,26,0,0,0,216.5,172.51ZM203.35,197v.28l.65.28v-.28Zm1.78-16.43v.64h.33v-.64Zm4.49-5.67v.32h.61v-.32Zm6.28,22.66v.61h.6v-.61Zm2.71-20.88V177l.57.33V177Z" transform="translate(-8.33 -18.64)"/><path class="b89015f5-08a4-434c-9be4-e428631745c9" d="M236.74,170.57l.65-.32c3,.72,4.45,1.72,4.45,3a3.18,3.18,0,0,0-.65,1.78h.36c-.24,1.22-.44,1.82-.6,1.82l.24.61a3,3,0,0,1-.24,1.17,3.23,3.23,0,0,1,.24,1.18c0,.19-.08.28-.24.28l.24.61c-.16.64-.34,1-.53,1l.29.52v.94h-.57c0,.37.27.56.81.56V184l-.53,1c.19,0,.29.06.29.2h-.29a2.73,2.73,0,0,1,.29,1c0,1-.19,1.46-.57,1.46l.28.56V190q0,.6-.93.6c.49,2.75.89,4.13,1.22,4.13h.24a3.42,3.42,0,0,1,1.54-.81q2.43.08,2.43.81a14.83,14.83,0,0,0-.65,3.89l.32.64q0,2.92-4.45,4.78a27.49,27.49,0,0,0-6.31-1.18v-.36l-.53.36q-1.74,0-3.92-3.31h-.33l.33-.57c-.6,0-1-.7-1.22-2.11v-.28a2.45,2.45,0,0,0,.33-.93c-.44,0-.65-.19-.65-.57s.11-.36.32-.36l-.32-.61a1.81,1.81,0,0,0,.32-.85.29.29,0,0,1-.32-.32l.65-.28-.33-.53v-.36l.33-1.5h-.33a9.09,9.09,0,0,0,.61-2.67h.28l.61.28v-.28c-.19,0-.28-.1-.28-.29.75,0,1.13-.21,1.13-.64v-.25h-.24l-1.22.89v-.89a2.43,2.43,0,0,1,.33-1.25,2.15,2.15,0,0,1-.33-1.17v-.57c.62,0,1-1.8,1.22-5.38l-.29-1.18c0-1.21.29-1.82.85-1.82v-.85l-.32-.65c.43,0,.65-.18.65-.56-.6-.19-.89-.8-.89-1.82,0-.27.59-1.06,1.78-2.35ZM231.07,184v.36h.61V184ZM249,148.47c0-.18.12-.28.36-.28v.28c-.29.22-.59,1.43-.89,3.65a9.17,9.17,0,0,0-4.81,4.12c0,.3-.38.69-1.13,1.18l.24.6q0,.81-4.49,1.79a26.31,26.31,0,0,1-5.63-1.79v-.89l.57.29h.36v-.29h-.65a16.62,16.62,0,0,0,3-3.56q1.1,0,5.34-4.21c.65-.21,1.43-.43,2.35-.64,1.1-.3,2.32-.6,3.64-.89A4.44,4.44,0,0,0,249,148.47Zm-14.24,45.09v.52H235v-.52Zm.52-10.44v.56h.28v-.56Zm2.15,10.11v.65h.28v-.65Z" transform="translate(-8.33 -18.64)"/><path class="b89015f5-08a4-434c-9be4-e428631745c9" d="M259.64,122.7l1.54-.29c1.49.22,2.75,1.4,3.81,3.56.29,0,.81.69,1.53,2.07-.27,0-.67.71-1.21,2.14a2,2,0,0,1,.32,1.14c0,.78-.32,1.17-1,1.17v.36c.14.41.35.61.65.61L265,134a15,15,0,0,1,.32,2.67.29.29,0,0,1-.32.32l.32.61c0,.29-.28.59-.85.89a8.42,8.42,0,0,1,.53,2.43c-.08.78-.37,1.17-.85,1.17a43.12,43.12,0,0,1,.52,4.45q-.48,0-.81,2.67l.61,1.86c-.46.84-.88,1.33-1.25,1.46,0,.22.09.32.28.32a8.43,8.43,0,0,1-.81,3.57.53.53,0,0,1,.53.56v.93c0,.41-.3.61-.89.61l.64.85c-.21,1.78-.62,2.67-1.21,2.67l.28.61v1.17c0,.24-.09.37-.28.37l.28.56V166a6.06,6.06,0,0,1-.85,2.95.55.55,0,0,1,.57.61v.89l-1.22.36v.2l1.22,1.26c-.43,0-.74.67-.93,2a2.33,2.33,0,0,1,.36,1h-.36a1.53,1.53,0,0,1,.36.85,9.52,9.52,0,0,0-1,3c.22,0,.32.09.32.28q-1.17.45-1.17.93v.29H260l.52-.29.29.57a1.94,1.94,0,0,1-1.18.36v.25c.79,0,1.18.19,1.18.56l-.61.37H260v-.65c-.43,0-.65.24-.65.65,1,.48,1.46.86,1.46,1.13h-.29c0,.22.1.32.29.32,0,.38-.1.57-.29.57l.29,3v3c.51,1,.91,1.5,1.21,1.5h.29a12.6,12.6,0,0,0,3-5.71l1.21-.85h.61c.49,0,1,1.3,1.46,3.89-1,4.75-2.07,7.12-3.28,7.12-.27.92-1.46,2.33-3.56,4.25v.24l.28.61-.56.28c-.19-.59-.8-.89-1.83-.89a.25.25,0,0,0-.28.28l-1.21-.52c0,.27-.31.55-.93.85h-.85c-.19,0-.29-.11-.29-.33a3.3,3.3,0,0,1-1.82.61H254a4.63,4.63,0,0,1-3.89-1.78v-.89q-1.86-.52-2.34-3.24h.32c-.59-1.8-1-2.71-1.3-2.71l.37-.61v-.32c-.41,0-.61-.09-.61-.28s.08-.29.24-.29l-.56-5.1h.32l-.32-.6a7.43,7.43,0,0,1,.56-2.07,12.63,12.63,0,0,1-.24-2.1,2.47,2.47,0,0,0,.24-.89c-.16,0-.24-.1-.24-.28a2.67,2.67,0,0,1,1.22-.29v-.56h-.33l-.65.24-.24-.61v-.28a3.41,3.41,0,0,1,.89-2.11l-.89-.56a4.39,4.39,0,0,1,.89-2.67h-.65v-.29a.33.33,0,0,1,.37-.36l-.37-.57a.65.65,0,0,1,.65-.56c-.21-1-.51-1.54-.89-1.54a5.24,5.24,0,0,1,.89-2.11c-.29,0-.59-.28-.89-.85l.89-3.64-.28-.52v-.65c0-1.4.48-2.11,1.46-2.11v-.24h-.29a2.75,2.75,0,0,1-.89.24l-.28-.56.28-.61a1.89,1.89,0,0,1-.28-.85c.65,0,1-.82,1.17-2.47-.38,0-.56-.08-.56-.24q.81-9.56,2-11.9a3.11,3.11,0,0,0-.24-.93q.89-4.86,1.49-4.86l-.36-.52q1.17-9.22,2.1-9.23c-.35-2.08-.52-3.17-.52-3.28l1.46-1.21h.84v.61h.65c0-.79,1-1.47,3-2.07Zm-12.5,44.15a.56.56,0,0,0,.61.6l.32-.6Zm0,7.77v.6h.28v-.6Zm0,7.77a2,2,0,0,1,.93-.37v-.56a3.75,3.75,0,0,1-.93-.25Zm.28-14.65V168h.65v-.24Zm2.11-18.54v.93c.37,0,.56-.2.56-.6ZM256.08,177v.61h.29V177Zm.29-53.42v.61h.32v-.61Zm1.78,45.37v.61h.6v-.61Zm.89,4.82.6.24c.38,0,.57-.18.57-.53s-.19-.64-.57-.64ZM260.82,160v.32h.65V160Zm.36,5.06v.64h.29V165ZM262,154.3h.65a.58.58,0,0,0-.65-.65Zm.93-5.38v.61h.25v-.61Z" transform="translate(-8.33 -18.64)"/><path class="b89015f5-08a4-434c-9be4-e428631745c9" d="M276,170.57l.65-.32q4.46,1.08,4.45,3a3.16,3.16,0,0,0-.64,1.78h.36c-.24,1.22-.45,1.82-.61,1.82l.25.61a3,3,0,0,1-.25,1.17,3.25,3.25,0,0,1,.25,1.18c0,.19-.09.28-.25.28l.25.61c-.17.64-.34,1-.53,1l.28.52v.94h-.56c0,.37.27.56.81.56V184l-.53,1c.19,0,.28.06.28.2h-.28a2.66,2.66,0,0,1,.28,1c0,1-.19,1.46-.56,1.46l.28.56V190q0,.6-.93.6c.48,2.75.89,4.13,1.21,4.13h.25a3.41,3.41,0,0,1,1.53-.81q2.43.08,2.43.81a15.26,15.26,0,0,0-.65,3.89l.33.64c0,1.95-1.49,3.54-4.45,4.78a27.57,27.57,0,0,0-6.32-1.18v-.36l-.52.36q-1.74,0-3.93-3.31h-.32l.32-.57c-.59,0-1-.7-1.21-2.11v-.28a2.57,2.57,0,0,0,.32-.93c-.43,0-.65-.19-.65-.57s.11-.36.33-.36l-.33-.61a1.74,1.74,0,0,0,.33-.85.29.29,0,0,1-.33-.32l.65-.28-.32-.53v-.36l.32-1.5h-.32a9.2,9.2,0,0,0,.6-2.67h.29l.6.28v-.28a.26.26,0,0,1-.28-.29c.76,0,1.13-.21,1.13-.64v-.25h-.24l-1.21.89v-.89a2.53,2.53,0,0,1,.32-1.25,2.23,2.23,0,0,1-.32-1.17v-.57c.62,0,1-1.8,1.21-5.38l-.28-1.18c0-1.21.28-1.82.85-1.82v-.85l-.33-.65c.44,0,.65-.18.65-.56-.59-.19-.89-.8-.89-1.82,0-.27.59-1.06,1.78-2.35ZM270.33,184v.36h.61V184Zm17.89-35.5c0-.18.12-.28.36-.28v.28c-.3.22-.59,1.43-.89,3.65a9.2,9.2,0,0,0-4.82,4.12c0,.3-.37.69-1.13,1.18l.24.6c0,.54-1.49,1.14-4.49,1.79a26.31,26.31,0,0,1-5.62-1.79v-.89l.56.29h.37v-.29h-.65a16.48,16.48,0,0,0,3-3.56q1.09,0,5.35-4.21c.64-.21,1.43-.43,2.34-.64,1.11-.3,2.32-.6,3.65-.89A4.39,4.39,0,0,0,288.22,148.47ZM274,193.56v.52h.28v-.52Zm.53-10.44v.56h.28v-.56Zm2.14,10.11v.65h.28v-.65Z" transform="translate(-8.33 -18.64)"/><path class="b89015f5-08a4-434c-9be4-e428631745c9" d="M297.89,140.62a7.26,7.26,0,0,1,4.77,3c0,.38.11.56.33.56l-.33,1.46v2.79l-.52.81a.58.58,0,0,1,.52.65v5.67a.58.58,0,0,0,.65.52,51.37,51.37,0,0,0,7.77-1.46h.28l.61.29c0-.38.7-.66,2.11-.85.05.38.22.56.52.56q0-.93,5.71-1.21v.28a5.12,5.12,0,0,1,2.35-.56,17.3,17.3,0,0,0,1.86.28,1.92,1.92,0,0,1,.89-.28A7.78,7.78,0,0,0,329,156c0,.24-.1.37-.28.37l.28,2.1v.85h-1.78a2.53,2.53,0,0,1-1.22-.28,18.36,18.36,0,0,0-4.45,2.71l-1.46-.37c-1.94.25-3.14.37-3.6.37a.33.33,0,0,0-.36-.37l-.28.61-1.5-.24q0,.48-7.21,1.5V163c-.4,0-1.17.58-2.3,1.74-1.22,0-1.82.31-1.82.93v4.45h-.61a8.17,8.17,0,0,0,.93,3.32,3,3,0,0,0-.65,1.46,1.58,1.58,0,0,0,.33.85,25.21,25.21,0,0,1-.61,4,2.18,2.18,0,0,1,.28,1.13h-.28l.28.61v5a2.67,2.67,0,0,1-.28,1.22,2.18,2.18,0,0,1,.28,1.13V191l-.81,1.21q.5,0,.81.93V194c0,.22-.09.33-.28.33l.28.56a71.24,71.24,0,0,1-.52,7.77,3.39,3.39,0,0,1,.24,1.17,1.94,1.94,0,0,1-1.17.61v.37c.62,0,.93.17.93.52v.29l-.65.93V208a1.31,1.31,0,0,1,1.5,1.46q2.75,0,7.77-8.66.72-1.91,1.53-2.1c.36,0,.64.7.86,2.1a2.24,2.24,0,0,0-.33,1.21l.33,1.54a4.16,4.16,0,0,1-1.79,3.48l-.6-.28h-.33v.28h.65v.37l-.32.6q.6,0,.6.21a3.76,3.76,0,0,1-1.74,2.47c0,.78-.71,1.45-2.14,2a2.8,2.8,0,0,0-1.17-.2c0,1-1,1.76-3,2.3h-.93c0,.79-1.07,1.18-3.2,1.18q-2.62,0-4.29-3l.65-.89h-.32l-.53.37-2.14-5.47c.21,0,.32-.09.32-.28q-.69,0-1.17-2.67a3,3,0,0,0,.24-1.17c-.35,0-.53-.21-.53-.61v-.61c0-.19.1-.28.29-.28a3.7,3.7,0,0,1-.65-1.78c0-.62.3-.93.89-.93v-.57l-.89.57v-2.11a1.84,1.84,0,0,1,.36-1.13,2,2,0,0,1-.36-1.21l.65-.33-.29-.61v-.24c0-.19.1-.28.29-.28-.14-.81-.35-1.22-.65-1.22q.52-5.1.89-5.7a14.65,14.65,0,0,1-.53-2.71h-.36c-.54,1.8-1,2.71-1.46,2.71l.29.6q-.17,1.38-3,4.17h-1l-.24.61-.61-.32a2.91,2.91,0,0,1-1.46.64c0-.43-.6-.83-1.82-1.21v-.24l1.82-2.43h.29l-.29-.61a63.17,63.17,0,0,0,5.63-16.71.26.26,0,0,1-.29-.29l.61-.32.65.32a17.83,17.83,0,0,1,.2-3.27l-.56-.37h-1.5a15.15,15.15,0,0,0-3,.65c-.83,0-1.32-.61-1.45-1.82h-.29c0,.78-.21,1.17-.64,1.17h-1.5a8.8,8.8,0,0,1-5.34-2.3l-.65.28a4.8,4.8,0,0,0-2.39-1.17V163c0-.29.62-.92,1.86-1.86l.89.65c0-.89.69-1.59,2.07-2.11.19,0,.28.1.28.29q4-.9,11-1.78a2.23,2.23,0,0,0,1.17.32h.33c0-.4.09-.61.28-.61s.36.1.36.29c1.78,0,2.67-1,2.67-3,.19-3,.39-4.6.61-4.81,0-.19-.11-.29-.32-.29q.48-5.3,1.49-7.16c-.43,0-.64-.19-.64-.57v-.64a.6.6,0,0,1,.64-.61h.29a.24.24,0,0,1,.28.28Zm-23.56,22V163H275v-.36Zm1.18.89v.28h.65v-.28Zm12.58.65v.56h.57v-.56Zm3.85,14.89v.28h.61v-.28Zm0,20.6V200h.61v-.28Zm.93,6.55v.29h.57v-.29Zm.28-3.6v.65h.29v-.65Zm.93,3v.36h.61c0,.38-.32.57-1,.57v.28h.36l1.46-.28v-.57a1.89,1.89,0,0,1-1.17-.36Zm4.74-5c0-.43.2-.65.52-.65,0,.22.13.32.37.32v-.6h-.89c-.41,0-.61.23-.61.6Zm.52-10.44v.24H300v-.24Zm0,4.45h.37a3.31,3.31,0,0,1,1.78-.65l-.28-.61a3.8,3.8,0,0,1-1.87.94Zm.37.57v.64H300v-.64ZM300,203v.64h.33V203Zm.33-29.22V174h.6v-.24Zm0,27.39c.05.41.25.61.6.61v-.28a.53.53,0,0,0-.6-.61Zm1.17-27.39V174h.65v-.24Zm0,18.77v.61h.36v-.61Zm.65,14h.52v.28h-.52Zm5.62,3-.28,1.22h.28l.57-.33a3.18,3.18,0,0,1-.24-.89Z" transform="translate(-8.33 -18.64)"/><path class="b89015f5-08a4-434c-9be4-e428631745c9" d="M331,164.54a1.88,1.88,0,0,1,1.09-.32c0,.21.52.66,1.54,1.33,0,.38.45.74,1.34,1.09a2.31,2.31,0,0,1,.24,1V169h.49v.53a.94.94,0,0,0-1,1.05c.33,0,.49.08.49.24l.49-.24h4.16a2.44,2.44,0,0,0,.77,1.34v.24h-.52v.32h.52l-.28.45c0,.38.27.56.81.56l-.53.73v.37h.53v.73h-.53v.81c0,.35.26.52.77.52v.49a9.62,9.62,0,0,0,.24,2.14l-.24,1.38a3.45,3.45,0,0,0,.24.81l-.24,1.53v.57h-.77v.24c.52,0,.77.37.77,1.1l-.24,2.63c.16,0,.24.09.24.28h-.24l.24.49c0,.19-.08.28-.24.28a3,3,0,0,0,.24.81c-.13,2.45-.48,3.68-1.05,3.68l1.05,1.3v.28c0,.22-.08.32-.24.32a2.92,2.92,0,0,1,.48,1.54v.81c.33,0,1,1.22,2,3.64,1.35.17,1.83,1,1.46,2.39.16,1.16-.71,1.88-2.59,2.15,0,.37-.63.64-1.87.8,0-.21-1.72-.64-5.18-1.29q-3.6-2.51-4.45-4.78c-.16,0-.24-.09-.24-.28,0-.35.28-.53.85-.53v-.24H330c-.38-2.64-.89-4-1.54-4,0,.24-.35.58-1.05,1a2.8,2.8,0,0,0-.81-.24l-.28.52a1.7,1.7,0,0,1,.28.81L325,198.74h-.28c0-.7-.16-1.06-.49-1.06s-.48.36-.48,1.06h-.61v-.57h-.73v.24h.49l-.24,1.34h-.25l-1.29-.29V200h-2.88a11.58,11.58,0,0,1-4.41-1.25h-.73v-.57h-.24v.57h-1a4.06,4.06,0,0,0-.81-1.66c-.4,0-.74-1-1-2.92h-.53v-.81c0-.32.26-.48.77-.48l-.77-1.38v-.73l.53-.8v-.25c-.3,0-.57-.2-.81-.61l.28-1.25V187c.46,0,.8-.79,1-2.39a10.29,10.29,0,0,0,2.11-4.29c.24,0,.75-.86,1.54-2.59l2.1-3.15q2-3.52,2.55-3.52c.78,0,1.48-.88,2.11-2.63l1-.81-.29-.53v-.24c1.84-2.46,3.07-3.68,3.69-3.68Q325.33,163.85,331,164.54Zm-11.82,19.83v.57h.25v-.57Zm3.81-1.09v.32a4.83,4.83,0,0,0-1.3,3.2c-.29,0-.54.61-.72,1.82-.87,0-1.3.78-1.3,2.35-.16,0-.24.37-.24,1.13a3.8,3.8,0,0,1,2-1.13l-.24-.53v-.24h.77l-.29-.49v-.28c1.41-1.35,2.12-2.43,2.15-3.24a2.79,2.79,0,0,0,1.78-2.59c.27-.08.61-.54,1-1.37l-.28-.49c.4,0,.85-.7,1.33-2.11v-.8a2,2,0,0,1-.48-1.06c-.38,0-1.08.77-2.11,2.31a9.14,9.14,0,0,0-1.54,2.47,2.86,2.86,0,0,1-.8.24Zm4.45-7.37v1.26h.24a2.05,2.05,0,0,1,.53-1l-.53-.25Zm5.14,25.66q.12.57.57.57h.24c0-.38-.18-.57-.53-.57Zm2.39-20.88v.52h.24v-.52Zm1,6.11V187h.53v-.24Zm.77,6.31v.24h.48v-.24Z" transform="translate(-8.33 -18.64)"/><path class="b89015f5-08a4-434c-9be4-e428631745c9" d="M379.19,122.7l1.54-.29c1.48.22,2.75,1.4,3.8,3.56.3,0,.81.69,1.54,2.07-.27,0-.67.71-1.21,2.14a2.06,2.06,0,0,1,.32,1.14c0,.78-.32,1.17-1,1.17v.36c.13.41.35.61.65.61l-.33.53a14.27,14.27,0,0,1,.33,2.67.29.29,0,0,1-.33.32l.33.61c0,.29-.29.59-.85.89a8.33,8.33,0,0,1,.52,2.43c-.08.78-.36,1.17-.85,1.17a44.41,44.41,0,0,1,.53,4.45c-.33,0-.59.89-.81,2.67l.61,1.86c-.46.84-.88,1.33-1.26,1.46,0,.22.1.32.29.32a8.43,8.43,0,0,1-.81,3.57.52.52,0,0,1,.52.56v.93c0,.41-.29.61-.89.61l.65.85c-.22,1.78-.62,2.67-1.22,2.67l.29.61v1.17c0,.24-.1.37-.29.37l.29.56V166a6.17,6.17,0,0,1-.85,2.95.54.54,0,0,1,.56.61v.89l-1.21.36v.2l1.21,1.26c-.43,0-.74.67-.93,2a2.24,2.24,0,0,1,.37,1h-.37a1.49,1.49,0,0,1,.37.85,9.27,9.27,0,0,0-1,3c.21,0,.32.09.32.28q-1.17.45-1.17.93v.29h.64l.53-.29.28.57a1.89,1.89,0,0,1-1.17.36v.25c.78,0,1.17.19,1.17.56l-.6.37h-.21v-.65c-.43,0-.64.24-.64.65,1,.48,1.45.86,1.45,1.13h-.28c0,.22.09.32.28.32,0,.38-.09.57-.28.57l.28,3v3c.52,1,.92,1.5,1.22,1.5h.28a12.52,12.52,0,0,0,3-5.71l1.21-.85h.61c.48,0,1,1.3,1.45,3.89q-1.45,7.13-3.27,7.12c-.27.92-1.46,2.33-3.57,4.25v.24l.29.61-.57.28c-.19-.59-.79-.89-1.82-.89a.25.25,0,0,0-.28.28l-1.22-.52c0,.27-.31.55-.93.85h-.85c-.19,0-.28-.11-.28-.33a3.3,3.3,0,0,1-1.82.61h-.28a4.62,4.62,0,0,1-3.89-1.78v-.89c-1.24-.35-2-1.43-2.35-3.24h.33c-.6-1.8-1-2.71-1.3-2.71l.37-.61v-.32c-.41,0-.61-.09-.61-.28s.08-.29.24-.29l-.57-5.1h.33l-.33-.6a7.2,7.2,0,0,1,.57-2.07,12.63,12.63,0,0,1-.24-2.1,2.47,2.47,0,0,0,.24-.89c-.16,0-.24-.1-.24-.28a2.66,2.66,0,0,1,1.21-.29v-.56H367l-.65.24-.24-.61v-.28A3.41,3.41,0,0,1,367,177l-.89-.56a4.33,4.33,0,0,1,.89-2.67h-.65v-.29a.32.32,0,0,1,.37-.36l-.37-.57A.65.65,0,0,1,367,172c-.22-1-.51-1.54-.89-1.54a5.11,5.11,0,0,1,.89-2.11c-.3,0-.59-.28-.89-.85l.89-3.64-.28-.52v-.65c0-1.4.48-2.11,1.45-2.11v-.24h-.28a2.81,2.81,0,0,1-.89.24l-.28-.56.28-.61a1.89,1.89,0,0,1-.28-.85c.64,0,1-.82,1.17-2.47q-.57,0-.57-.24.81-9.56,2-11.9a2.92,2.92,0,0,0-.25-.93q.9-4.86,1.5-4.86l-.36-.52q1.17-9.22,2.1-9.23c-.35-2.08-.52-3.17-.52-3.28l1.45-1.21h.85v.61h.65c0-.79,1-1.47,2.95-2.07Zm-12.5,44.15a.55.55,0,0,0,.6.6l.33-.6Zm0,7.77v.6H367v-.6Zm0,7.77a2,2,0,0,1,.93-.37v-.56a3.75,3.75,0,0,1-.93-.25Zm.28-14.65V168h.65v-.24Zm2.1-18.54v.93q.57,0,.57-.6ZM375.63,177v.61h.28V177Zm.28-53.42v.61h.33v-.61Zm1.78,45.37v.61h.61v-.61Zm.89,4.82.61.24c.38,0,.57-.18.57-.53s-.19-.64-.57-.64ZM380.36,160v.32H381V160Zm.37,5.06v.64H381V165Zm.85-10.73h.65a.58.58,0,0,0-.65-.65Zm.93-5.38v.61h.24v-.61Z" transform="translate(-8.33 -18.64)"/><path class="b89015f5-08a4-434c-9be4-e428631745c9" d="M408.61,164.54a1.91,1.91,0,0,1,1.09-.32c0,.21.52.66,1.54,1.33,0,.38.45.74,1.34,1.09a2.31,2.31,0,0,1,.24,1V169h.49v.53a.94.94,0,0,0-1,1.05c.33,0,.49.08.49.24l.49-.24h4.16a2.44,2.44,0,0,0,.77,1.34v.24h-.52v.32h.52L418,173c0,.38.27.56.81.56l-.53.73v.37h.53v.73h-.53v.81c0,.35.26.52.77.52v.49a9.62,9.62,0,0,0,.24,2.14l-.24,1.38a3.45,3.45,0,0,0,.24.81L419,183v.57h-.77v.24c.52,0,.77.37.77,1.1l-.24,2.63c.16,0,.24.09.24.28h-.24l.24.49c0,.19-.08.28-.24.28a3,3,0,0,0,.24.81c-.13,2.45-.48,3.68-1.05,3.68l1.05,1.3v.28c0,.22-.08.32-.24.32a2.92,2.92,0,0,1,.48,1.54v.81c.33,0,1,1.22,2,3.64,1.35.17,1.83,1,1.46,2.39.16,1.16-.71,1.88-2.59,2.15,0,.37-.63.64-1.87.8,0-.21-1.72-.64-5.18-1.29q-3.6-2.51-4.45-4.78c-.16,0-.24-.09-.24-.28,0-.35.28-.53.85-.53v-.24h-1.58c-.38-2.64-.89-4-1.54-4,0,.24-.35.58-1.05,1a2.8,2.8,0,0,0-.81-.24l-.28.52a1.7,1.7,0,0,1,.28.81l-1.54,1.38h-.28c0-.7-.16-1.06-.49-1.06s-.48.36-.48,1.06h-.61v-.57h-.73v.24h.49l-.24,1.34h-.25l-1.29-.29V200H396a11.57,11.57,0,0,1-4.42-1.25h-.72v-.57h-.25v.57h-1.05a4.06,4.06,0,0,0-.81-1.66c-.4,0-.74-1-1-2.92h-.53v-.81c0-.32.26-.48.77-.48l-.77-1.38v-.73l.53-.8v-.25c-.3,0-.57-.2-.81-.61l.28-1.25V187c.46,0,.8-.79,1-2.39a10.17,10.17,0,0,0,2.11-4.29c.24,0,.75-.86,1.54-2.59l2.1-3.15q2-3.52,2.55-3.52c.78,0,1.48-.88,2.11-2.63l1-.81-.29-.53v-.24c1.84-2.46,3.07-3.68,3.69-3.68Q403,163.85,408.61,164.54Zm-11.82,19.83v.57H397v-.57Zm3.81-1.09v.32a4.83,4.83,0,0,0-1.3,3.2c-.29,0-.54.61-.72,1.82-.87,0-1.3.78-1.3,2.35-.16,0-.24.37-.24,1.13a3.8,3.8,0,0,1,2-1.13l-.24-.53v-.24h.77l-.29-.49v-.28c1.41-1.35,2.12-2.43,2.15-3.24a2.79,2.79,0,0,0,1.78-2.59c.27-.08.61-.54,1-1.37l-.28-.49c.4,0,.85-.7,1.33-2.11v-.8a2,2,0,0,1-.48-1.06c-.38,0-1.08.77-2.11,2.31a9.16,9.16,0,0,0-1.53,2.47,3,3,0,0,1-.81.24Zm4.45-7.37v1.26h.24a2.05,2.05,0,0,1,.53-1l-.53-.25Zm5.14,25.66q.12.57.57.57H411c0-.38-.18-.57-.53-.57Zm2.39-20.88v.52h.24v-.52Zm1,6.11V187h.53v-.24Zm.77,6.31v.24h.48v-.24Z" transform="translate(-8.33 -18.64)"/><path class="b89015f5-08a4-434c-9be4-e428631745c9" d="M470.49,167c.27.57.47.85.61.85l-.25.61v.6l.25.61c-.41,0-.61.24-.61.57s.12.32.36.32q-2.22,3.08-3.6,9.87a1,1,0,0,1-.89.57v.28h.89l-.28.65v1.74c0,.19.09.29.28.29,0,.24-.09.36-.28.36l.28,1.46c-.27,2.78-.57,4.17-.89,4.17l.24.6v.33H466c0,.18.1.28.32.28q-.89,5.63-2.43,7.41h-.28l.28.64c-.32,0-.73.88-1.21,2.63a9.35,9.35,0,0,1-2.59,1.82v-.28l.28-.57h-.28a4,4,0,0,1-.93.25l.28.6V204h-.56v-1.18h-.65v.57l-.57-.32h-1.54l-.56.32v-.32l-.65.32a1.64,1.64,0,0,0-1.13-.32v.32c-1.95-1.38-2.94-2.28-3-2.71l.32-.57h-.32c0,.19-.11.29-.32.29l-.81-1.82c.19,0,.28-.09.28-.25-.65,0-1.15-1.09-1.5-3.28-.21,0-.32-.12-.32-.36l.32-.61c-.21,0-.32-.06-.32-.2h.32l-.64-1.25c.21,0,.32-.09.32-.25h-.61l-.36-2.95h.36l-.36-.65.36-.65h-.36c0,.22-.06.33-.16.33v-3l-.37-1.78.37-.56a1.89,1.89,0,0,1-.37-1.18v-.28a.33.33,0,0,1,.37-.37l-.37-.6v-1.18a.32.32,0,0,1,.37-.36,4.25,4.25,0,0,1-.65-2.31.24.24,0,0,0,.28-.28h-.6V174.7l.32-.53a1.86,1.86,0,0,1-1.17-.65c-1.22,2-2.11,3-2.68,3l-1.53.28-.61-.28a3.18,3.18,0,0,1-1.78.61l-1.5-1c0,.24-.09.36-.28.36-.32-.81-.62-1.21-.89-1.21,0-.71.78-1.5,2.35-2.39q.36-.86,4.24-3.56c0-.35.9-1,2.68-1.82,0,.4.2.6.52.6,0-.78,1.5-1.17,4.49-1.17q2.4,0,3.61,2.67a.29.29,0,0,0-.33.32h.33a.28.28,0,0,1,.32-.32l.53.89-.25.57c.6,0,.89.6.89,1.82-.24,0-.36.09-.36.28h.65v.28c0,.25-.1.37-.29.37a19.83,19.83,0,0,1,.85,4.45l-.24,1.46a3,3,0,0,1,.24,1.21l-.56-.32V181c.62.19.93.41.93.65l-.93,1.46h.32q0-.33.24-.33c0,.78.22,1.18.65,1.18l-.28,1.17a8.85,8.85,0,0,0,.93,4.29c-.62,0-.93.17-.93.53l1.17,1.21,1.22-1.74c0-.24-.11-.37-.33-.37.24-1,.54-1.49.89-1.49a3.09,3.09,0,0,1-.28-.93,47.2,47.2,0,0,0,1.46-7.49,43.45,43.45,0,0,0,2.42-6.48c.25,0,.75-.8,1.5-2.42h.28l-.28-.57q4.34-3,6.27-3Q470.85,167,470.49,167Zm-34,7.69V175h.6v-.32Zm11.33,10.24v.2l.64.32v-.32Zm.32-10.77v.29H449v-.29Zm.89-1.5V173h.65v-.29Zm.93,7.41a3.11,3.11,0,0,1,.24.93h.29v-.57Zm.24,17.28v.36l.61.29v-.29Zm.61-1.46v-.56h-.32v.56l.64.33.57-.89v-.29c-.38,0-.57.29-.57.85Zm.32-10.11h.57l.33-.65a1.78,1.78,0,0,1-.9.32Zm1.5,3.8c0,.65-.5,1-1.5,1v.33h1.22L453,190v-.37Zm-.6,1.86-.33.65v.28H452a2.38,2.38,0,0,1,.32-.93Zm0-5.34v.28l.6.25v-.25Zm.6,6.27-.6.85h.32c0-.4.28-.6.85-.6v-.25Zm-.28-21.53v.65h.28v-.65Zm0,16.72v.56c.4,0,.61-.18.61-.56Zm.61,7.77-.33.56H453l.24-.56Zm0-.93v.64h.24v-.64Zm.85-8-.33.53h.33l.32-.53Zm-.33,6.24v.6h.33v-.6Zm1.46,2.06-.53.93h.25l.64-.93Zm-.28,1.21a4.29,4.29,0,0,1-.25.93h.25l.28-.6v-.33Zm-.25,1.82v.61h.25v-.61Zm2.11-3-.37.65h.37l.28-.65Zm.28-2.59v.53h.28v-.53Zm1.46,2v-.52c-.38,0-.57.2-.57.52Zm2.71,0v.61h.28v-.61Zm1.74-2.34v.36l.65.28v-.28Zm1.86,2.34-.28.61v.36h.28c0-.43.18-.64.53-.64v-.33Zm.28-2.34v.64h.25v-.64ZM466,179.15v.65H467c0-.43-.2-.65-.61-.65Z" transform="translate(-8.33 -18.64)"/><path class="b89015f5-08a4-434c-9be4-e428631745c9" d="M479.07,170.57l.65-.32c3,.72,4.45,1.72,4.45,3a3.18,3.18,0,0,0-.65,1.78h.36c-.24,1.22-.44,1.82-.6,1.82l.24.61a3,3,0,0,1-.24,1.17,3.23,3.23,0,0,1,.24,1.18c0,.19-.08.28-.24.28l.24.61c-.16.64-.34,1-.53,1l.29.52v.94h-.57c0,.37.27.56.81.56V184l-.53,1c.19,0,.29.06.29.2H483a2.73,2.73,0,0,1,.29,1c0,1-.19,1.46-.57,1.46l.28.56V190q0,.6-.93.6c.49,2.75.89,4.13,1.22,4.13h.24a3.42,3.42,0,0,1,1.54-.81q2.43.08,2.43.81a14.83,14.83,0,0,0-.65,3.89l.32.64q0,2.92-4.45,4.78a27.49,27.49,0,0,0-6.31-1.18v-.36l-.53.36q-1.74,0-3.92-3.31h-.33l.33-.57c-.6,0-1-.7-1.22-2.11v-.28a2.45,2.45,0,0,0,.33-.93c-.44,0-.65-.19-.65-.57s.11-.36.32-.36l-.32-.61a1.81,1.81,0,0,0,.32-.85.29.29,0,0,1-.32-.32l.65-.28-.33-.53v-.36l.33-1.5h-.33a9.09,9.09,0,0,0,.61-2.67h.28l.61.28v-.28c-.19,0-.28-.1-.28-.29.75,0,1.13-.21,1.13-.64v-.25h-.24l-1.22.89v-.89a2.43,2.43,0,0,1,.33-1.25,2.15,2.15,0,0,1-.33-1.17v-.57c.62,0,1-1.8,1.22-5.38l-.29-1.18c0-1.21.29-1.82.85-1.82v-.85l-.32-.65c.43,0,.65-.18.65-.56-.6-.19-.89-.8-.89-1.82,0-.27.59-1.06,1.78-2.35ZM473.4,184v.36H474V184Zm17.89-35.5c0-.18.12-.28.36-.28v.28c-.29.22-.59,1.43-.89,3.65a9.17,9.17,0,0,0-4.81,4.12c0,.3-.38.69-1.13,1.18l.24.6q0,.81-4.49,1.79a26.31,26.31,0,0,1-5.63-1.79v-.89l.57.29h.36v-.29h-.65a16.62,16.62,0,0,0,3-3.56q1.1,0,5.34-4.21c.65-.21,1.43-.43,2.35-.64,1.1-.3,2.32-.6,3.64-.89A4.44,4.44,0,0,0,491.29,148.47ZM477,193.56v.52h.29v-.52Zm.53-10.44v.56h.28v-.56Zm2.15,10.11v.65H480v-.65Z" transform="translate(-8.33 -18.64)"/><path class="b89015f5-08a4-434c-9be4-e428631745c9" d="M514.76,152.52c.62-.22.93-.42.93-.61q4.78,1.59,4.78,2.67l-.24.65c.08.78.25,1.18.52,1.18a14.94,14.94,0,0,0-1.17,4.73l.32.65a1.81,1.81,0,0,0-.32.85h.32c-.19.78-.39,1.17-.61,1.17l.29.65v.85l-.29,3c.41,0,.61.23.61.61a1.85,1.85,0,0,0-.32.89c.43,0,.65.23.65.61a2.39,2.39,0,0,1-.94.36c0,.14.1.2.29.2-.16,1.41-.35,2.11-.57,2.11a7.43,7.43,0,0,1,.57,2.35H519a47.8,47.8,0,0,1-.61,6.31l.29.65-.61,1.13.61.32c-.25,1.22-.54,1.83-.89,1.83l.28.52-.28,2.15h.28a13.49,13.49,0,0,0-.85,2.34l.2,1.82a41.49,41.49,0,0,1-.52,5.06,2.15,2.15,0,0,1,.32,1.18v1.53a16.23,16.23,0,0,1-.61,3,5.7,5.7,0,0,1-2.67-1.22c0,.19-.12.29-.36.29v-.29l-.61.29a4.61,4.61,0,0,0-1.74-.89l-1.46.28v-.28l.25-.61a37,37,0,0,1-3.85-1.54q0,1.55-6.59,3h-2.07a8,8,0,0,1-4.81-1.74q-2.26,0-4.17-4.78a1.88,1.88,0,0,1,.93-.32l-.32-3q0-1.12,4.2-8.33c1.57-2.24,2.35-3.73,2.35-4.45,1-1.87,1.9-2.88,2.71-3l.29-.61,3,.33h.85c.41,0,.61-.33.61-1h.64a4.59,4.59,0,0,0,2.68,1.25H507l2.15-8.7h.32l-.32-.53c.46-2.61,1.05-3.92,1.78-3.92l-.29-.53v-1q2-7.65,3-10.12A2,2,0,0,0,514.76,152.52Zm-20.52,32.82v-.61c-.43,0-.64.21-.64.61Zm2.35,11.29.65.37q1.69,0,8.58-5.71l.36-1.5v-4.73a2.76,2.76,0,0,1-1.49-.65q-2,0-3,3c-1.4.45-2.7,2.15-3.88,5.09Zm16.19-44.43h.2v.64h-.2Zm2.91,4.49V157h.57v-.28Zm1.74-2.39v.28h.65v-.28Z" transform="translate(-8.33 -18.64)"/><path class="b89015f5-08a4-434c-9be4-e428631745c9" d="M542,164.54a1.88,1.88,0,0,1,1.09-.32c0,.21.51.66,1.54,1.33,0,.38.44.74,1.33,1.09a2.33,2.33,0,0,1,.25,1V169h.48v.53a.94.94,0,0,0-1,1.05c.32,0,.49.08.49.24l.48-.24h4.17a2.44,2.44,0,0,0,.77,1.34v.24h-.53v.32h.53l-.28.45c0,.38.27.56.81.56l-.53.73v.37h.53v.73h-.53v.81c0,.35.26.52.77.52v.49a9.62,9.62,0,0,0,.24,2.14l-.24,1.38a3.45,3.45,0,0,0,.24.81L552.4,183v.57h-.77v.24c.51,0,.77.37.77,1.1l-.24,2.63c.16,0,.24.09.24.28h-.24l.24.49c0,.19-.08.28-.24.28a3,3,0,0,0,.24.81c-.14,2.45-.49,3.68-1,3.68l1,1.3v.28c0,.22-.08.32-.24.32a2.92,2.92,0,0,1,.48,1.54v.81c.32,0,1,1.22,2,3.64,1.35.17,1.84,1,1.46,2.39.16,1.16-.7,1.88-2.59,2.15,0,.37-.62.64-1.86.8q0-.32-5.18-1.29c-2.4-1.67-3.89-3.26-4.45-4.78-.16,0-.25-.09-.25-.28,0-.35.29-.53.85-.53v-.24H541c-.38-2.64-.89-4-1.54-4,0,.24-.35.58-1,1a3,3,0,0,0-.81-.24l-.29.52a1.73,1.73,0,0,1,.29.81l-1.54,1.38h-.28c0-.7-.17-1.06-.49-1.06s-.49.36-.49,1.06h-.6v-.57h-.73v.24H534l-.24,1.34h-.24l-1.3-.29V200h-2.87a11.49,11.49,0,0,1-4.41-1.25h-.73v-.57H524v.57H522.9a4.06,4.06,0,0,0-.81-1.66c-.41,0-.75-1-1-2.92h-.53v-.81c0-.32.25-.48.77-.48l-.77-1.38v-.73l.53-.8v-.25c-.3,0-.57-.2-.81-.61l.28-1.25V187c.46,0,.79-.79,1-2.39a10.29,10.29,0,0,0,2.11-4.29c.24,0,.75-.86,1.53-2.59l2.11-3.15q2-3.52,2.55-3.52c.78,0,1.48-.88,2.1-2.63l1-.81-.28-.53v-.24c1.83-2.46,3.06-3.68,3.68-3.68Q536.37,163.85,542,164.54Zm-11.82,19.83v.57h.24v-.57Zm3.8-1.09v.32a4.88,4.88,0,0,0-1.29,3.2c-.3,0-.54.61-.73,1.82-.86,0-1.29.78-1.29,2.35-.17,0-.25.37-.25,1.13a3.82,3.82,0,0,1,2-1.13l-.25-.53v-.24H533l-.28-.49v-.28c1.4-1.35,2.12-2.43,2.14-3.24a2.8,2.8,0,0,0,1.79-2.59c.26-.08.6-.54,1-1.37l-.29-.49c.41,0,.85-.7,1.34-2.11v-.8a2,2,0,0,1-.49-1.06c-.37,0-1.08.77-2.1,2.31a8.9,8.9,0,0,0-1.54,2.47,2.8,2.8,0,0,1-.81.24Zm4.46-7.37v1.26h.24a2,2,0,0,1,.53-1l-.53-.25Zm5.14,25.66c.08.38.27.57.56.57h.24c0-.38-.17-.57-.52-.57ZM546,180.69v.52h.25v-.52Zm1,6.11V187h.52v-.24Zm.76,6.31v.24h.49v-.24Z" transform="translate(-8.33 -18.64)"/><path class="b89015f5-08a4-434c-9be4-e428631745c9" d="M567.05,193.15c1.32.95,2,1.93,2,3v2.63c0,.21.12.32.37.32Q567,204,564.34,204l-.69-.33h-.32l-.69.33a22.64,22.64,0,0,0-4.7-1.95q-.72,0-1.7-4.93a10.65,10.65,0,0,1,3.4-4.62c0-1.07.77-1.61,2.31-1.61C562,192.1,563.65,192.86,567.05,193.15Zm16.23-50.26v.69l.68-.37h.29l-.29.69a1.25,1.25,0,0,1,1,.65,14.13,14.13,0,0,1-.69,2.67,2.28,2.28,0,0,1,.4,1.29,2.4,2.4,0,0,0-.4,1h.4q0,.48-3.8,5.58a24.67,24.67,0,0,1-2.67,8.5h-.65l.36.69a5.06,5.06,0,0,0-1.37,3h.28a50.57,50.57,0,0,0-2,6.23q.36,0,.36.33-.88,0-2.06,6.27-.52,0-2,3.93a10.19,10.19,0,0,1-2.43,1.65c-2.27-.67-3.4-1.33-3.4-2a7.52,7.52,0,0,1-4.09-3.6q0-7.56,6.52-23.63,7.28-13.8,10.15-13.8l-.36-.73a9.22,9.22,0,0,0,2.35-1.62C582.14,141.42,583.28,142.3,583.28,142.89Z" transform="translate(-8.33 -18.64)"/></g></g></svg>