<svg xmlns="http://www.w3.org/2000/svg" width="97" height="101" viewBox="0 0 97 101">
  <defs>
    <style>
      .cls-1 {
        fill: #101c1d;
        fill-rule: evenodd;
      }
    </style>
  </defs>
  <path class="cls-1" d="M16.587,7.237a9,9,0,0,0-9.1,8.886,9,9,0,0,0,9.1,8.886,9,9,0,0,0,9.105-8.886A9,9,0,0,0,16.587,7.237Zm25.04,4.443a4.445,4.445,0,1,0,4.552,4.444A4.5,4.5,0,0,0,41.627,11.68Zm15.932,0a4.445,4.445,0,1,0-.128,8.887H87.149a4.445,4.445,0,1,0,.128-8.887H57.559Zm0,17.774a4.59,4.59,0,0,0-1.3.208,7.542,7.542,0,0,1,0,8.471,4.59,4.59,0,0,0,1.3.208H87.149a4.445,4.445,0,1,0,0-8.886H57.559ZM12.035,30.565A6.748,6.748,0,0,0,5.207,37.23v51.1a3.416,3.416,0,0,0,6.828.094c0-.031,0-0.062,0-0.094V62.778h6.829v25.55a3.415,3.415,0,0,0,6.828.094,0.913,0.913,0,0,0,0-.094V37.23h23.9a3.334,3.334,0,1,0,.1-6.665H12.035ZM38.488,52.979c0.279-1.083,1.4-1.327,3.642-1.809,0.736-.158,1.631-0.351,2.117-0.517,0.2-.2.568-0.652,0.781-0.91a5.192,5.192,0,0,1,.918-0.983,13.777,13.777,0,0,1,2.755-1.4l2.883-4a1.412,1.412,0,0,1,1.558-.515,1.362,1.362,0,0,1,.97,1.295,24.3,24.3,0,0,0,.229,2.542q0.042,0.345.086,0.719c1.292,1.825,1.327,4.55,2.16,6.689,0.35,0.905.131,2.055,0.494,2.876l-7.935,3.782c-0.069-.153-0.7-0.646-0.782-0.787-0.786-1.441-5.419-1.051-7.28-1.2a1.4,1.4,0,0,1-1.125-.726C39.261,56.731,38.14,54.336,38.488,52.979ZM58.1,59.2c0.138,0.2.748,0.352,0.9,0.529l0.95,1.018c4.876,5.781,12.337,12.91,13.565,15.708a38.3,38.3,0,0,1,2.064,7.667,20.928,20.928,0,0,0,1.237,4.719,4.133,4.133,0,0,0,3.039,1.946,5.66,5.66,0,0,0,.581.058l0.667,0h0a4.416,4.416,0,0,0,2.362-.728,4.693,4.693,0,0,0,1.876-3.546c-0.015-2.42-2.338-4.459-2.362-4.479a1.336,1.336,0,0,1-.128-1.912,1.416,1.416,0,0,1,1.964-.127c0.133,0.114,3.273,2.836,3.308,6.481a7.306,7.306,0,0,1-2.786,5.593,7.418,7.418,0,0,1-4.948,1.439l-20.975.153V92.333c0-.027,0-0.053,0-0.08-0.635-10.511,5.569-11.82,5.834-11.871A1.367,1.367,0,0,0,66.352,78.8a1.386,1.386,0,0,0-1.6-1.091c-0.09.016-8.885,1.674-8.119,14.663v1.36l-4,.028H52.627a1.385,1.385,0,0,1-1.356-1.04A1.347,1.347,0,0,1,52,91.19l0.764-.373c-0.658-5.965-.3-12.815-0.581-13.867-0.111-.172-0.288-0.411-0.474-0.66a8.646,8.646,0,0,1-1.675-4.447c-0.044-.586-0.132-1.375-0.142-2.217-0.024-1.712.362-4.3,0-6.343Z"/>
</svg>
