<svg xmlns="http://www.w3.org/2000/svg" width="97" height="101" viewBox="0 0 97 101">
  <defs>
    <style>
      .cls-1 {
        fill: #101c1d;
        fill-rule: evenodd;
      }
    </style>
  </defs>
  <path class="cls-1" d="M29.01,7.417A23.593,23.593,0,1,0,52.6,31.01,23.64,23.64,0,0,0,29.01,7.417Zm0,6.155A17.439,17.439,0,1,1,11.572,31.01,17.392,17.392,0,0,1,29.01,13.571Zm-0.047,4.06a3.078,3.078,0,0,0-3.03,3.122V31.01a3.074,3.074,0,0,0,.9,2.176l4.1,4.1a3.078,3.078,0,0,0,4.44-4.264c-0.029-.03-0.059-0.06-0.088-0.088l-3.2-3.2V20.752a3.077,3.077,0,0,0-3.033-3.122H28.962Zm25.324,2.1a27.346,27.346,0,0,1,1.928,16.412H91.583V33.061A13.35,13.35,0,0,0,78.248,19.727H54.286Zm0,22.567a27.631,27.631,0,0,1-36.56,13.993V80.248A13.351,13.351,0,0,0,31.061,93.583H78.248A13.35,13.35,0,0,0,91.583,80.248V42.293h-37.3Zm0.369,10.258a5.129,5.129,0,1,1-5.129,5.13A5.128,5.128,0,0,1,54.655,52.552Zm17.438,0a5.129,5.129,0,1,1-5.128,5.13A5.128,5.128,0,0,1,72.093,52.552ZM37.216,71.015a5.13,5.13,0,1,1-5.129,5.13A5.129,5.129,0,0,1,37.216,71.015Zm17.439,0a5.13,5.13,0,1,1-5.129,5.13A5.128,5.128,0,0,1,54.655,71.015Z"/>
</svg>
