<svg xmlns="http://www.w3.org/2000/svg" width="97" height="101" viewBox="0 0 97 101">
  <defs>
    <style>
      .cls-1 {
        fill: #cacaca;
        fill-rule: evenodd;
      }
    </style>
  </defs>
  <path id="Ellipse_1_copy_7" data-name="Ellipse 1 copy 7" class="cls-1" d="M48,3.561A46.439,46.439,0,1,1,1.561,50,46.439,46.439,0,0,1,48,3.561ZM68.02,53.945c-1.82,2.884-3.54,5.608-3.54,7.764V70.8a1.141,1.141,0,0,1-2.281,0v-9.09c0-2.805,1.888-5.8,3.887-8.964,3.923-6.216,6.156-10.585,1.614-14.51a5.6,5.6,0,0,0-5.544-1.213,1.141,1.141,0,0,1-1.167-.277,1.124,1.124,0,0,1-.271-1.161l0.028-.082a5.424,5.424,0,0,0-1.84-6.138,5.681,5.681,0,0,0-5.071-.881,5.545,5.545,0,0,0-3.581,3.475L49.76,33.4a1.143,1.143,0,0,1-2.16,0L47.157,32.1a5.558,5.558,0,0,0-9.966-1.343,5.434,5.434,0,0,0-.582,4.73l0.032,0.09a1.125,1.125,0,0,1-.267,1.163,1.146,1.146,0,0,1-1.17.278,6.043,6.043,0,0,0-5.853,1.518c-4.2,3.741-2.035,8.028,1.746,14.14,1.916,3.1,3.725,6.023,3.725,8.708V70.8a1.141,1.141,0,0,1-2.281,0v-9.41c0-2.047-1.646-4.708-3.388-7.526C26,48.769,22.126,42.464,27.43,37.257l-0.5-3.157a0.248,0.248,0,0,1,.387-0.241l2.456,1.682a8.167,8.167,0,0,1,4.3-1.016,7.671,7.671,0,0,1,1.195-4.983,7.791,7.791,0,0,1,4.5-3.255l1.033-3.193a0.249,0.249,0,0,1,.455-0.043l1.647,2.993a7.965,7.965,0,0,1,5.762,3.906,7.77,7.77,0,0,1,6.779-3.972l1.611-2.928a0.249,0.249,0,0,1,.455.043l1.145,3.538a8.45,8.45,0,0,1,1.595.907,7.634,7.634,0,0,1,3.034,6.967,7.927,7.927,0,0,1,4.658,1.1l2.546-1.744a0.248,0.248,0,0,1,.387.241l-0.56,3.526C75.009,42.866,71.157,48.974,68.02,53.945ZM31.1,44.832c-0.382-2.278.635-4.314,2.271-4.546s3.271,1.425,3.653,3.7-0.635,4.314-2.271,4.547S31.482,47.11,31.1,44.832Zm9.875-14.348c1.636-.233,3.271,1.425,3.653,3.7s-0.635,4.314-2.271,4.546-3.271-1.425-3.653-3.7S39.34,30.717,40.975,30.484ZM48.891,42.35c4.41,0,7.984,7.151,7.984,10.833a1.541,1.541,0,0,1-2.438,1.228,9.66,9.66,0,0,0-11.093,0,1.541,1.541,0,0,1-2.438-1.228C40.906,49.5,44.481,42.35,48.891,42.35Zm5.773-3.615c-1.636-.233-2.652-2.268-2.271-4.546s2.017-3.936,3.653-3.7,2.652,2.268,2.271,4.547S56.3,38.967,54.664,38.734Zm8.987,1.552c1.636,0.233,2.652,2.268,2.271,4.546s-2.017,3.936-3.652,3.7S59.616,46.267,60,43.989,62.015,40.053,63.65,40.286Z"/>
</svg>
