<svg xmlns="http://www.w3.org/2000/svg" width="97" height="101" viewBox="0 0 97 101">
  <defs>
    <style>
      .cls-1 {
        fill: #f69138;
        fill-rule: evenodd;
      }
    </style>
  </defs>
  <path class="cls-1" d="M28.5,6.29A24.21,24.21,0,1,0,52.711,30.5,24.259,24.259,0,0,0,28.5,6.29Zm0,6.316A17.894,17.894,0,1,1,10.606,30.5,17.846,17.846,0,0,1,28.5,12.607Zm-0.048,4.165a3.158,3.158,0,0,0-3.109,3.2V30.5a3.154,3.154,0,0,0,.926,2.232l4.21,4.211a3.158,3.158,0,1,0,4.556-4.374c-0.031-.031-0.06-0.062-0.091-0.092l-3.285-3.284V19.975a3.159,3.159,0,0,0-3.113-3.2H28.452Zm25.986,2.151a28.06,28.06,0,0,1,1.978,16.841H92.709V32.606A13.7,13.7,0,0,0,79.025,18.922H54.437Zm0,23.157A28.353,28.353,0,0,1,16.923,56.437V81.025A13.7,13.7,0,0,0,30.606,94.709H79.025A13.7,13.7,0,0,0,92.709,81.025V42.079H54.437ZM54.816,52.6a5.263,5.263,0,1,1-5.263,5.264A5.262,5.262,0,0,1,54.816,52.6Zm17.894,0a5.263,5.263,0,1,1-5.263,5.264A5.262,5.262,0,0,1,72.71,52.6ZM36.921,71.552a5.263,5.263,0,1,1-5.262,5.263A5.263,5.263,0,0,1,36.921,71.552Zm17.894,0a5.263,5.263,0,1,1-5.263,5.263A5.262,5.262,0,0,1,54.816,71.552Z"/>
</svg>
