<svg xmlns="http://www.w3.org/2000/svg" width="97" height="101" viewBox="0 0 97 101">
  <defs>
    <style>
      .cls-1 {
        fill: #fff;
        fill-rule: evenodd;
      }
    </style>
  </defs>
  <path id="Rounded_Rectangle_580_copy" data-name="Rounded Rectangle 580 copy" class="cls-1" d="M63.3,34.506a8.053,8.053,0,0,1-1.2-.1c-5.7-.947-9.1-8.271-7.9-17.059A18.654,18.654,0,0,1,60.081,5.4a7.887,7.887,0,0,1,6.284-1.809h0c5.7,0.946,9.1,8.269,7.909,17.057A18.659,18.659,0,0,1,68.385,32.6,8.189,8.189,0,0,1,63.3,34.506Zm-28.959,0A8.193,8.193,0,0,1,29.257,32.6a18.647,18.647,0,0,1-5.888-11.951c-1.2-8.766,2.2-16.121,7.9-17.046A7.807,7.807,0,0,1,37.556,5.41a18.652,18.652,0,0,1,5.887,11.95c1.2,8.787-2.2,16.1-7.908,17.059A7.4,7.4,0,0,1,34.338,34.506Zm59.507,0a8.869,8.869,0,0,0-5.283-4.843C83.343,28.055,77.546,32.134,75.342,39a15.135,15.135,0,0,0,.385,10.959A8.868,8.868,0,0,0,81.009,54.8a7.947,7.947,0,0,0,2.338.378,12.627,12.627,0,0,0,10.884-9.7A15.139,15.139,0,0,0,93.845,34.506Zm-90.053,0a8.866,8.866,0,0,1,5.281-4.843C14.294,28.055,20.09,32.134,22.294,39a15.139,15.139,0,0,1-.384,10.959A8.87,8.87,0,0,1,16.627,54.8a7.947,7.947,0,0,1-2.338.378,12.626,12.626,0,0,1-10.883-9.7A15.134,15.134,0,0,1,3.792,34.506ZM78.051,65.966c-0.541-.347-0.987-0.74-1.6-1.06a23.737,23.737,0,0,1-7.641-6.2A17.018,17.018,0,0,1,66.5,54.835c-0.061-.15-0.133-0.279-0.2-0.423h0a31.359,31.359,0,0,0-5.615-8.969h0a20.391,20.391,0,0,0-2.508-2.3c-0.154-.125-0.314-0.233-0.472-0.347a16.846,16.846,0,0,0-2.21-1.38c-0.237-.124-0.472-0.248-0.709-0.357a15.2,15.2,0,0,0-2.189-.789c-0.256-.074-0.514-0.167-0.771-0.223a13.021,13.021,0,0,0-6,0c-0.256.057-.514,0.15-0.766,0.223a14.6,14.6,0,0,0-2.19.789c-0.241.109-.477,0.234-0.713,0.357a16.957,16.957,0,0,0-2.21,1.38c-0.154.114-.314,0.222-0.472,0.347a21.239,21.239,0,0,0-2.509,2.3h0a31.5,31.5,0,0,0-5.615,8.949h0c-0.062.144-.133,0.273-0.2,0.423a16.586,16.586,0,0,1-2.311,3.867,23.638,23.638,0,0,1-7.642,6.2c-0.605.322-1.052,0.713-1.6,1.06a12.66,12.66,0,0,0-6.4,14.152c0.057,0.238.128,0.465,0.195,0.7a12.919,12.919,0,0,0,.807,2.124c0.077,0.155.144,0.315,0.227,0.471,3.565,6.637,12.814,10.632,23.2,12.265L38.1,95.733c1.634,0.243,3.285.434,4.949,0.564l0.734,0.046c1.68,0.113,3.366.191,5.036,0.191s3.356-.077,5.034-0.191l0.736-.046c1.665-.129,3.319-0.321,4.946-0.564l0.484-.078c10.4-1.633,19.643-5.628,23.194-12.265,0.087-.155.154-0.315,0.231-0.471a13.407,13.407,0,0,0,.807-2.124c0.066-.234.139-0.46,0.191-0.7A12.66,12.66,0,0,0,78.051,65.966Zm-13.73,9.789H54.043V86.093H43.767V75.754H33.49V65.417H43.767V55.079H54.043V65.417H64.321V75.754Z"/>
</svg>
