<svg xmlns="http://www.w3.org/2000/svg" width="97" height="101" viewBox="0 0 97 101">
  <defs>
    <style>
      .cls-1 {
        fill: #101c1d;
        fill-rule: evenodd;
      }
    </style>
  </defs>
  <path class="cls-1" d="M36.79,27.745A11.045,11.045,0,1,0,47.835,38.79,11.067,11.067,0,0,0,36.79,27.745Zm0,2.881a8.163,8.163,0,1,1-8.163,8.163A8.141,8.141,0,0,1,36.79,30.626Zm-0.022,1.9a1.441,1.441,0,0,0-1.418,1.461v4.8a1.44,1.44,0,0,0,.422,1.019l1.921,1.921a1.441,1.441,0,1,0,2.079-2l-0.041-.042-1.5-1.5V33.988a1.441,1.441,0,0,0-1.42-1.461H36.768Zm11.855,0.981a12.8,12.8,0,0,1,.9,7.683H66.082V39.75a6.25,6.25,0,0,0-6.243-6.243H48.622Zm0,10.565a12.935,12.935,0,0,1-17.114,6.55V61.839a6.25,6.25,0,0,0,6.243,6.243H59.839a6.25,6.25,0,0,0,6.243-6.243V44.072H48.622Zm0.173,4.8a2.4,2.4,0,1,1-2.4,2.4A2.4,2.4,0,0,1,48.795,48.874Zm8.163,0a2.4,2.4,0,1,1-2.4,2.4A2.4,2.4,0,0,1,56.958,48.874ZM40.631,57.518a2.4,2.4,0,1,1-2.4,2.4A2.4,2.4,0,0,1,40.631,57.518Zm8.163,0a2.4,2.4,0,1,1-2.4,2.4A2.4,2.4,0,0,1,48.795,57.518Zm22-40.9H25.209a24.5,24.5,0,0,0-24.5,24.5V58.882a24.5,24.5,0,0,0,24.5,24.5H70.791a24.5,24.5,0,0,0,24.5-24.5V41.118A24.5,24.5,0,0,0,70.791,16.618Z"/>
</svg>
