<svg xmlns="http://www.w3.org/2000/svg" viewBox="0 0 112.61 52.97"><defs><style>.e909cb9e-f19f-412f-ad7c-ac484954723b{fill:#71a903;}.ba0c5a73-702e-4a35-9b05-6c60b88d043d{fill:#ffca38;}.b4904bbe-1634-4932-ad00-60494917173c{fill:#f2ee80;}</style></defs><title>icono promo</title><g id="a298903d-c93b-4623-833e-f35dcc5696a4" data-name="Capa 2"><g id="ecec10a3-5572-49ca-a6dc-c8063a9e5080" data-name="coupon"><path class="e909cb9e-f19f-412f-ad7c-ac484954723b" d="M107.61,53H72.92a2,2,0,0,1-1.25-.44l-6.33-5.06a5,5,0,0,0-6.25,0l-6.33,5.06a2,2,0,0,1-1.25.44H5a5,5,0,0,1-5-5V5A5,5,0,0,1,5,0H51.51a2,2,0,0,1,1.25.44L59.09,5.5a5,5,0,0,0,6.25,0L71.67.44A2,2,0,0,1,72.92,0h34.69a5,5,0,0,1,5,5V48A5,5,0,0,1,107.61,53Z"/><path class="ba0c5a73-702e-4a35-9b05-6c60b88d043d" d="M62.21,38.93a2,2,0,0,1-2-2v-7a2,2,0,1,1,4,0v7A2,2,0,0,1,62.21,38.93Zm0-14a2,2,0,0,1-2-2v-7a2,2,0,1,1,4,0v7A2,2,0,0,1,62.21,24.93Z"/><path class="b4904bbe-1634-4932-ad00-60494917173c" d="M23.46,39.19H15.32a2,2,0,0,1,0-4h8.14a2,2,0,0,1,0,4Z"/><path class="b4904bbe-1634-4932-ad00-60494917173c" d="M36.42,28H15.32a2,2,0,1,1,0-4h21.1a2,2,0,0,1,0,4Z"/><path class="b4904bbe-1634-4932-ad00-60494917173c" d="M36.43,16.78H15.32a2,2,0,1,1,0-4H36.43a2,2,0,0,1,0,4Z"/><circle class="b4904bbe-1634-4932-ad00-60494917173c" cx="30.45" cy="37.19" r="2"/><circle class="b4904bbe-1634-4932-ad00-60494917173c" cx="36.52" cy="37.19" r="2"/><path class="ba0c5a73-702e-4a35-9b05-6c60b88d043d" d="M84.06,38.08a2,2,0,0,1-1.32-.5,2,2,0,0,1-.18-2.82l17-19.42a2,2,0,0,1,3,2.63l-17,19.43A2,2,0,0,1,84.06,38.08Z"/><path class="ba0c5a73-702e-4a35-9b05-6c60b88d043d" d="M89.26,20.29a4.92,4.92,0,1,1,4.88-4.39h0a4.91,4.91,0,0,1-4.88,4.39Zm0-5.84a.92.92,0,0,0-.1,1.84.94.94,0,0,0,.67-.2.91.91,0,0,0,.34-.62h0a.93.93,0,0,0-.81-1Z"/><path class="ba0c5a73-702e-4a35-9b05-6c60b88d043d" d="M97,42.4l-.53,0A4.92,4.92,0,0,1,92.08,37a4.92,4.92,0,0,1,8.73-2.55,4.9,4.9,0,0,1,1,3.61h0A4.92,4.92,0,0,1,97,42.4Zm0-5.84a.93.93,0,0,0-.58.2.9.9,0,0,0-.33.62.92.92,0,0,0,.81,1,.94.94,0,0,0,1-.82,1,1,0,0,0-.2-.68.9.9,0,0,0-.62-.33Zm2.9,1.24h0Z"/></g></g></svg>