<svg xmlns="http://www.w3.org/2000/svg" width="95" height="95" viewBox="0 0 95 95">
  <g id="Grupo_31" data-name="Grupo 31" transform="translate(-30 -619)">
    <g id="Ellipse_1082_copy_3" data-name="Ellipse 1082 copy 3" transform="translate(34 623)" fill="#ebebeb" stroke="#f5a03a" stroke-linejoin="round" stroke-width="4">
      <circle cx="43.5" cy="43.5" r="43.5" stroke="none"/>
      <circle cx="43.5" cy="43.5" r="45.5" fill="none"/>
    </g>
    <g id="Vector_Smart_Object" data-name="Vector Smart Object" transform="translate(34 623)">
      <g id="BULINE">
        <circle id="Elipse_35" data-name="Elipse 35" cx="43.5" cy="43.5" r="43.5" fill="#cf4c58"/>
      </g>
      <g id="Icons">
        <g id="Grupo_25" data-name="Grupo 25">
          <g id="Grupo_23" data-name="Grupo 23">
            <path id="Trazado_125" data-name="Trazado 125" d="M13.615,56.186a23.771,23.771,0,0,1,11.437-20.33c.24-.754.484-1.487.731-2.195a23.8,23.8,0,0,0-2.832,43.874q-.319-1.454-.581-2.918A23.736,23.736,0,0,1,13.615,56.186Z" fill="#4d84b2"/>
            <path id="Trazado_126" data-name="Trazado 126" d="M23.345,42c.519-2.184,1.1-4.233,1.708-6.14A23.783,23.783,0,0,0,22.37,74.617,79.591,79.591,0,0,1,23.345,42Z" fill="#528eca"/>
            <path id="Trazado_127" data-name="Trazado 127" d="M38.338,32.9c-.137.322-.277.657-.417,1a23.8,23.8,0,0,1-2.742,45.413c.057.2.114.392.173.588a23.792,23.792,0,0,0,2.987-47Z" fill="#5fa2d8"/>
            <path id="Trazado_128" data-name="Trazado 128" d="M53.375,56.186A23.8,23.8,0,0,0,37.921,33.9a73.161,73.161,0,0,0-3.546,11.156,66.787,66.787,0,0,0,.8,34.257A23.8,23.8,0,0,0,53.375,56.186Z" fill="#528eca"/>
            <path id="Trazado_129" data-name="Trazado 129" d="M34.375,45.055A73.1,73.1,0,0,1,38.338,32.9a23.929,23.929,0,0,0-12.554.762A84.883,84.883,0,0,0,23.345,42a79.4,79.4,0,0,0-.393,35.54,23.69,23.69,0,0,0,10.5,2.44q.958,0,1.9-.075A66.752,66.752,0,0,1,34.375,45.055Z" fill="#de959e"/>
          </g>
          <g id="Grupo_24" data-name="Grupo 24">
            <path id="Trazado_130" data-name="Trazado 130" d="M28.554,23.363c-.319-1.245,1.23-2.693,1.309-3.975s-1.284-2.9-.806-4.107c.461-1.166,2.556-1.426,3.4-2.445s.7-3.125,1.762-3.8c1.1-.7,2.953.334,4.185.018s2.375-2.113,3.658-2.033,2.169,1.992,3.377,2.47a3.037,3.037,0,0,0,1.135.155c-.188-1.046-.182-2.292-.914-2.9-1.019-.842-2.987-.047-4.153-.508C40.3,5.765,39.4,3.851,38.128,3.773S35.715,5.487,34.47,5.806s-3.089-.715-4.185-.018c-1.058.673-.92,2.779-1.762,3.8s-2.937,1.279-3.4,2.445c-.478,1.208.884,2.837.806,4.107s-1.628,2.73-1.309,3.975,2.365,1.755,3.062,2.852c.673,1.058.262,3.141,1.281,3.983.732.605,1.955.365,3.018.353a3.039,3.039,0,0,0-.366-1.086C30.919,25.118,28.87,24.6,28.554,23.363Z" fill="#6aa37a"/>
            <path id="Trazado_131" data-name="Trazado 131" d="M36.494,29.927c1.283.079,2.413-1.714,3.658-2.033s3.089.715,4.185.018c1.058-.672.92-2.779,1.762-3.8s2.937-1.279,3.4-2.445c.478-1.208-.884-2.837-.806-4.107S50.32,14.831,50,13.586s-2.365-1.755-3.062-2.852a3.035,3.035,0,0,1-.366-1.086,3.037,3.037,0,0,1-1.135-.155C44.229,9.015,43.33,7.1,42.06,7.023S39.647,8.737,38.4,9.056s-3.088-.715-4.185-.018c-1.058.673-.92,2.779-1.762,3.8s-2.937,1.279-3.4,2.445c-.478,1.208.884,2.837.806,4.107s-1.628,2.731-1.309,3.975,2.365,1.755,3.062,2.852a3.039,3.039,0,0,1,.366,1.086,3.037,3.037,0,0,1,1.135.155C34.326,27.934,35.224,29.848,36.494,29.927Z" fill="#78b98a"/>
            <ellipse id="Elipse_36" data-name="Elipse 36" cx="5.902" cy="23.341" rx="5.902" ry="23.341" transform="translate(31.656 19.833) rotate(-50.424)" fill="#78b98a"/>
            <path id="Trazado_132" data-name="Trazado 132" d="M62.067,51.349c-.319-1.245,1.229-2.693,1.309-3.975s-1.284-2.9-.806-4.107c.461-1.166,2.556-1.426,3.4-2.445s.7-3.125,1.762-3.8c1.1-.7,2.953.334,4.185.018s2.375-2.112,3.658-2.033,2.169,1.992,3.377,2.47a4.155,4.155,0,0,0,1.675.135c-.156-1-.2-2.123-.88-2.688-1.019-.842-2.987-.047-4.153-.508-1.208-.478-2.107-2.392-3.377-2.47s-2.413,1.714-3.658,2.033-3.089-.715-4.185-.018c-1.058.673-.92,2.779-1.762,3.8s-2.937,1.279-3.4,2.445c-.478,1.208.884,2.837.806,4.107s-1.628,2.73-1.308,3.975,2.365,1.755,3.062,2.852c.673,1.058.262,3.141,1.281,3.983a3.629,3.629,0,0,0,2.478.373,3.429,3.429,0,0,0-.4-1.295C64.432,53.1,62.383,52.582,62.067,51.349Z" fill="#78b98a"/>
            <path id="Trazado_133" data-name="Trazado 133" d="M67.2,55.632c1.208.478,2.107,2.392,3.377,2.47S73,56.388,74.24,56.069s3.089.715,4.185.018c1.058-.673.92-2.779,1.762-3.8s2.937-1.279,3.4-2.445c.478-1.208-.884-2.837-.806-4.107s1.628-2.73,1.309-3.975-2.365-1.755-3.062-2.852a3.434,3.434,0,0,1-.4-1.3,4.155,4.155,0,0,1-1.675-.135c-1.208-.478-2.107-2.392-3.377-2.47s-2.413,1.714-3.658,2.033-3.089-.715-4.185-.018c-1.058.673-.92,2.779-1.762,3.8s-2.937,1.279-3.4,2.445c-.478,1.208.884,2.837.806,4.107s-1.628,2.73-1.309,3.975S64.432,53.1,65.129,54.2a3.429,3.429,0,0,1,.4,1.295A4.155,4.155,0,0,1,67.2,55.632Z" fill="#84be93"/>
          </g>
        </g>
      </g>
    </g>
  </g>
</svg>
