<svg xmlns="http://www.w3.org/2000/svg" width="97" height="101" viewBox="0 0 97 101">
  <defs>
    <style>
      .cls-1 {
        fill: #101c1d;
        fill-rule: evenodd;
      }
    </style>
  </defs>
  <path class="cls-1" d="M48.446,49.811c12.669,0,22.971-9.952,22.971-22.189S61.115,5.431,48.446,5.431,25.473,15.387,25.473,27.623,35.775,49.811,48.446,49.811Zm0-34.836c7.425,0,13.467,5.674,13.467,12.647S55.871,40.267,48.446,40.267,34.977,34.6,34.977,27.623,41.02,14.976,48.446,14.976ZM60.593,57.683H36.3c-12.671,0-22.973,9.959-22.973,22.2V96.258h70.24V79.882C83.566,67.642,73.261,57.683,60.593,57.683Zm13.467,29.03H22.83V79.882c0-6.977,6.042-12.656,13.469-12.656H60.593c7.425,0,13.467,5.678,13.467,12.656v6.831Z"/>
</svg>
