<svg xmlns="http://www.w3.org/2000/svg" width="97" height="101" viewBox="0 0 97 101">
  <defs>
    <style>
      .cls-1 {
        fill: #101c1d;
        fill-rule: evenodd;
      }
    </style>
  </defs>
  <path class="cls-1" d="M70.182,17.51H25.818A23.845,23.845,0,0,0,1.973,41.355v17.29A23.845,23.845,0,0,0,25.818,82.49H70.182A23.845,23.845,0,0,0,94.027,58.645V41.355A23.846,23.846,0,0,0,70.182,17.51Zm-6.71,44.868a3.1,3.1,0,0,1-3.094,3.094H52.125a1.032,1.032,0,0,1-1.032-1.031V58.251a3.094,3.094,0,0,0-6.188,0v6.189a1.033,1.033,0,0,1-1.032,1.031H35.623a3.1,3.1,0,0,1-3.094-3.094V47.463l14.8-12.686a1.031,1.031,0,0,1,1.343,0l14.8,12.686V62.378Z"/>
</svg>
