<svg xmlns="http://www.w3.org/2000/svg" width="95" height="95" viewBox="0 0 95 95">
  <g id="Grupo_28" data-name="Grupo 28" transform="translate(-254 -507)">
    <g id="Ellipse_1082_copy_2" data-name="Ellipse 1082 copy 2" transform="translate(258 511)" fill="#ebebeb" stroke="#f5a03a" stroke-linejoin="round" stroke-width="4">
      <circle cx="43.5" cy="43.5" r="43.5" stroke="none"/>
      <circle cx="43.5" cy="43.5" r="45.5" fill="none"/>
    </g>
    <g id="Vector_Smart_Object" data-name="Vector Smart Object" transform="translate(258 510)">
      <g id="BULINE">
        <circle id="Elipse_24" data-name="Elipse 24" cx="44" cy="44" r="44" fill="#cf4c58"/>
      </g>
      <g id="Icons">
        <g id="Grupo_22" data-name="Grupo 22">
          <g id="Grupo_20" data-name="Grupo 20">
            <path id="Trazado_92" data-name="Trazado 92" d="M29.592,69.282V66.7a2.378,2.378,0,0,1,2.378-2.378H22.316A2.378,2.378,0,0,0,19.938,66.7v2.578a2.378,2.378,0,0,0,2.378,2.378h9.654A2.378,2.378,0,0,1,29.592,69.282Z" fill="#619ac2"/>
            <rect id="Rectángulo_8" data-name="Rectángulo 8" width="37.956" height="7.333" rx="2.378" transform="translate(29.592 64.326)" fill="#66a3da"/>
            <path id="Trazado_93" data-name="Trazado 93" d="M30.182,79.439l-.506-7.78H25.524l.506,7.78a5.833,5.833,0,0,0,5.821,5.455H36A5.833,5.833,0,0,1,30.182,79.439Z" fill="#5089b8"/>
            <path id="Trazado_94" data-name="Trazado 94" d="M60.94,79.439l.505-7.78H29.676l.506,7.78A5.833,5.833,0,0,0,36,84.894H55.12A5.833,5.833,0,0,0,60.94,79.439Z" fill="#528eca"/>
            <circle id="Elipse_25" data-name="Elipse 25" cx="2.057" cy="2.057" r="2.057" transform="translate(27.534 75.15)" fill="#de959e"/>
            <circle id="Elipse_26" data-name="Elipse 26" cx="2.057" cy="2.057" r="2.057" transform="translate(55.557 75.15)" fill="#de959e"/>
            <path id="Trazado_95" data-name="Trazado 95" d="M43.509,73.722l-2.678,6.646h1.9l2.678-6.646Z" fill="#93cef4"/>
            <path id="Trazado_96" data-name="Trazado 96" d="M34.891,73.722a1.432,1.432,0,0,0-1.432,1.432v3.781a1.432,1.432,0,0,0,1.432,1.432h2.852l2.678-6.646Z" fill="#93cef4"/>
            <path id="Trazado_97" data-name="Trazado 97" d="M52.079,73.722H47.637l-2.678,6.646h7.12a1.432,1.432,0,0,0,1.432-1.432V75.154A1.432,1.432,0,0,0,52.079,73.722Z" fill="#93cef4"/>
            <path id="Trazado_98" data-name="Trazado 98" d="M40.421,73.722l-2.678,6.646h3.088l2.678-6.646Z" fill="#c7e4f4"/>
            <path id="Trazado_99" data-name="Trazado 99" d="M45.405,73.722l-2.678,6.646h2.232l2.678-6.646Z" fill="#c7e4f4"/>
          </g>
          <g id="Grupo_21" data-name="Grupo 21">
            <path id="Trazado_100" data-name="Trazado 100" d="M25.829,15.352l2.316-6.26a4.529,4.529,0,0,1,4.472-2.952l-1.174-.686A4.528,4.528,0,0,0,25.626,8.13L23.31,14.39a4.513,4.513,0,0,0,2.667,5.8l2.058.761A4.513,4.513,0,0,1,25.829,15.352Z" fill="#69372a"/>
            <path id="Trazado_101" data-name="Trazado 101" d="M31.381,19.839,36.36,8.324,32.617,6.139a4.529,4.529,0,0,0-4.472,2.952l-2.316,6.26a4.513,4.513,0,0,0,2.207,5.6l.516.191A2.2,2.2,0,0,0,31.381,19.839Z" fill="#7c402d"/>
            <path id="Trazado_102" data-name="Trazado 102" d="M59.292,21.14l2.574-.952a4.513,4.513,0,0,0,2.667-5.8L62.218,8.13A4.528,4.528,0,0,0,56.4,5.454l-4.918,2.87,4.979,11.515A2.2,2.2,0,0,0,59.292,21.14Z" fill="#7c402d"/>
            <path id="Trazado_103" data-name="Trazado 103" d="M37.166,64.408H29.181l-7.315-17.4c-1.392-3.312,1.424-6.891,5.716-7.068q.172-.007.346-.007h9.237Z" fill="#ccc4b3"/>
            <path id="Trazado_104" data-name="Trazado 104" d="M50.32,64.408H58.3l7.315-17.4c1.392-3.312-1.424-6.891-5.716-7.068q-.172-.007-.346-.007H50.32Z" fill="#ccc4b3"/>
            <path id="Trazado_105" data-name="Trazado 105" d="M26.55,63.994v-.882a2.368,2.368,0,0,1,2.042-2.345,2.364,2.364,0,0,0-.327-.025H26.8a2.37,2.37,0,0,0-2.37,2.37v.882a1.093,1.093,0,0,0,1.093,1.093h2.116A1.093,1.093,0,0,1,26.55,63.994Z" fill="#69372a"/>
            <path id="Trazado_106" data-name="Trazado 106" d="M30.635,63.994v-.882a2.368,2.368,0,0,0-2.043-2.345,2.368,2.368,0,0,0-2.042,2.345v.882a1.093,1.093,0,0,0,1.093,1.093h1.9A1.093,1.093,0,0,0,30.635,63.994Z" fill="#7c402d"/>
            <path id="Trazado_107" data-name="Trazado 107" d="M57.149,63.994v-.882a2.368,2.368,0,0,1,2.042-2.345,2.364,2.364,0,0,0-.327-.025H57.4a2.37,2.37,0,0,0-2.37,2.37v.882a1.093,1.093,0,0,0,1.093,1.093h2.116A1.093,1.093,0,0,1,57.149,63.994Z" fill="#69372a"/>
            <path id="Trazado_108" data-name="Trazado 108" d="M61.234,63.994v-.882a2.368,2.368,0,0,0-2.042-2.345,2.368,2.368,0,0,0-2.042,2.345v.882a1.093,1.093,0,0,0,1.093,1.093h1.9A1.092,1.092,0,0,0,61.234,63.994Z" fill="#7c402d"/>
            <path id="Trazado_109" data-name="Trazado 109" d="M46.633,65.13H40.7a10.391,10.391,0,0,1-10.033-7.708Q27.392,45.2,33.687,32.972H53.725q6.122,12.194,2.958,24.388A10.381,10.381,0,0,1,46.633,65.13Z" fill="#fbefd2"/>
            <path id="Trazado_110" data-name="Trazado 110" d="M45.587,65.13H41.739c-3.052,0-5.719-3.164-6.51-7.708a49.366,49.366,0,0,1,1.958-24.45h13A50.571,50.571,0,0,1,52.107,57.36C51.337,61.937,48.655,65.13,45.587,65.13Z" fill="#f1cc88"/>
            <path id="Trazado_111" data-name="Trazado 111" d="M32.953,64.179V63.133a2.807,2.807,0,0,1,2.421-2.779,2.832,2.832,0,0,0-.388-.03H33.254a2.809,2.809,0,0,0-2.809,2.809v1.046a1.3,1.3,0,0,0,1.295,1.295h2.508A1.3,1.3,0,0,1,32.953,64.179Z" fill="#69372a"/>
            <path id="Trazado_112" data-name="Trazado 112" d="M37.794,64.179V63.133a2.807,2.807,0,0,0-2.421-2.779,2.807,2.807,0,0,0-2.421,2.779v1.046a1.3,1.3,0,0,0,1.295,1.295H36.5A1.3,1.3,0,0,0,37.794,64.179Z" fill="#7c402d"/>
            <path id="Trazado_113" data-name="Trazado 113" d="M51.419,64.179V63.133a2.807,2.807,0,0,1,2.421-2.779,2.832,2.832,0,0,0-.388-.03H51.72a2.809,2.809,0,0,0-2.809,2.809v1.046a1.3,1.3,0,0,0,1.295,1.295h2.508A1.3,1.3,0,0,1,51.419,64.179Z" fill="#69372a"/>
            <path id="Trazado_114" data-name="Trazado 114" d="M56.26,64.179V63.133a2.807,2.807,0,0,0-2.421-2.779,2.807,2.807,0,0,0-2.421,2.779v1.046a1.3,1.3,0,0,0,1.295,1.295h2.252A1.3,1.3,0,0,0,56.26,64.179Z" fill="#7c402d"/>
            <path id="Trazado_115" data-name="Trazado 115" d="M45.436,29.04h0Z" fill="#fbefd2"/>
            <path id="Trazado_116" data-name="Trazado 116" d="M34.641,20.965c0-7.708,4.873-14.091,11.228-15.2a11.481,11.481,0,0,0-1.984-.173c-7.3,0-13.213,6.885-13.213,15.377s5.42,8.072,12.717,8.072c.658,0,1.308,0,1.947,0C39.081,29.036,34.641,28.652,34.641,20.965Z" fill="#e3dac4"/>
            <path id="Trazado_117" data-name="Trazado 117" d="M45.385,29.04h0Z" fill="#fbefd2"/>
            <path id="Trazado_118" data-name="Trazado 118" d="M57.1,20.965c0-7.708-4.873-14.091-11.229-15.2-6.356,1.114-11.228,7.5-11.228,15.2,0,7.688,4.441,8.072,10.7,8.075h.1C51.844,29.036,57.1,28.652,57.1,20.965Z" fill="#fbefd2"/>
            <circle id="Elipse_27" data-name="Elipse 27" cx="2.291" cy="2.291" r="2.291" transform="translate(35.542 13.94)" fill="#7c402d"/>
            <circle id="Elipse_28" data-name="Elipse 28" cx="2.291" cy="2.291" r="2.291" transform="translate(47.103 13.94)" fill="#7c402d"/>
            <path id="Trazado_119" data-name="Trazado 119" d="M42.419,34.934v-4.4H41v4.4a2.809,2.809,0,0,0,3.529,2.725A2.817,2.817,0,0,1,42.419,34.934Z" fill="#b04655"/>
            <path id="Trazado_120" data-name="Trazado 120" d="M46.636,34.934v-4.4H42.419v4.4a2.817,2.817,0,0,0,2.108,2.725A2.817,2.817,0,0,0,46.636,34.934Z" fill="#cf4c58"/>
            <path id="Trazado_121" data-name="Trazado 121" d="M49.269,32.972a8.085,8.085,0,0,1-5.384-2.045A8.114,8.114,0,0,1,30.441,25.8a8.2,8.2,0,0,0-.057.947,8.115,8.115,0,0,0,13.5,6.072,8.115,8.115,0,0,0,13.5-6.072,8.2,8.2,0,0,0-.057-.947A8.117,8.117,0,0,1,49.269,32.972Z" fill="#d7b47c"/>
            <path id="Trazado_122" data-name="Trazado 122" d="M38.5,32.972a8.085,8.085,0,0,0,5.384-2.045A8.114,8.114,0,0,0,57.329,25.8a8.114,8.114,0,0,0-13.444-5.125A8.114,8.114,0,0,0,30.441,25.8,8.117,8.117,0,0,0,38.5,32.972Z" fill="#f1cc88"/>
            <path id="Trazado_123" data-name="Trazado 123" d="M42.924,23.472l-.734-1.164a2.16,2.16,0,0,1,.633-2.991,2.212,2.212,0,0,1,1.159-.324H42.431a2.211,2.211,0,0,0-1.159.324,2.16,2.16,0,0,0-.633,2.991l.734,1.164a2.963,2.963,0,0,0,3.285,1.279A2.966,2.966,0,0,1,42.924,23.472Z" fill="#7c402d"/>
            <path id="Trazado_124" data-name="Trazado 124" d="M46.391,23.472,47.13,22.3a2.154,2.154,0,0,0-.478-2.877,2.21,2.21,0,0,0-1.318-.431H43.982a2.212,2.212,0,0,0-1.159.324,2.16,2.16,0,0,0-.633,2.991l.734,1.164a2.966,2.966,0,0,0,1.733,1.279A2.966,2.966,0,0,0,46.391,23.472Z" fill="#924c35"/>
            <circle id="Elipse_29" data-name="Elipse 29" cx="1.046" cy="1.046" r="1.046" transform="translate(37.834 23.043)" fill="#d8af6b"/>
            <circle id="Elipse_30" data-name="Elipse 30" cx="1.046" cy="1.046" r="1.046" transform="translate(37.834 27.995)" fill="#d8af6b"/>
            <circle id="Elipse_31" data-name="Elipse 31" cx="1.046" cy="1.046" r="1.046" transform="translate(34.497 25.469)" fill="#d8af6b"/>
            <circle id="Elipse_32" data-name="Elipse 32" cx="1.046" cy="1.046" r="1.046" transform="translate(48.092 23.043)" fill="#d8af6b"/>
            <circle id="Elipse_33" data-name="Elipse 33" cx="1.046" cy="1.046" r="1.046" transform="translate(48.092 27.995)" fill="#d8af6b"/>
            <circle id="Elipse_34" data-name="Elipse 34" cx="1.046" cy="1.046" r="1.046" transform="translate(51.429 25.469)" fill="#d8af6b"/>
          </g>
        </g>
      </g>
    </g>
  </g>
</svg>
