<svg xmlns="http://www.w3.org/2000/svg" viewBox="0 0 159.73 255.36"><defs><style>.a6da0f8b-64ce-46e4-a056-0016dfce1ee9{fill:#fff;}</style></defs><title>rayo</title><g id="ae92f7b4-70e6-4be7-8fd7-276c519f44d8" data-name="Capa 2"><g id="a6dc66a9-6587-4c40-857a-19609a561254" data-name="Capa 1"><path class="a6da0f8b-64ce-46e4-a056-0016dfce1ee9" d="M97,95.79h29.08c7.81,0,15.63.07,23.44,0,3.69,0,6.94.54,9,4,2.25,3.73.81,6.94-1.19,10.21q-31.2,50.94-62.32,101.92Q83.53,230.77,72,249.7c-2.34,3.85-5.2,6.62-10.09,5.35-4.21-1.09-6.26-4.62-5.82-10.27q3.22-41.73,6.58-83.44c.23-3,.29-6,.46-9.71H57.67c-15.79,0-31.59.2-47.37-.19a13.83,13.83,0,0,1-8.82-4c-2.93-3.07-.95-6.77,1.14-10Q45.11,71.82,87.57,6.19C91.09.75,94.38-.95,98.39.49,102.71,2,104.3,5.59,103.74,12q-3.37,38.72-6.68,77.42C96.9,91.39,97,93.35,97,95.79ZM74.75,212.18l1.15.4,61.62-100.86c-16.69,0-32.28,0-47.87,0-7,0-10.13-3.22-9.6-10.17,1-13.56,2.34-27.11,3.49-40.66.54-6.44,1-12.89,1.45-19.34l-1.11-.22-61,94.37c16.44,0,31.86,0,47.27,0,7.07,0,10.21,3.08,9.77,10-.66,10.26-1.62,20.51-2.42,30.77Q76.08,194.32,74.75,212.18Z"/></g></g></svg>