<svg 
 xmlns="http://www.w3.org/2000/svg"
 xmlns:xlink="http://www.w3.org/1999/xlink"
 width="24px" height="24px">
<path fill-rule="evenodd"  fill="rgb(255, 255, 255)"
 d="M23.961,21.863 L21.869,23.960 L16.469,18.549 C14.757,19.809 12.730,20.450 10.699,20.450 C8.197,20.450 5.698,19.497 3.794,17.589 C1.949,15.741 0.934,13.284 0.934,10.670 C0.934,8.57 1.949,5.600 3.794,3.752 C7.601,0.61 13.796,0.63 17.602,3.752 C19.447,5.600 20.462,8.57 20.462,10.670 C20.462,12.782 19.790,14.785 18.562,16.454 L23.961,21.863 ZM15.510,5.848 C14.184,4.519 12.441,3.854 10.699,3.854 C8.955,3.854 7.213,4.519 5.886,5.848 C4.601,7.136 3.893,8.849 3.893,10.670 C3.893,12.492 4.601,14.204 5.886,15.492 C8.538,18.150 12.856,18.151 15.510,15.492 C16.795,14.204 17.503,12.492 17.503,10.670 C17.503,8.849 16.795,7.136 15.510,5.848 Z"/>
</svg>