<svg xmlns="http://www.w3.org/2000/svg" width="97" height="101" viewBox="0 0 97 101">
  <defs>
    <style>
      .cls-1 {
        fill: #cbcbcb;
        fill-rule: evenodd;
      }
    </style>
  </defs>
  <path class="cls-1" d="M48.432,3.656A4.6,4.6,0,0,0,45.224,5.03l-13.9,14.08a4.737,4.737,0,0,0-.134,6.637,4.592,4.592,0,0,0,6.552.135c0.046-.044.09-0.089,0.134-0.135l5.991-6.068V63.5a4.634,4.634,0,1,0,9.267.133q0-.066,0-0.133V19.679l5.992,6.068a4.591,4.591,0,0,0,6.551.135,4.736,4.736,0,0,0,.134-6.637c-0.044-.046-0.089-0.091-0.134-0.135L51.776,5.03A4.6,4.6,0,0,0,48.432,3.656ZM29.966,32.988a14.063,14.063,0,0,0-13.9,14.08v35.2a14.062,14.062,0,0,0,13.9,14.08H67.034a14.062,14.062,0,0,0,13.9-14.08v-35.2a14.063,14.063,0,0,0-13.9-14.08H64.717a4.694,4.694,0,0,0-.131,9.387h2.448a4.6,4.6,0,0,1,4.633,4.693v35.2a4.6,4.6,0,0,1-4.633,4.693H29.966a4.6,4.6,0,0,1-4.633-4.693v-35.2a4.6,4.6,0,0,1,4.633-4.693h2.317a4.694,4.694,0,0,0,.131-9.387H29.966Z"/>
</svg>
